<svg version="1.1" id="Layer_1" xmlns="http://www.w3.org/2000/svg" xmlns:xlink="http://www.w3.org/1999/xlink" x="0px" y="0px"
	 width="100%" viewBox="0 0 691 560" enable-background="new 0 0 691 560" xml:space="preserve">
<path fill="#060E3C" opacity="1.000000" stroke="none" 
	d="
M487.000000,561.000000 
	C326.166687,561.000000 165.833374,560.984741 5.500150,561.093872 
	C1.750912,561.096375 0.904096,560.249512 0.906281,556.500000 
	C1.013338,372.833435 1.013322,189.166794 0.906330,5.500241 
	C0.904146,1.751363 1.750146,0.904798 5.499855,0.906518 
	C232.833099,1.010787 460.166412,1.010773 687.499634,0.906608 
	C691.248169,0.904891 692.095886,1.749643 692.093689,5.499743 
	C691.986633,189.166306 691.986694,372.832947 692.093628,556.499512 
	C692.095825,560.247803 691.251648,561.103455 687.500244,561.096008 
	C620.833679,560.963684 554.166809,561.000000 487.000000,561.000000 
z"/>
<path fill="#FEFEFF" opacity="1.000000" stroke="none" 
	d="
M218.778839,373.597290 
	C219.317230,374.058624 219.630753,374.274536 220.066040,374.753693 
	C220.290863,375.178406 220.393951,375.339905 220.742401,375.650970 
	C220.987747,375.800568 221.428680,375.970184 221.662811,376.001526 
	C224.681458,378.250000 227.495773,380.433533 230.061615,383.384094 
	C231.381760,385.786713 234.267487,386.584778 234.778839,389.597290 
	C235.317215,390.058655 235.630753,390.274567 236.066025,390.753723 
	C236.290863,391.178406 236.393951,391.339905 236.742401,391.650970 
	C236.987747,391.800568 237.428680,391.970184 237.662811,392.001526 
	C240.682816,394.301544 243.587616,396.435974 246.137085,399.457764 
	C249.408569,401.939789 250.840134,406.440338 255.828247,406.220917 
	C256.108643,406.043732 256.562531,406.007324 256.776611,405.929840 
	C258.715332,401.559662 262.358459,398.770599 265.440948,395.665527 
	C278.415833,382.595734 291.353851,369.483398 304.504089,356.592743 
	C316.698944,344.638641 328.662933,332.450317 340.853271,320.491638 
	C349.487976,312.020996 357.928558,303.300293 366.510651,294.753784 
	C379.316467,282.001068 391.990570,269.114624 404.897858,256.458984 
	C413.766388,247.763367 422.371216,238.736542 431.213806,229.992004 
	C443.715332,217.629074 456.048157,205.092667 468.595428,192.773666 
	C477.581543,183.951050 486.322632,174.816559 495.264130,165.925766 
	C507.728363,153.532257 520.095215,141.034988 532.633545,128.713120 
	C541.615051,119.886612 550.357056,110.759979 559.316162,101.891975 
	C571.813171,89.522087 583.953491,76.797424 596.730530,64.694473 
	C602.616272,59.119289 608.030640,52.959816 613.873474,47.285870 
	C617.460327,43.802692 622.385437,44.106506 625.730835,47.825829 
	C625.966248,48.528507 625.980347,48.951736 626.073547,49.682671 
	C626.594421,50.524654 627.046570,51.050037 627.723511,51.838783 
	C627.937317,52.111603 627.970581,52.030884 627.930420,52.047924 
	C628.473999,52.566410 629.198364,52.890743 629.800293,53.770569 
	C630.303223,55.578533 629.071350,57.849091 632.003906,58.668335 
	C632.284729,59.175259 632.391174,59.338589 632.744873,59.658142 
	C633.727539,60.057728 634.015625,60.595352 634.080078,61.660278 
	C635.101685,63.027546 636.645691,63.643459 636.787170,65.620117 
	C637.006226,65.840721 637.414307,66.012100 637.634888,66.030594 
	C639.737061,67.457886 640.416687,69.666168 641.745850,71.843399 
	C641.968140,72.528252 641.980225,72.951912 642.071289,73.683601 
	C642.592590,74.524780 643.045349,75.049026 643.721558,75.837463 
	C643.935120,76.110199 643.973450,76.028061 643.932556,76.047592 
	C647.297058,77.429214 647.197266,81.419502 649.741028,83.862892 
	C649.966309,84.555672 649.980103,84.971794 650.079102,85.688354 
	C651.106384,87.026573 652.644104,87.644630 652.788513,89.619179 
	C654.317139,89.963707 653.550659,92.201653 655.537964,92.009567 
	C656.946411,92.957794 656.280396,94.234001 656.780457,95.582092 
	C658.076172,98.698723 659.467224,101.407539 662.065125,103.105286 
	C664.441956,104.658562 663.955750,106.876991 663.965210,109.462433 
	C660.343384,116.452492 654.041443,120.562195 649.015808,125.800697 
	C636.835144,138.497452 624.314880,150.886124 611.728271,163.185135 
	C598.784485,175.833176 586.150085,188.793137 573.215027,201.450562 
	C564.689087,209.793472 556.418213,218.479248 547.931702,226.887665 
	C535.074341,239.626663 522.250671,252.415253 509.448029,265.200256 
	C496.647614,277.983032 483.896423,290.838257 471.112305,303.645935 
	C457.269104,317.514648 443.486938,331.448303 429.475067,345.154572 
	C422.015991,352.450989 414.732391,359.997345 407.336945,367.388885 
	C393.359894,381.358459 379.346069,395.300507 365.376373,409.271576 
	C352.586609,422.062592 339.838806,434.914948 327.053497,447.717163 
	C313.208435,461.580658 299.420685,475.505402 285.432739,489.230896 
	C277.867493,496.654236 269.893921,503.786255 263.098022,511.945801 
	C258.382385,517.607605 252.810959,517.744141 246.292328,516.175964 
	C246.048264,515.914490 246.019608,515.990356 246.054474,515.969666 
	C245.465744,515.485596 244.944061,514.914429 244.233887,514.127014 
	C244.060135,513.895142 244.027039,513.975891 244.066284,513.956787 
	C242.353333,513.287048 241.768188,511.344025 239.932327,510.303375 
	C235.795532,506.345093 231.705093,502.778778 228.234344,498.156372 
	C228.116959,495.643188 225.604507,495.543365 224.493500,493.971375 
	C219.614639,490.745270 215.874146,486.746674 212.236557,482.161316 
	C212.116730,479.641968 209.606491,479.540314 208.490906,477.970093 
	C203.603622,474.753174 199.875717,470.743469 196.236572,466.161316 
	C196.116959,463.643188 193.604507,463.543365 192.493500,461.971375 
	C187.614639,458.745270 183.874146,454.746674 180.236557,450.161316 
	C180.116959,447.643188 177.604507,447.543365 176.493500,445.971375 
	C171.614639,442.745270 167.874146,438.746674 164.236557,434.161316 
	C164.116959,431.643188 161.604507,431.543365 160.493500,429.971375 
	C155.614639,426.745270 151.874146,422.746674 148.236557,418.161316 
	C148.116959,415.643188 145.604507,415.543365 144.493500,413.971375 
	C139.614639,410.745270 135.874146,406.746674 132.236557,402.161316 
	C132.116730,399.641968 129.606491,399.540314 128.490906,397.970093 
	C123.603600,394.753174 119.875702,390.743408 116.236526,386.161255 
	C116.116844,383.641907 113.606277,383.540558 112.491104,381.970184 
	C107.603661,378.753387 103.875801,374.743469 100.236526,370.161255 
	C100.117058,367.643036 97.604462,367.543365 96.493484,365.971375 
	C91.614670,362.745209 87.874023,358.746735 84.236511,354.161255 
	C84.116844,351.641907 81.606277,351.540558 80.491104,349.970184 
	C75.529121,347.114929 72.621376,342.423035 68.169968,338.926971 
	C67.626259,338.032013 67.515099,337.360535 67.224716,336.426331 
	C66.996033,336.176880 66.572838,336.010223 66.346527,335.987854 
	C64.391747,333.940491 61.248226,333.374054 60.230110,330.143127 
	C59.062027,328.132233 58.426197,326.032074 55.506763,325.966461 
	C54.561604,324.126526 54.537159,322.337311 55.815002,320.341064 
	C56.087788,320.054199 56.007648,320.024048 56.032249,320.059082 
	C57.946327,316.950836 60.245914,314.211761 63.830296,312.267334 
	C64.096176,312.057739 64.018394,312.018280 64.038071,312.057190 
	C65.433365,309.766602 66.959366,307.584564 69.837898,306.265533 
	C70.100952,306.059967 70.027115,306.015625 70.041634,306.056152 
	C72.650970,302.324615 75.472847,298.776917 79.828201,296.268799 
	C80.096176,296.057739 80.018394,296.018280 80.038071,296.057190 
	C81.433365,293.766602 82.959366,291.584564 85.837898,290.265533 
	C86.100952,290.059967 86.027115,290.015625 86.041634,290.056152 
	C90.310059,283.987640 95.801979,279.107574 101.827011,274.272491 
	C102.100128,274.059357 102.026489,274.015076 102.041122,274.055481 
	C103.041702,272.971313 103.459648,271.500549 104.499725,270.374146 
	C108.637672,265.892761 112.830643,265.963287 117.834984,271.005249 
	C120.009529,274.544708 123.631935,276.119812 126.057266,279.372620 
	C128.304062,282.636475 131.679932,284.266205 134.061371,287.383118 
	C135.381271,289.786438 138.267349,290.584595 138.778809,293.597290 
	C139.317200,294.058655 139.630737,294.274567 140.066025,294.753723 
	C140.290863,295.178406 140.393951,295.339905 140.742401,295.650970 
	C140.987747,295.800568 141.428680,295.970184 141.662811,296.001526 
	C144.681458,298.250000 147.495773,300.433533 150.061615,303.384094 
	C151.381760,305.786713 154.267487,306.584778 154.778839,309.597290 
	C155.317215,310.058655 155.630753,310.274567 156.066040,310.753723 
	C156.290863,311.178406 156.393951,311.339905 156.742401,311.650970 
	C156.987747,311.800568 157.428680,311.970184 157.662811,312.001526 
	C160.681458,314.250000 163.495773,316.433533 166.061615,319.384094 
	C167.381760,321.786713 170.267487,322.584778 170.778839,325.597290 
	C171.317215,326.058655 171.630737,326.274567 172.066025,326.753723 
	C172.290863,327.178406 172.393951,327.339905 172.742401,327.650970 
	C172.987747,327.800568 173.428680,327.970184 173.662811,328.001526 
	C176.681458,330.250000 179.495773,332.433533 182.061615,335.384094 
	C183.381760,337.786713 186.267487,338.584778 186.778839,341.597290 
	C187.317200,342.058655 187.630737,342.274567 188.066025,342.753723 
	C188.290863,343.178406 188.393951,343.339905 188.742401,343.650970 
	C188.987747,343.800568 189.428680,343.970184 189.662811,344.001526 
	C192.681458,346.250000 195.495773,348.433533 198.061615,351.384094 
	C199.381760,353.786713 202.267487,354.584778 202.778839,357.597290 
	C203.317200,358.058655 203.630737,358.274567 204.066025,358.753723 
	C204.290863,359.178406 204.393951,359.339905 204.742401,359.650970 
	C204.987747,359.800568 205.428680,359.970184 205.662811,360.001526 
	C208.681458,362.250000 211.495773,364.433533 214.061615,367.384094 
	C215.381760,369.786713 218.267487,370.584778 218.778839,373.597290 
z"/>
<path fill="#090E30" opacity="1.000000" stroke="none" 
	d="
M246.079498,516.277222 
	C254.864944,518.218384 260.351868,513.097412 265.949890,507.461304 
	C307.539124,465.588928 349.199707,423.787109 390.922974,382.048248 
	C429.860657,343.096008 468.939209,304.284607 507.889282,265.344727 
	C546.300598,226.943436 584.617188,188.447296 622.999329,150.016739 
	C636.363098,136.636093 649.798584,123.327057 663.574890,109.930511 
	C664.143494,114.301567 662.594116,117.733177 658.237366,119.359406 
	C653.152161,121.257507 651.260315,126.372993 647.873291,129.910736 
	C645.716858,132.163147 644.082581,134.775299 641.059326,136.036453 
	C636.422546,137.970703 634.944458,142.925858 631.677185,146.206635 
	C629.735168,148.156586 628.338257,150.566757 625.628967,151.736313 
	C620.750610,153.842270 618.838135,158.885574 615.469666,162.471756 
	C613.791260,164.258591 612.678833,166.524796 610.183960,167.402527 
	C605.039673,169.212387 603.266968,174.450714 599.824768,177.957031 
	C597.779907,180.039993 596.377014,182.724274 593.434875,183.814240 
	C588.652893,185.585815 587.190979,190.599640 583.915955,193.855392 
	C581.737183,196.021317 580.185425,198.768143 577.127808,199.996689 
	C572.442932,201.879089 571.013672,206.883163 567.712524,210.137817 
	C565.767517,212.055435 564.482117,214.658676 561.688354,215.674316 
	C556.908203,217.412109 555.075256,222.207977 552.101624,225.613632 
	C549.777771,228.275070 547.727417,230.884445 544.537842,232.382812 
	C540.347229,234.351425 538.861450,238.815964 535.888367,241.908188 
	C533.730469,244.152618 532.100342,246.775024 529.070801,248.029556 
	C524.424133,249.953735 522.956482,254.918991 519.682922,258.195038 
	C517.740417,260.139038 516.413757,262.715240 513.627747,263.696564 
	C508.785217,265.402191 507.109222,270.311340 504.077972,273.684845 
	C501.726593,276.301758 499.642883,278.898346 496.483673,280.419189 
	C492.319855,282.423676 490.879089,286.900085 487.839600,289.955872 
	C485.788666,292.017761 484.394135,294.722015 481.446716,295.807678 
	C476.658325,297.571472 475.209015,302.596588 471.922333,305.844543 
	C469.741364,307.999817 468.202179,310.765076 465.139771,311.990234 
	C460.450226,313.866394 459.026093,318.876190 455.718597,322.125946 
	C453.772949,324.037628 452.498016,326.651825 449.700653,327.668701 
	C444.923309,329.405365 443.094727,334.204895 440.108063,337.602875 
	C437.780273,340.251221 435.746704,342.884888 432.548798,344.374512 
	C428.346863,346.331848 426.878571,350.811096 423.894836,353.897034 
	C421.734619,356.131195 420.118622,358.774445 417.082672,360.022552 
	C412.426514,361.936829 410.968414,366.911469 407.688995,370.183014 
	C405.746033,372.121368 404.427643,374.702118 401.640503,375.692108 
	C396.813812,377.406616 395.094147,382.284393 392.082642,385.668732 
	C389.739655,388.301819 387.642548,390.855743 384.499634,392.421539 
	C380.232697,394.547363 378.711487,399.165436 375.575378,402.350830 
	C373.756226,404.198608 372.527191,406.612610 369.895630,407.557404 
	C364.930939,409.339874 363.303101,414.465698 359.925720,417.827637 
	C357.749634,419.993713 356.218689,422.760956 353.151917,423.983917 
	C348.459625,425.855011 347.037903,430.868591 343.724792,434.113892 
	C341.778625,436.020294 340.503906,438.616669 337.715302,439.669220 
	C332.813690,441.519287 331.106903,446.566589 327.810150,449.990936 
	C325.772980,452.106964 324.312378,454.721497 321.400299,455.830048 
	C316.646271,457.639679 315.136383,462.605804 311.897827,465.885590 
	C309.726471,468.084595 308.136597,470.773346 305.094604,472.015625 
	C300.429718,473.920624 298.980194,478.903809 295.695221,482.170990 
	C293.751770,484.103943 292.441559,486.688904 289.653351,487.687836 
	C284.842712,489.411255 283.078308,494.256714 280.087067,497.652405 
	C277.752930,500.302155 275.501801,502.593842 272.548798,504.475769 
	C268.280731,507.195801 265.799744,511.653229 262.791809,515.553040 
	C261.318939,517.462585 260.550446,519.170715 257.328278,517.976562 
	C255.064911,517.137695 252.077850,517.926697 249.489319,518.400391 
	C247.657013,518.735779 246.576950,518.509949 246.079498,516.277222 
z"/>
<path fill="#0A0D30" opacity="1.000000" stroke="none" 
	d="
M625.964417,47.705444 
	C620.316223,44.719181 618.415039,44.910271 613.344727,49.946377 
	C581.574707,81.501785 549.789673,113.042358 518.107117,144.685410 
	C482.347260,180.400635 446.682648,216.211212 410.990173,251.993835 
	C366.625366,296.470612 322.308807,340.995575 277.880981,385.409271 
	C271.125763,392.162292 264.033905,398.577484 257.360596,405.814758 
	C255.844650,400.284271 261.078918,398.001740 263.650269,395.106506 
	C270.735016,387.129486 278.317047,379.380493 286.362518,372.438416 
	C293.863373,365.966156 299.081512,357.366272 307.737854,351.856110 
	C311.572601,349.415100 313.959534,343.578003 318.087524,340.623688 
	C326.344269,334.714569 331.119934,325.424805 339.859802,319.778259 
	C343.534637,317.404022 346.077423,312.118225 349.870117,308.840515 
	C356.296783,303.286469 361.235779,296.202576 367.722351,290.849823 
	C373.349243,286.206512 377.030029,279.725494 382.764709,275.551453 
	C389.263672,270.821045 393.200378,263.753601 399.385406,258.999451 
	C405.307648,254.447342 409.086945,247.811783 414.891907,243.470291 
	C421.313904,238.667328 425.223419,231.537186 431.518463,226.936554 
	C437.464508,222.590988 440.949982,215.969162 446.624573,211.686371 
	C453.129150,206.777161 457.299774,199.653061 463.645020,194.855072 
	C469.365387,190.529587 472.837616,184.122498 478.404175,179.956451 
	C485.060394,174.974838 489.254852,167.629272 495.768646,162.775833 
	C501.399017,158.580612 504.616028,152.109314 510.227966,148.259018 
	C518.499390,142.584061 523.101868,133.329865 531.771484,127.841415 
	C535.477356,125.495377 538.029785,120.230621 541.810974,116.930275 
	C548.204407,111.349983 553.112854,104.219322 559.637817,98.926743 
	C565.319153,94.318535 568.980652,87.853584 574.686157,83.625160 
	C581.251160,78.759827 585.382202,71.646866 591.679504,66.747337 
	C600.003723,60.270832 605.786072,51.343193 613.817993,44.599464 
	C615.376526,43.290894 616.181152,41.693691 618.078613,43.606770 
	C619.466003,45.005619 621.007324,44.313599 622.278381,43.891720 
	C625.835266,42.711140 626.286072,44.504345 625.964417,47.705444 
z"/>
<path fill="#090E31" opacity="1.000000" stroke="none" 
	d="
M101.696411,274.043335 
	C98.603897,279.495056 93.383430,283.319519 88.952583,287.872070 
	C88.291603,288.551208 88.391411,290.262573 86.430786,290.060303 
	C85.818726,285.640656 86.352203,281.905762 91.492981,279.952606 
	C92.391701,279.611176 97.622261,279.154205 95.714355,274.451294 
	C95.358444,273.573975 99.360245,274.537354 101.696411,274.043335 
z"/>
<path fill="#090E31" opacity="1.000000" stroke="none" 
	d="
M118.157532,272.238159 
	C116.020653,272.628479 115.895607,270.706696 115.104355,269.957520 
	C112.231239,267.237213 109.630951,267.059601 106.878105,270.012177 
	C105.581223,271.403137 104.171547,272.688965 102.434372,274.059143 
	C101.937286,272.783966 101.278336,271.157013 101.819092,270.229462 
	C102.780571,268.580200 102.123650,264.627899 106.581017,266.731689 
	C108.982330,267.865112 111.883202,265.579651 115.125847,266.342590 
	C118.512856,267.139557 119.204971,268.387177 119.002823,271.609680 
	C118.820061,272.139832 118.636208,272.282196 118.157532,272.238159 
z"/>
<path fill="#090E31" opacity="1.000000" stroke="none" 
	d="
M79.772346,296.040527 
	C77.791550,300.118439 73.995041,302.788361 70.430717,306.060303 
	C70.296059,298.060455 72.642342,295.544037 79.772346,296.040527 
z"/>
<path fill="#090E2E" opacity="1.000000" stroke="none" 
	d="
M67.835403,337.689209 
	C72.891663,340.855255 76.117493,345.381866 80.067551,349.580200 
	C78.728966,350.706177 76.962654,351.307068 76.240761,349.560455 
	C74.612923,345.622070 71.312065,343.631409 68.081863,341.398865 
	C67.429047,340.947662 67.360641,339.650909 67.014862,338.371582 
	C67.185898,337.808197 67.364876,337.617279 67.835403,337.689209 
z"/>
<path fill="#090E2E" opacity="1.000000" stroke="none" 
	d="
M227.919937,498.184875 
	C232.799011,500.812927 236.036209,505.358429 240.019897,509.509155 
	C240.213226,510.070129 240.380127,510.262878 240.273163,510.722595 
	C238.421463,511.091766 236.702316,510.859344 236.064667,509.394684 
	C234.524124,505.856110 231.918976,503.621124 228.574631,501.929047 
	C227.262070,501.264893 226.914963,499.906403 227.919937,498.184875 
z"/>
<path fill="#090E2E" opacity="1.000000" stroke="none" 
	d="
M115.919884,386.184814 
	C120.787422,388.856476 124.131241,393.312622 128.067429,397.580017 
	C127.090942,398.345764 125.623940,399.404755 125.006783,398.242767 
	C122.799538,394.086853 119.169731,391.506927 115.597763,388.776154 
	C114.885269,388.231445 115.445435,387.246765 115.919884,386.184814 
z"/>
<path fill="#090E2E" opacity="1.000000" stroke="none" 
	d="
M99.919884,370.184814 
	C104.787422,372.856567 108.131454,377.312531 112.067551,381.580200 
	C111.091049,382.345398 109.624016,383.404907 109.006851,382.242859 
	C106.799576,378.086914 103.169800,375.506927 99.597794,372.776154 
	C98.885292,372.231415 99.445457,371.246765 99.919884,370.184814 
z"/>
<path fill="#090E2E" opacity="1.000000" stroke="none" 
	d="
M195.919937,466.184875 
	C200.787445,468.856567 204.131332,473.312561 208.067429,477.580017 
	C207.090973,478.345886 205.623917,479.404816 205.006790,478.242798 
	C202.799652,474.086792 199.169754,471.506927 195.597794,468.776154 
	C194.885284,468.231445 195.445419,467.246765 195.919937,466.184875 
z"/>
<path fill="#090E2E" opacity="1.000000" stroke="none" 
	d="
M131.919937,402.184875 
	C136.801437,404.842804 140.112946,409.333710 144.068970,413.582275 
	C143.944229,413.960144 143.755234,413.968872 143.283722,413.988220 
	C140.740829,413.979492 131.834534,404.845581 131.919937,402.184875 
z"/>
<path fill="#090E2E" opacity="1.000000" stroke="none" 
	d="
M83.919884,354.184814 
	C88.801361,356.842804 92.112892,361.333740 96.068970,365.582275 
	C95.944206,365.960144 95.755196,365.968872 95.283707,365.988220 
	C92.740799,365.979523 83.834534,356.845642 83.919884,354.184814 
z"/>
<path fill="#090E2E" opacity="1.000000" stroke="none" 
	d="
M147.919937,418.184875 
	C152.801437,420.842804 156.112946,425.333710 160.068970,429.582275 
	C159.944229,429.960144 159.755234,429.968872 159.283722,429.988220 
	C156.740829,429.979492 147.834518,420.845581 147.919937,418.184875 
z"/>
<path fill="#090E2E" opacity="1.000000" stroke="none" 
	d="
M163.919937,434.184875 
	C168.801437,436.842804 172.112946,441.333710 176.068970,445.582275 
	C175.944229,445.960144 175.755234,445.968872 175.283722,445.988220 
	C172.740829,445.979492 163.834534,436.845581 163.919937,434.184875 
z"/>
<path fill="#090E2E" opacity="1.000000" stroke="none" 
	d="
M179.919937,450.184875 
	C184.801437,452.842804 188.112946,457.333710 192.068970,461.582275 
	C191.944229,461.960144 191.755234,461.968872 191.283722,461.988220 
	C188.740829,461.979492 179.834518,452.845581 179.919937,450.184875 
z"/>
<path fill="#090E2E" opacity="1.000000" stroke="none" 
	d="
M211.919937,482.184875 
	C216.801437,484.842804 220.112946,489.333710 224.068970,493.582275 
	C223.944229,493.960144 223.755234,493.968872 223.283722,493.988220 
	C220.740829,493.979492 211.834534,484.845581 211.919937,482.184875 
z"/>
<path fill="#090E31" opacity="1.000000" stroke="none" 
	d="
M63.772308,312.040527 
	C62.561314,315.528442 59.284241,317.397156 56.427860,320.044006 
	C55.023335,313.944427 57.182774,311.586517 63.772308,312.040527 
z"/>
<path fill="#0A0F29" opacity="1.000000" stroke="none" 
	d="
M255.781525,405.897675 
	C255.220383,409.345947 253.600998,408.321045 251.947449,406.716034 
	C249.938919,404.766449 247.973877,402.772064 245.929138,400.424500 
	C246.050568,399.915405 246.232880,399.778839 246.706680,399.820496 
	C250.664459,400.670563 251.857422,404.977936 255.781525,405.897675 
z"/>
<path fill="#080F2C" opacity="1.000000" stroke="none" 
	d="
M150.159073,304.237396 
	C146.386963,302.552673 144.580643,299.242798 141.945572,296.405182 
	C145.589584,297.604645 149.814575,298.506683 150.990463,303.627197 
	C150.815643,304.141510 150.633118,304.283173 150.159073,304.237396 
z"/>
<path fill="#080F2C" opacity="1.000000" stroke="none" 
	d="
M214.159073,368.237396 
	C210.386963,366.552673 208.580643,363.242798 205.945572,360.405182 
	C209.589584,361.604645 213.814575,362.506683 214.990463,367.627197 
	C214.815643,368.141510 214.633118,368.283173 214.159073,368.237396 
z"/>
<path fill="#080F2C" opacity="1.000000" stroke="none" 
	d="
M198.159073,352.237396 
	C194.386963,350.552673 192.580643,347.242798 189.945572,344.405182 
	C193.589584,345.604645 197.814575,346.506683 198.990463,351.627197 
	C198.815643,352.141510 198.633118,352.283173 198.159073,352.237396 
z"/>
<path fill="#080F2C" opacity="1.000000" stroke="none" 
	d="
M230.159073,384.237396 
	C226.386963,382.552673 224.580643,379.242798 221.945572,376.405182 
	C225.589584,377.604645 229.814575,378.506683 230.990463,383.627197 
	C230.815643,384.141510 230.633118,384.283173 230.159073,384.237396 
z"/>
<path fill="#080F2C" opacity="1.000000" stroke="none" 
	d="
M246.990570,399.626282 
	C246.809799,400.006622 246.621414,400.014435 246.150650,400.037109 
	C242.388138,398.553131 240.582108,395.242188 237.945587,392.405212 
	C241.589676,393.604218 245.813675,394.507111 246.990570,399.626282 
z"/>
<path fill="#090E30" opacity="1.000000" stroke="none" 
	d="
M117.925812,272.421051 
	C118.052856,272.041779 118.242996,272.031830 118.718536,272.009644 
	C121.589378,274.498932 126.375175,274.582306 126.990509,279.628784 
	C126.815445,280.141754 126.632507,280.283478 126.157471,280.237671 
	C122.399124,278.542389 120.573845,275.254272 117.925812,272.421051 
z"/>
<path fill="#080F2C" opacity="1.000000" stroke="none" 
	d="
M182.159073,336.237396 
	C178.386963,334.552673 176.580643,331.242798 173.945572,328.405182 
	C177.589584,329.604645 181.814575,330.506683 182.990463,335.627197 
	C182.815643,336.141510 182.633118,336.283173 182.159073,336.237396 
z"/>
<path fill="#080F2C" opacity="1.000000" stroke="none" 
	d="
M125.928680,280.419312 
	C126.054184,280.041107 126.242996,280.032043 126.715088,280.011475 
	C129.586121,282.500153 134.379578,282.573517 134.990540,287.628418 
	C134.815643,288.141510 134.633118,288.283173 134.159073,288.237396 
	C130.399750,286.543304 128.586029,283.242706 125.928680,280.419312 
z"/>
<path fill="#080F2C" opacity="1.000000" stroke="none" 
	d="
M166.159073,320.237396 
	C162.386963,318.552673 160.580643,315.242798 157.945572,312.405182 
	C161.589584,313.604645 165.814575,314.506683 166.990463,319.627197 
	C166.815643,320.141510 166.633118,320.283173 166.159073,320.237396 
z"/>
<path fill="#090E31" opacity="1.000000" stroke="none" 
	d="
M69.695724,306.043823 
	C69.196182,308.809692 66.647690,310.091187 64.427834,312.046478 
	C63.916260,310.063416 63.774780,308.030701 63.635368,306.027649 
	C65.516113,306.027649 67.403297,306.027649 69.695724,306.043823 
z"/>
<path fill="#090E31" opacity="1.000000" stroke="none" 
	d="
M85.695717,290.043823 
	C85.196182,292.809692 82.647690,294.091187 80.427834,296.046478 
	C79.916252,294.063446 79.774773,292.030762 79.635345,290.027649 
	C81.516098,290.027649 83.403290,290.027649 85.695717,290.043823 
z"/>
<path fill="#080C2E" opacity="1.000000" stroke="none" 
	d="
M649.957031,83.772461 
	C645.645508,83.599922 646.841553,78.571587 643.944580,76.452881 
	C646.452148,75.521049 648.912415,75.025574 648.183533,79.157028 
	C647.883240,80.858910 650.359741,81.563202 649.957031,83.772461 
z"/>
<path fill="#080F2C" opacity="1.000000" stroke="none" 
	d="
M641.976196,71.706345 
	C639.487976,71.208748 637.718262,69.785805 637.915894,66.440659 
	C642.545288,65.196152 643.485596,67.295609 641.976196,71.706345 
z"/>
<path fill="#080D2D" opacity="1.000000" stroke="none" 
	d="
M59.917461,330.173889 
	C62.811890,330.781311 64.101921,333.340881 66.060791,335.594910 
	C65.934036,335.972656 65.747864,335.979828 65.278893,335.992035 
	C63.336315,334.089172 58.145493,335.520813 59.917461,330.173889 
z"/>
<path fill="#080D2D" opacity="1.000000" stroke="none" 
	d="
M165.928864,320.415131 
	C166.055954,320.040497 166.244339,320.031036 166.715454,320.010681 
	C168.309998,321.804504 172.851486,321.108185 171.048996,325.566101 
	C169.332520,324.155273 167.661346,322.467804 165.928864,320.415131 
z"/>
<path fill="#080D2D" opacity="1.000000" stroke="none" 
	d="
M213.928879,368.415131 
	C214.055954,368.040497 214.244339,368.031036 214.715454,368.010681 
	C216.309998,369.804504 220.851486,369.108185 219.049011,373.566101 
	C217.332520,372.155273 215.661362,370.467804 213.928879,368.415131 
z"/>
<path fill="#080D2D" opacity="1.000000" stroke="none" 
	d="
M133.928864,288.415131 
	C134.055954,288.040497 134.244339,288.031036 134.715454,288.010681 
	C136.309998,289.804504 140.851486,289.108185 139.048996,293.566101 
	C137.332504,292.155273 135.661346,290.467804 133.928864,288.415131 
z"/>
<path fill="#080D2D" opacity="1.000000" stroke="none" 
	d="
M181.928864,336.415131 
	C182.055954,336.040497 182.244339,336.031036 182.715454,336.010681 
	C184.309998,337.804504 188.851486,337.108185 187.048996,341.566101 
	C185.332504,340.155273 183.661346,338.467804 181.928864,336.415131 
z"/>
<path fill="#080D2D" opacity="1.000000" stroke="none" 
	d="
M197.928879,352.415131 
	C198.055954,352.040497 198.244339,352.031036 198.715454,352.010681 
	C200.309998,353.804504 204.851486,353.108185 203.049011,357.566101 
	C201.332520,356.155273 199.661362,354.467804 197.928879,352.415131 
z"/>
<path fill="#080D2D" opacity="1.000000" stroke="none" 
	d="
M229.928864,384.415131 
	C230.055954,384.040497 230.244339,384.031036 230.715454,384.010681 
	C232.309998,385.804504 236.851486,385.108185 235.048996,389.566101 
	C233.332504,388.155273 231.661346,386.467804 229.928864,384.415131 
z"/>
<path fill="#080D2D" opacity="1.000000" stroke="none" 
	d="
M149.928864,304.415131 
	C150.055954,304.040497 150.244339,304.031036 150.715454,304.010681 
	C152.309998,305.804504 156.851486,305.108185 155.048996,309.566101 
	C153.332520,308.155273 151.661362,306.467804 149.928864,304.415131 
z"/>
<path fill="#070B29" opacity="1.000000" stroke="none" 
	d="
M55.758556,320.088867 
	C55.595718,321.736664 56.757042,323.677582 55.205643,325.582153 
	C51.806526,323.836853 52.936325,321.945129 55.758556,320.088867 
z"/>
<path fill="#090E30" opacity="1.000000" stroke="none" 
	d="
M240.257278,511.222626 
	C240.006027,510.804138 240.012772,510.618713 240.032913,510.155334 
	C242.190659,510.005127 242.523239,512.279907 244.049072,513.572632 
	C242.049011,514.354065 241.113510,513.148804 240.257278,511.222626 
z"/>
<path fill="#070D2B" opacity="1.000000" stroke="none" 
	d="
M653.005737,89.470215 
	C652.013306,88.792847 651.018005,87.747154 650.093506,86.345123 
	C652.424194,85.828568 653.169006,87.049942 653.005737,89.470215 
z"/>
<path fill="#070D2B" opacity="1.000000" stroke="none" 
	d="
M637.003418,65.472397 
	C636.012878,64.792374 635.019531,63.744022 634.096313,62.339661 
	C636.429138,61.826637 637.163513,63.057846 637.003418,65.472397 
z"/>
<path fill="#070D2B" opacity="1.000000" stroke="none" 
	d="
M630.145264,53.864319 
	C629.030518,53.963829 627.906494,54.260094 627.940186,52.411289 
	C628.804504,52.479321 631.591614,50.009739 630.145264,53.864319 
z"/>
<path fill="#070D2B" opacity="1.000000" stroke="none" 
	d="
M627.919006,51.796257 
	C627.072144,51.943848 625.887878,52.207546 626.085815,50.341583 
	C627.046509,50.122253 627.759094,50.466812 627.919006,51.796257 
z"/>
<path fill="#090E30" opacity="1.000000" stroke="none" 
	d="
M244.092651,514.226074 
	C244.900574,514.062988 246.103912,513.714905 246.036652,515.598633 
	C245.149338,515.887512 244.343811,515.636292 244.092651,514.226074 
z"/>
<path fill="#080C2E" opacity="1.000000" stroke="none" 
	d="
M643.916931,75.795029 
	C643.068726,75.945427 641.886780,76.208115 642.083374,74.342743 
	C643.043640,74.122734 643.756348,74.466248 643.916931,75.795029 
z"/>
<path fill="#070B29" opacity="1.000000" stroke="none" 
	d="
M657.009277,95.487915 
	C655.135986,95.341003 656.392090,93.781624 655.930298,92.409492 
	C657.147034,92.742706 656.967957,93.976875 657.009277,95.487915 
z"/>
<path fill="#080D2D" opacity="1.000000" stroke="none" 
	d="
M68.070625,337.640411 
	C67.940353,337.963715 67.753769,337.975372 67.287048,337.993073 
	C67.003983,337.594208 67.001030,337.189240 66.997055,336.480591 
	C67.896729,336.064667 67.960793,336.692017 68.070625,337.640411 
z"/>
<path fill="#080D2D" opacity="1.000000" stroke="none" 
	d="
M65.001511,336.001831 
	C64.920448,336.036530 64.837860,336.069366 64.875679,336.049683 
	C64.996086,335.997101 65.000000,336.000000 65.001511,336.001831 
z"/>
<path fill="#070D2B" opacity="1.000000" stroke="none" 
	d="
M632.890869,59.648392 
	C632.686829,59.722572 632.381531,59.630772 632.127197,59.275452 
	C632.420959,59.118248 632.624756,59.275074 632.890869,59.648392 
z"/>
<path fill="#080D2D" opacity="1.000000" stroke="none" 
	d="
M140.887543,295.638672 
	C140.691803,295.711914 140.395859,295.623291 140.143845,295.275787 
	C140.425171,295.121307 140.625031,295.274597 140.887543,295.638672 
z"/>
<path fill="#080D2D" opacity="1.000000" stroke="none" 
	d="
M156.887543,311.638672 
	C156.691803,311.711914 156.395859,311.623260 156.143845,311.275787 
	C156.425171,311.121307 156.625031,311.274597 156.887543,311.638672 
z"/>
<path fill="#080D2D" opacity="1.000000" stroke="none" 
	d="
M172.887543,327.638672 
	C172.691803,327.711914 172.395859,327.623260 172.143845,327.275787 
	C172.425171,327.121307 172.625031,327.274597 172.887543,327.638672 
z"/>
<path fill="#080D2D" opacity="1.000000" stroke="none" 
	d="
M236.887543,391.638672 
	C236.691803,391.711945 236.395859,391.623291 236.143845,391.275787 
	C236.425171,391.121307 236.625031,391.274597 236.887543,391.638672 
z"/>
<path fill="#080D2D" opacity="1.000000" stroke="none" 
	d="
M188.887543,343.638672 
	C188.691803,343.711914 188.395859,343.623291 188.143845,343.275787 
	C188.425171,343.121307 188.625031,343.274597 188.887543,343.638672 
z"/>
<path fill="#080D2D" opacity="1.000000" stroke="none" 
	d="
M204.887543,359.638672 
	C204.691803,359.711914 204.395859,359.623291 204.143845,359.275787 
	C204.425171,359.121307 204.625031,359.274597 204.887543,359.638672 
z"/>
<path fill="#080D2D" opacity="1.000000" stroke="none" 
	d="
M220.887543,375.638672 
	C220.691803,375.711945 220.395859,375.623291 220.143845,375.275787 
	C220.425171,375.121307 220.625031,375.274597 220.887543,375.638672 
z"/>
<path fill="#060E3C" opacity="1.000000" stroke="none" 
	d="
M143.000610,413.999390 
	C142.892639,413.873230 142.784058,413.747681 142.675476,413.622131 
	C142.749496,413.667114 142.823532,413.712097 142.948318,413.879150 
	C142.999084,414.001221 143.000000,414.000000 143.000610,413.999390 
z"/>
<path fill="#060E3C" opacity="1.000000" stroke="none" 
	d="
M95.000610,365.999390 
	C94.892639,365.873230 94.784058,365.747681 94.675484,365.622131 
	C94.749519,365.667114 94.823555,365.712097 94.948303,365.879150 
	C94.999023,366.001221 95.000000,366.000000 95.000610,365.999390 
z"/>
<path fill="#060E3C" opacity="1.000000" stroke="none" 
	d="
M159.000610,429.999390 
	C158.892639,429.873230 158.784058,429.747681 158.675476,429.622131 
	C158.749496,429.667084 158.823532,429.712067 158.948334,429.879150 
	C158.999084,430.001221 159.000000,430.000000 159.000610,429.999390 
z"/>
<path fill="#060E3C" opacity="1.000000" stroke="none" 
	d="
M175.000610,445.999390 
	C174.892624,445.873230 174.784042,445.747681 174.675461,445.622131 
	C174.749496,445.667114 174.823532,445.712097 174.948318,445.879150 
	C174.999084,446.001221 175.000000,446.000000 175.000610,445.999390 
z"/>
<path fill="#060E3C" opacity="1.000000" stroke="none" 
	d="
M191.000610,461.999390 
	C190.892624,461.873230 190.784042,461.747681 190.675461,461.622131 
	C190.749481,461.667114 190.823517,461.712097 190.948318,461.879150 
	C190.999084,462.001221 191.000000,462.000000 191.000610,461.999390 
z"/>
<path fill="#060E3C" opacity="1.000000" stroke="none" 
	d="
M223.000610,493.999390 
	C222.892639,493.873230 222.784058,493.747681 222.675476,493.622131 
	C222.749496,493.667084 222.823532,493.712067 222.948334,493.879150 
	C222.999084,494.001221 223.000000,494.000000 223.000610,493.999390 
z"/>
</svg>