<svg version="1.1" id="Layer_1" xmlns="http://www.w3.org/2000/svg" xmlns:xlink="http://www.w3.org/1999/xlink" x="0px" y="0px"
	 width="100%" viewBox="0 0 790 102" enable-background="new 0 0 790 102" xml:space="preserve">
<path fill="#0A103A" opacity="1.000000" stroke="none" 
	d="
M586.000000,103.000000 
	C390.666656,103.000000 195.833328,103.000000 1.000000,103.000000 
	C1.000000,69.000000 1.000000,35.000000 1.000000,1.000000 
	C264.333344,1.000000 527.666687,1.000000 791.000000,1.000000 
	C791.000000,35.000000 791.000000,69.000000 791.000000,103.000000 
	C722.833313,103.000000 654.666687,103.000000 586.000000,103.000000 
M63.617199,78.750153 
	C64.416985,77.844841 65.216766,76.939537 66.727188,75.917313 
	C69.758774,73.189445 73.152054,72.455154 77.219727,74.507622 
	C77.529572,74.641235 77.839424,74.774849 78.327591,75.551491 
	C82.804199,81.321777 87.410530,86.997246 91.718643,92.890701 
	C95.544838,98.124901 99.575211,98.760536 104.122330,94.249481 
	C105.635971,92.747833 107.198685,91.050392 108.016434,89.134125 
	C111.990356,79.821808 116.365829,70.606644 119.371315,60.973991 
	C123.150017,48.863144 124.918083,36.326324 122.110115,23.594700 
	C121.033066,18.711197 118.494125,15.520678 113.507645,13.619590 
	C101.504967,9.043590 89.939682,9.955227 78.721245,15.544500 
	C74.395844,17.699507 70.924194,17.617172 66.609612,15.463094 
	C55.559292,9.946167 44.134834,9.099977 32.284100,13.512059 
	C27.104053,15.440614 24.151833,18.752823 23.366102,23.819820 
	C22.580229,28.887720 21.995626,34.104656 22.290117,39.200356 
	C23.204617,55.024391 27.785166,69.952263 34.840099,84.073906 
	C36.816055,88.029121 39.387581,91.861046 42.404839,95.074486 
	C45.643028,98.523201 50.019581,97.988815 52.765980,94.240875 
	C56.382156,89.305969 59.662476,84.124954 63.617199,78.750153 
M171.793457,23.380011 
	C171.601700,23.834684 171.243774,24.288774 171.242188,24.744114 
	C171.178635,42.874920 171.141022,61.005829 171.118286,79.136749 
	C171.114487,82.155602 172.856750,83.108276 175.656662,83.047043 
	C180.645309,82.937935 185.646362,83.173378 190.626373,82.934486 
	C204.693787,82.259697 215.893646,72.069962 217.934784,58.293888 
	C220.252197,42.653160 213.213364,28.990314 199.910629,24.154734 
	C190.973907,20.906212 181.666397,21.489189 171.793457,23.380011 
M439.530243,56.187820 
	C438.328827,45.243511 442.117462,36.349499 451.410980,30.531029 
	C460.288971,24.972736 469.413361,25.368847 477.944946,31.837385 
	C480.434052,33.724579 482.355133,32.631138 482.864716,30.280561 
	C483.102661,29.182936 481.304565,27.206245 479.975739,26.275745 
	C469.182281,18.717607 454.059631,19.824738 443.909210,28.753006 
	C433.130493,38.233906 430.159821,54.216694 436.792389,67.042816 
	C445.253784,83.405495 467.202332,89.225937 480.592285,78.474716 
	C481.854767,77.461044 481.943146,74.985107 482.576630,73.188072 
	C480.841980,73.348564 478.753143,72.936340 477.426636,73.756752 
	C461.370697,83.686867 443.560028,75.877426 439.530243,56.187820 
M398.628052,82.989685 
	C399.659485,81.896210 401.576721,80.805580 401.580261,79.708786 
	C401.605316,71.902336 402.020844,63.970882 400.808777,56.317291 
	C399.129333,45.712570 388.059387,38.772526 377.155731,40.334908 
	C365.271881,42.037743 357.789948,51.742115 358.777588,64.172081 
	C359.649719,75.148300 368.415894,83.802231 379.307526,83.053307 
	C384.751831,82.678947 390.033295,79.935478 395.272400,78.299767 
	C395.757019,79.175453 396.794128,81.049416 398.628052,82.989685 
M684.486511,75.638100 
	C682.425781,72.196220 680.368103,74.442032 678.239136,75.591080 
	C667.402222,81.439796 655.026611,75.449417 654.600281,63.928841 
	C664.083252,63.928841 673.558960,63.911304 683.034485,63.939991 
	C685.720642,63.948124 687.950073,63.835571 688.067261,60.135147 
	C688.342834,51.429638 682.150269,42.937737 673.679749,40.824154 
	C662.852905,38.122620 652.515869,43.917744 649.328491,54.475765 
	C645.760864,66.293549 651.142029,78.136871 661.847839,82.029243 
	C670.346252,85.119064 680.864624,82.502525 684.486511,75.638100 
M242.541397,63.925499 
	C249.363144,63.924988 256.186127,63.847031 263.006042,63.958546 
	C266.142181,64.009827 267.535645,62.915489 267.462402,59.598473 
	C267.188721,47.208271 256.786926,38.372581 244.669037,40.467937 
	C236.281433,41.918274 230.840439,46.871914 228.738052,55.035130 
	C226.472610,63.831440 227.734100,72.108437 234.973557,78.268837 
	C242.131699,84.360046 250.385803,84.809174 258.799835,80.994133 
	C261.134369,79.935631 265.256866,78.977570 263.585388,75.416473 
	C261.816162,71.647171 259.064789,74.992836 256.927185,76.031120 
	C246.288345,81.198608 234.277603,75.014847 234.112503,63.925499 
	C236.596481,63.925499 239.078232,63.925499 242.541397,63.925499 
M506.444092,40.763275 
	C493.949799,44.411301 487.652466,55.295818 490.857178,67.704323 
	C493.773773,78.997307 504.860748,85.448814 516.898071,82.857491 
	C527.879272,80.493515 534.888794,69.447594 532.858826,57.705860 
	C530.799744,45.796059 520.300537,38.778088 506.444092,40.763275 
M287.367371,48.821674 
	C292.589783,45.022457 298.234070,44.715534 303.887665,47.411995 
	C309.718048,50.192760 310.555664,55.685555 310.570343,61.408928 
	C310.585297,67.241386 310.408081,73.082741 310.707581,78.899979 
	C310.779572,80.298180 312.403809,81.616470 313.314178,82.971512 
	C314.404541,81.781593 316.419800,80.604134 316.436005,79.399757 
	C316.545746,71.248253 316.782440,63.030724 315.895569,54.953400 
	C315.078369,47.510311 310.144196,42.828949 302.821014,40.858665 
	C295.865845,38.987381 289.726166,40.864262 284.963684,44.515224 
	C282.826172,43.009964 281.202362,41.866455 279.578552,40.722946 
	C278.772034,42.511932 277.305939,44.286961 277.267700,46.092209 
	C277.045593,56.586021 277.017914,67.090637 277.293335,77.581917 
	C277.341156,79.403664 278.937683,82.522247 280.184723,82.718590 
	C283.615540,83.258812 283.206543,80.111618 283.218689,77.828392 
	C283.252319,71.496132 282.850159,65.130791 283.390259,58.844685 
	C283.669189,55.598839 285.583893,52.493549 287.367371,48.821674 
M551.071350,57.957966 
	C551.743896,50.012386 556.385620,45.824547 564.539673,45.806652 
	C572.564636,45.789043 577.745789,50.192471 578.129822,57.953285 
	C578.475037,64.930122 578.094238,71.943405 578.459534,78.918320 
	C578.532837,80.317558 580.523376,81.616379 581.629944,82.961502 
	C582.518799,81.603531 584.129578,80.269081 584.174744,78.883606 
	C584.402344,71.900169 584.470459,64.891289 584.129700,57.914036 
	C583.533630,45.708366 573.191772,37.884007 561.284668,40.701546 
	C557.834045,41.518028 554.665100,43.524406 552.023621,44.694454 
	C550.710510,43.410297 549.297363,42.028332 547.884277,40.646343 
	C546.933960,42.459763 545.208008,44.253628 545.161743,46.089836 
	C544.897522,56.572609 544.895386,67.068977 545.163330,77.551544 
	C545.210083,79.380562 546.819336,82.593132 547.959412,82.710335 
	C551.751709,83.100227 551.022095,79.722069 551.047058,77.352219 
	C551.111816,71.192444 551.069519,65.031532 551.071350,57.957966 
M620.021362,45.958572 
	C627.618958,47.841309 630.825317,51.570072 631.002014,59.184113 
	C631.156494,65.839081 630.892212,72.507454 631.198975,79.152077 
	C631.259521,80.464294 633.078308,81.695335 634.086243,82.963814 
	C635.087524,81.706299 636.914917,80.473793 636.953857,79.187141 
	C637.180359,71.706390 637.358948,64.186882 636.837769,56.730518 
	C636.226074,47.978855 630.397949,42.174015 621.750366,40.526554 
	C615.094116,39.258472 609.404053,41.304413 605.358948,44.768848 
	C603.433716,43.191151 601.891968,41.927696 600.350220,40.664242 
	C599.517761,42.411449 598.002197,44.144203 597.964905,45.908234 
	C597.739685,56.556931 597.842041,67.212807 597.861206,77.866226 
	C597.865356,80.177353 597.558655,83.211983 600.972107,82.731293 
	C602.147522,82.565781 603.668091,79.726746 603.774170,78.030449 
	C604.126587,72.392822 603.906494,66.719475 603.908264,61.059826 
	C603.911804,49.700851 607.879150,45.758759 620.021362,45.958572 
M730.090027,76.293686 
	C728.251831,71.505257 725.826416,74.472740 723.511841,75.787506 
	C716.671265,79.673126 707.750183,77.981804 703.262573,71.958199 
	C698.421692,65.460312 699.197998,54.806015 704.903870,49.432655 
	C710.231689,44.415325 718.374817,44.669624 724.939575,49.743092 
	C726.193970,50.712582 728.264038,50.626637 729.957825,51.027637 
	C729.449341,49.233860 729.493408,46.881222 728.339478,45.740280 
	C722.439392,39.906578 715.208069,38.708820 707.563599,41.418823 
	C699.336304,44.335426 695.388245,50.836647 694.292175,59.218586 
	C693.081604,68.476219 698.070007,77.633377 706.279419,81.445076 
	C714.539917,85.280502 724.334900,83.475372 730.090027,76.293686 
M758.693542,47.336857 
	C759.776672,46.234257 760.859802,45.131657 761.942932,44.029079 
	C760.618286,43.329559 759.353882,42.233780 757.955200,42.021175 
	C755.724365,41.682068 753.404175,41.930508 750.699280,41.930508 
	C750.699280,37.634712 750.976135,33.812576 750.543945,30.072361 
	C750.399292,28.821060 748.444275,27.778954 747.316711,26.641241 
	C746.460388,27.841917 744.977234,28.987366 744.865662,30.253653 
	C744.535767,33.998211 744.747742,37.790516 744.747742,40.530308 
	C741.659607,42.019760 739.353760,43.131924 737.047852,44.244091 
	C739.299194,45.782562 741.550476,47.321033 744.817200,49.553375 
	C744.817200,55.199585 744.592651,62.326107 744.876648,69.432304 
	C745.199463,77.511818 751.374146,83.329453 759.153870,82.874634 
	C760.750183,82.781326 762.238403,80.837372 763.776428,79.746468 
	C762.309814,78.788750 760.921448,77.184494 759.361755,76.995689 
	C754.851379,76.449684 751.346436,74.536133 751.056396,69.924301 
	C750.591309,62.528545 750.931824,55.082119 750.931824,47.343433 
	C753.524719,47.343433 755.673950,47.343433 758.693542,47.336857 
M338.277679,49.328728 
	C341.039978,48.662468 343.855072,48.154453 346.540558,47.258045 
	C347.744232,46.856258 348.688171,45.676464 349.750000,44.849735 
	C348.669098,43.880619 347.694641,42.276375 346.485352,42.073742 
	C343.916779,41.643356 341.225983,41.942379 338.253662,41.942379 
	C338.253662,38.081963 338.531311,34.578037 338.130646,31.153473 
	C337.944336,29.561222 336.440796,28.123079 335.534393,26.615072 
	C334.442291,28.131989 332.632721,29.549620 332.406250,31.186319 
	C331.922302,34.683372 332.258118,38.293854 332.258118,40.252186 
	C328.894226,42.069160 325.140503,43.051899 325.033905,44.337074 
	C324.597656,49.597755 330.110962,45.839809 332.273682,48.487831 
	C332.273682,54.786415 332.082245,61.429817 332.320038,68.057823 
	C332.650055,77.256752 338.633301,83.349602 346.918427,82.892670 
	C348.435760,82.808990 349.863220,81.094826 351.332153,80.133308 
	C350.021667,79.048653 348.827026,77.235512 347.380646,77.005493 
	C341.132202,76.011826 338.495605,73.580872 338.300690,67.310410 
	C338.125092,61.662567 338.260620,56.005058 338.277679,49.328728 
M421.316193,76.466171 
	C420.205383,73.690231 418.202393,70.935860 418.134705,68.134712 
	C417.801178,54.334225 418.081451,40.519581 417.840271,26.715260 
	C417.812897,25.148560 415.872162,23.615288 414.818665,22.066504 
	C413.878662,23.393009 412.136627,24.710436 412.121490,26.047421 
	C411.950134,41.184227 411.883972,56.326759 412.144135,71.461670 
	C412.247467,77.471191 416.095703,82.330017 420.861908,82.731087 
	C422.856567,82.898949 426.412109,81.698471 426.811127,80.379745 
	C427.943726,76.636612 424.507202,76.962784 421.316193,76.466171 
z"/>
<path fill="#FCFCFC" opacity="1.000000" stroke="none" 
	d="
M66.016556,76.034233 
	C65.216766,76.939537 64.416985,77.844841 62.998840,78.873688 
	C59.467762,82.551079 56.423687,86.006584 53.672577,89.681427 
	C49.362873,95.438187 44.542969,95.573212 41.248192,89.229141 
	C31.660044,70.767250 24.176649,51.704632 25.859385,30.219343 
	C26.672892,19.832384 30.282734,15.420582 40.479527,13.954895 
	C50.068592,12.576562 58.879128,15.949985 67.581238,19.152472 
	C71.299477,20.520828 74.418289,20.504200 78.060791,19.140816 
	C86.643311,15.928391 95.339134,13.034989 104.774422,13.908602 
	C112.377136,14.612537 117.676605,17.856640 118.562973,24.545635 
	C119.553749,32.022537 119.755898,39.792061 118.927521,47.282307 
	C117.260025,62.360020 111.573990,76.271408 104.075371,89.365433 
	C100.545715,95.528877 96.222260,95.464890 92.070587,89.769218 
	C89.522568,86.273590 87.174667,82.599945 84.327179,79.367126 
	C82.690346,77.508797 80.235748,76.370750 78.149269,74.908463 
	C77.839424,74.774849 77.529572,74.641235 77.119019,73.917877 
	C73.219849,68.433472 69.203827,69.421295 66.016556,76.034233 
M43.906490,55.332947 
	C43.934692,61.903526 43.934700,61.907269 50.398445,61.897324 
	C51.897526,61.895016 53.404388,61.949219 54.894333,61.821617 
	C65.082870,60.949062 71.397026,53.677006 71.027962,43.294231 
	C70.686111,33.677193 63.847595,27.129293 53.861481,26.883913 
	C51.863346,26.834812 49.849155,27.018410 47.867107,26.831879 
	C44.751183,26.538637 43.804073,27.888643 43.858974,30.880247 
	C44.002632,38.708088 43.906769,46.540325 43.906490,55.332947 
M90.292183,58.633011 
	C80.998642,55.169403 76.925331,46.834930 80.453873,38.502644 
	C83.961884,30.218836 91.632446,27.956287 101.224358,32.249958 
	C101.998375,32.596439 103.150894,32.097343 104.127525,31.991186 
	C103.348160,30.897951 102.800980,29.441580 101.751617,28.770603 
	C95.099106,24.516870 85.395500,26.302153 80.060287,32.595619 
	C74.375443,39.301521 74.375450,49.296791 80.060310,56.013195 
	C85.404243,62.326809 95.091881,64.168503 101.757637,59.969536 
	C102.948029,59.219673 103.678589,57.739864 105.172867,55.928814 
	C99.562019,57.070656 95.320030,57.933926 90.292183,58.633011 
z"/>
<path fill="#F3F3F5" opacity="1.000000" stroke="none" 
	d="
M172.100159,23.050537 
	C181.666397,21.489189 190.973907,20.906212 199.910629,24.154734 
	C213.213364,28.990314 220.252197,42.653160 217.934784,58.293888 
	C215.893646,72.069962 204.693787,82.259697 190.626373,82.934486 
	C185.646362,83.173378 180.645309,82.937935 175.656662,83.047043 
	C172.856750,83.108276 171.114487,82.155602 171.118286,79.136749 
	C171.141022,61.005829 171.178635,42.874920 171.242188,24.744114 
	C171.243774,24.288774 171.601700,23.834684 172.100159,23.050537 
M187.409805,77.527016 
	C204.382507,76.722389 214.015945,65.280609 212.033844,48.280674 
	C210.240067,32.896042 195.864853,24.502846 177.407898,28.228209 
	C177.407898,44.430096 177.407898,60.674088 177.407898,77.529961 
	C180.564728,77.529961 183.505875,77.529961 187.409805,77.527016 
z"/>
<path fill="#BDBDC0" opacity="1.000000" stroke="none" 
	d="
M78.238434,75.229980 
	C80.235748,76.370750 82.690346,77.508797 84.327179,79.367126 
	C87.174667,82.599945 89.522568,86.273590 92.070587,89.769218 
	C96.222260,95.464890 100.545715,95.528877 104.075371,89.365433 
	C111.573990,76.271408 117.260025,62.360020 118.927521,47.282307 
	C119.755898,39.792061 119.553749,32.022537 118.562973,24.545635 
	C117.676605,17.856640 112.377136,14.612537 104.774422,13.908602 
	C95.339134,13.034989 86.643311,15.928391 78.060791,19.140816 
	C74.418289,20.504200 71.299477,20.520828 67.581238,19.152472 
	C58.879128,15.949985 50.068592,12.576562 40.479527,13.954895 
	C30.282734,15.420582 26.672892,19.832384 25.859385,30.219343 
	C24.176649,51.704632 31.660044,70.767250 41.248192,89.229141 
	C44.542969,95.573212 49.362873,95.438187 53.672577,89.681427 
	C56.423687,86.006584 59.467762,82.551079 62.733841,79.023491 
	C59.662476,84.124954 56.382156,89.305969 52.765980,94.240875 
	C50.019581,97.988815 45.643028,98.523201 42.404839,95.074486 
	C39.387581,91.861046 36.816055,88.029121 34.840099,84.073906 
	C27.785166,69.952263 23.204617,55.024391 22.290117,39.200356 
	C21.995626,34.104656 22.580229,28.887720 23.366102,23.819820 
	C24.151833,18.752823 27.104053,15.440614 32.284100,13.512059 
	C44.134834,9.099977 55.559292,9.946167 66.609612,15.463094 
	C70.924194,17.617172 74.395844,17.699507 78.721245,15.544500 
	C89.939682,9.955227 101.504967,9.043590 113.507645,13.619590 
	C118.494125,15.520678 121.033066,18.711197 122.110115,23.594700 
	C124.918083,36.326324 123.150017,48.863144 119.371315,60.973991 
	C116.365829,70.606644 111.990356,79.821808 108.016434,89.134125 
	C107.198685,91.050392 105.635971,92.747833 104.122330,94.249481 
	C99.575211,98.760536 95.544838,98.124901 91.718643,92.890701 
	C87.410530,86.997246 82.804199,81.321777 78.238434,75.229980 
z"/>
<path fill="#EFF0F2" opacity="1.000000" stroke="none" 
	d="
M439.613892,56.632576 
	C443.560028,75.877426 461.370697,83.686867 477.426636,73.756752 
	C478.753143,72.936340 480.841980,73.348564 482.576630,73.188072 
	C481.943146,74.985107 481.854767,77.461044 480.592285,78.474716 
	C467.202332,89.225937 445.253784,83.405495 436.792389,67.042816 
	C430.159821,54.216694 433.130493,38.233906 443.909210,28.753006 
	C454.059631,19.824738 469.182281,18.717607 479.975739,26.275745 
	C481.304565,27.206245 483.102661,29.182936 482.864716,30.280561 
	C482.355133,32.631138 480.434052,33.724579 477.944946,31.837385 
	C469.413361,25.368847 460.288971,24.972736 451.410980,30.531029 
	C442.117462,36.349499 438.328827,45.243511 439.613892,56.632576 
z"/>
<path fill="#F1F1F3" opacity="1.000000" stroke="none" 
	d="
M398.229614,82.956528 
	C396.794128,81.049416 395.757019,79.175453 395.272400,78.299767 
	C390.033295,79.935478 384.751831,82.678947 379.307526,83.053307 
	C368.415894,83.802231 359.649719,75.148300 358.777588,64.172081 
	C357.789948,51.742115 365.271881,42.037743 377.155731,40.334908 
	C388.059387,38.772526 399.129333,45.712570 400.808777,56.317291 
	C402.020844,63.970882 401.605316,71.902336 401.580261,79.708786 
	C401.576721,80.805580 399.659485,81.896210 398.229614,82.956528 
M367.419312,52.150703 
	C361.691681,62.477749 365.047913,73.660805 374.868958,76.973267 
	C382.463531,79.534775 390.427490,76.375641 393.964539,69.398460 
	C397.647552,62.133324 395.468384,52.941326 388.995453,48.438282 
	C382.478851,43.904850 374.165161,45.136749 367.419312,52.150703 
z"/>
<path fill="#F1F1F3" opacity="1.000000" stroke="none" 
	d="
M684.587585,75.992737 
	C680.864624,82.502525 670.346252,85.119064 661.847839,82.029243 
	C651.142029,78.136871 645.760864,66.293549 649.328491,54.475765 
	C652.515869,43.917744 662.852905,38.122620 673.679749,40.824154 
	C682.150269,42.937737 688.342834,51.429638 688.067261,60.135147 
	C687.950073,63.835571 685.720642,63.948124 683.034485,63.939991 
	C673.558960,63.911304 664.083252,63.928841 654.600281,63.928841 
	C655.026611,75.449417 667.402222,81.439796 678.239136,75.591080 
	C680.368103,74.442032 682.425781,72.196220 684.587585,75.992737 
M671.026245,45.940144 
	C660.852173,45.553387 655.068298,50.155251 654.889221,58.723251 
	C663.917847,58.723251 672.945190,58.723251 682.286377,58.723251 
	C681.363586,52.057667 678.242065,47.717091 671.026245,45.940144 
z"/>
<path fill="#F2F3F5" opacity="1.000000" stroke="none" 
	d="
M242.050690,63.925499 
	C239.078232,63.925499 236.596481,63.925499 234.112503,63.925499 
	C234.277603,75.014847 246.288345,81.198608 256.927185,76.031120 
	C259.064789,74.992836 261.816162,71.647171 263.585388,75.416473 
	C265.256866,78.977570 261.134369,79.935631 258.799835,80.994133 
	C250.385803,84.809174 242.131699,84.360046 234.973557,78.268837 
	C227.734100,72.108437 226.472610,63.831440 228.738052,55.035130 
	C230.840439,46.871914 236.281433,41.918274 244.669037,40.467937 
	C256.786926,38.372581 267.188721,47.208271 267.462402,59.598473 
	C267.535645,62.915489 266.142181,64.009827 263.006042,63.958546 
	C256.186127,63.847031 249.363144,63.924988 242.050690,63.925499 
M259.834045,58.996872 
	C260.315582,58.006050 261.370300,56.892048 261.188019,56.043884 
	C259.724823,49.235470 254.174805,45.398380 246.789520,45.835938 
	C239.722382,46.254646 234.815842,51.214828 234.099548,59.001190 
	C242.404068,59.001190 250.679550,59.001190 259.834045,58.996872 
z"/>
<path fill="#F1F1F4" opacity="1.000000" stroke="none" 
	d="
M506.855225,40.681164 
	C520.300537,38.778088 530.799744,45.796059 532.858826,57.705860 
	C534.888794,69.447594 527.879272,80.493515 516.898071,82.857491 
	C504.860748,85.448814 493.773773,78.997307 490.857178,67.704323 
	C487.652466,55.295818 493.949799,44.411301 506.855225,40.681164 
M525.794128,68.848587 
	C528.266235,61.867126 527.819153,55.292355 522.328857,49.901337 
	C517.734680,45.390251 512.002441,44.721615 506.083099,46.747917 
	C499.388031,49.039715 495.634033,55.301357 496.020111,62.867901 
	C496.373718,69.798271 500.712006,75.355637 507.203766,77.194229 
	C514.633423,79.298447 520.781799,76.722519 525.794128,68.848587 
z"/>
<path fill="#EFF0F2" opacity="1.000000" stroke="none" 
	d="
M287.063416,49.073212 
	C285.583893,52.493549 283.669189,55.598839 283.390259,58.844685 
	C282.850159,65.130791 283.252319,71.496132 283.218689,77.828392 
	C283.206543,80.111618 283.615540,83.258812 280.184723,82.718590 
	C278.937683,82.522247 277.341156,79.403664 277.293335,77.581917 
	C277.017914,67.090637 277.045593,56.586021 277.267700,46.092209 
	C277.305939,44.286961 278.772034,42.511932 279.578552,40.722946 
	C281.202362,41.866455 282.826172,43.009964 284.963684,44.515224 
	C289.726166,40.864262 295.865845,38.987381 302.821014,40.858665 
	C310.144196,42.828949 315.078369,47.510311 315.895569,54.953400 
	C316.782440,63.030724 316.545746,71.248253 316.436005,79.399757 
	C316.419800,80.604134 314.404541,81.781593 313.314178,82.971512 
	C312.403809,81.616470 310.779572,80.298180 310.707581,78.899979 
	C310.408081,73.082741 310.585297,67.241386 310.570343,61.408928 
	C310.555664,55.685555 309.718048,50.192760 303.887665,47.411995 
	C298.234070,44.715534 292.589783,45.022457 287.063416,49.073212 
z"/>
<path fill="#F1F2F4" opacity="1.000000" stroke="none" 
	d="
M551.070618,58.414520 
	C551.069519,65.031532 551.111816,71.192444 551.047058,77.352219 
	C551.022095,79.722069 551.751709,83.100227 547.959412,82.710335 
	C546.819336,82.593132 545.210083,79.380562 545.163330,77.551544 
	C544.895386,67.068977 544.897522,56.572609 545.161743,46.089836 
	C545.208008,44.253628 546.933960,42.459763 547.884277,40.646355 
	C549.297363,42.028332 550.710510,43.410297 552.023621,44.694454 
	C554.665100,43.524406 557.834045,41.518028 561.284668,40.701546 
	C573.191772,37.884007 583.533630,45.708366 584.129700,57.914036 
	C584.470459,64.891289 584.402344,71.900169 584.174744,78.883606 
	C584.129578,80.269081 582.518799,81.603531 581.629944,82.961502 
	C580.523376,81.616379 578.532837,80.317558 578.459534,78.918320 
	C578.094238,71.943405 578.475037,64.930122 578.129822,57.953285 
	C577.745789,50.192471 572.564636,45.789043 564.539673,45.806652 
	C556.385620,45.824547 551.743896,50.012386 551.070618,58.414520 
z"/>
<path fill="#F1F2F4" opacity="1.000000" stroke="none" 
	d="
M619.597778,45.923508 
	C607.879150,45.758759 603.911804,49.700851 603.908264,61.059826 
	C603.906494,66.719475 604.126587,72.392822 603.774170,78.030449 
	C603.668091,79.726746 602.147522,82.565781 600.972107,82.731293 
	C597.558655,83.211983 597.865356,80.177353 597.861206,77.866226 
	C597.842041,67.212807 597.739685,56.556931 597.964905,45.908234 
	C598.002197,44.144203 599.517761,42.411449 600.350220,40.664242 
	C601.891968,41.927696 603.433716,43.191151 605.358948,44.768848 
	C609.404053,41.304413 615.094116,39.258472 621.750366,40.526554 
	C630.397949,42.174015 636.226074,47.978855 636.837769,56.730518 
	C637.358948,64.186882 637.180359,71.706390 636.953857,79.187141 
	C636.914917,80.473793 635.087524,81.706299 634.086243,82.963806 
	C633.078308,81.695335 631.259521,80.464294 631.198975,79.152077 
	C630.892212,72.507454 631.156494,65.839081 631.002014,59.184113 
	C630.825317,51.570072 627.618958,47.841309 619.597778,45.923508 
z"/>
<path fill="#F0F1F3" opacity="1.000000" stroke="none" 
	d="
M730.047668,76.683136 
	C724.334900,83.475372 714.539917,85.280502 706.279419,81.445076 
	C698.070007,77.633377 693.081604,68.476219 694.292175,59.218586 
	C695.388245,50.836647 699.336304,44.335426 707.563599,41.418823 
	C715.208069,38.708820 722.439392,39.906578 728.339478,45.740280 
	C729.493408,46.881222 729.449341,49.233860 729.957825,51.027634 
	C728.264038,50.626637 726.193970,50.712582 724.939575,49.743092 
	C718.374817,44.669624 710.231689,44.415325 704.903870,49.432655 
	C699.197998,54.806015 698.421692,65.460312 703.262573,71.958199 
	C707.750183,77.981804 716.671265,79.673126 723.511841,75.787506 
	C725.826416,74.472740 728.251831,71.505257 730.047668,76.683136 
z"/>
<path fill="#F3F4F6" opacity="1.000000" stroke="none" 
	d="
M758.258362,47.340145 
	C755.673950,47.343433 753.524719,47.343433 750.931824,47.343433 
	C750.931824,55.082119 750.591309,62.528545 751.056396,69.924301 
	C751.346436,74.536133 754.851379,76.449684 759.361755,76.995689 
	C760.921448,77.184494 762.309814,78.788750 763.776428,79.746460 
	C762.238403,80.837372 760.750183,82.781326 759.153870,82.874634 
	C751.374146,83.329453 745.199463,77.511818 744.876648,69.432304 
	C744.592651,62.326107 744.817200,55.199585 744.817200,49.553375 
	C741.550476,47.321033 739.299194,45.782562 737.047852,44.244091 
	C739.353760,43.131924 741.659607,42.019760 744.747742,40.530308 
	C744.747742,37.790516 744.535767,33.998211 744.865662,30.253653 
	C744.977234,28.987366 746.460388,27.841917 747.316711,26.641232 
	C748.444275,27.778954 750.399292,28.821060 750.543945,30.072361 
	C750.976135,33.812576 750.699280,37.634712 750.699280,41.930508 
	C753.404175,41.930508 755.724365,41.682068 757.955200,42.021175 
	C759.353882,42.233780 760.618286,43.329559 761.942932,44.029068 
	C760.859802,45.131657 759.776672,46.234257 758.258362,47.340145 
z"/>
<path fill="#F3F4F6" opacity="1.000000" stroke="none" 
	d="
M338.268311,49.840271 
	C338.260620,56.005058 338.125092,61.662567 338.300690,67.310410 
	C338.495605,73.580872 341.132202,76.011826 347.380646,77.005493 
	C348.827026,77.235512 350.021667,79.048653 351.332153,80.133301 
	C349.863220,81.094826 348.435760,82.808990 346.918427,82.892670 
	C338.633301,83.349602 332.650055,77.256752 332.320038,68.057823 
	C332.082245,61.429817 332.273682,54.786415 332.273682,48.487831 
	C330.110962,45.839809 324.597656,49.597755 325.033905,44.337074 
	C325.140503,43.051899 328.894226,42.069160 332.258118,40.252186 
	C332.258118,38.293854 331.922302,34.683372 332.406250,31.186319 
	C332.632721,29.549620 334.442291,28.131989 335.534393,26.615074 
	C336.440796,28.123079 337.944336,29.561222 338.130646,31.153473 
	C338.531311,34.578037 338.253662,38.081963 338.253662,41.942379 
	C341.225983,41.942379 343.916779,41.643356 346.485352,42.073742 
	C347.694641,42.276375 348.669098,43.880619 349.750000,44.849731 
	C348.688171,45.676464 347.744232,46.856258 346.540558,47.258045 
	C343.855072,48.154453 341.039978,48.662468 338.268311,49.840271 
z"/>
<path fill="#F1F1F4" opacity="1.000000" stroke="none" 
	d="
M421.698944,76.606667 
	C424.507202,76.962784 427.943726,76.636612 426.811127,80.379745 
	C426.412109,81.698471 422.856567,82.898949 420.861908,82.731087 
	C416.095703,82.330017 412.247467,77.471191 412.144135,71.461670 
	C411.883972,56.326759 411.950134,41.184227 412.121490,26.047421 
	C412.136627,24.710436 413.878662,23.393009 414.818665,22.066509 
	C415.872162,23.615288 417.812897,25.148560 417.840271,26.715260 
	C418.081451,40.519581 417.801178,54.334225 418.134705,68.134712 
	C418.202393,70.935860 420.205383,73.690231 421.698944,76.606667 
z"/>
<path fill="#BDBDC0" opacity="1.000000" stroke="none" 
	d="
M66.371872,75.975769 
	C69.203827,69.421295 73.219849,68.433472 76.993919,73.693611 
	C73.152054,72.455154 69.758774,73.189445 66.371872,75.975769 
z"/>
<path fill="#1C2249" opacity="1.000000" stroke="none" 
	d="
M43.906437,54.851875 
	C43.906769,46.540325 44.002632,38.708088 43.858974,30.880247 
	C43.804073,27.888643 44.751183,26.538637 47.867107,26.831879 
	C49.849155,27.018410 51.863346,26.834812 53.861481,26.883913 
	C63.847595,27.129293 70.686111,33.677193 71.027962,43.294231 
	C71.397026,53.677006 65.082870,60.949062 54.894333,61.821617 
	C53.404388,61.949219 51.897526,61.895016 50.398445,61.897324 
	C43.934700,61.907269 43.934692,61.903526 43.906437,54.851875 
M62.417492,32.945862 
	C57.998951,29.475180 52.984596,29.702814 47.392551,30.371058 
	C47.392551,35.207306 47.392551,39.822395 47.392551,44.437485 
	C47.392551,49.031635 47.392551,53.625786 47.392551,58.116138 
	C56.847137,59.541950 62.552460,57.454987 65.751656,51.716614 
	C69.025574,45.844208 68.043152,39.253979 62.417492,32.945862 
z"/>
<path fill="#20264C" opacity="1.000000" stroke="none" 
	d="
M90.685112,58.715103 
	C95.320030,57.933926 99.562019,57.070656 105.172867,55.928814 
	C103.678589,57.739864 102.948029,59.219673 101.757637,59.969536 
	C95.091881,64.168503 85.404243,62.326809 80.060310,56.013195 
	C74.375450,49.296791 74.375443,39.301521 80.060287,32.595619 
	C85.395500,26.302153 95.099106,24.516870 101.751617,28.770603 
	C102.800980,29.441580 103.348160,30.897951 104.127533,31.991184 
	C103.150894,32.097343 101.998375,32.596439 101.224358,32.249958 
	C91.632446,27.956287 83.961884,30.218836 80.453873,38.502644 
	C76.925331,46.834930 80.998642,55.169403 90.685112,58.715103 
z"/>
<path fill="#0C133D" opacity="1.000000" stroke="none" 
	d="
M186.928406,77.528488 
	C183.505875,77.529961 180.564728,77.529961 177.407898,77.529961 
	C177.407898,60.674088 177.407898,44.430096 177.407898,28.228209 
	C195.864853,24.502846 210.240067,32.896042 212.033844,48.280674 
	C214.015945,65.280609 204.382507,76.722389 186.928406,77.528488 
z"/>
<path fill="#0D143D" opacity="1.000000" stroke="none" 
	d="
M367.660522,51.857285 
	C374.165161,45.136749 382.478851,43.904850 388.995453,48.438282 
	C395.468384,52.941326 397.647552,62.133324 393.964539,69.398460 
	C390.427490,76.375641 382.463531,79.534775 374.868958,76.973267 
	C365.047913,73.660805 361.691681,62.477749 367.660522,51.857285 
z"/>
<path fill="#0C133D" opacity="1.000000" stroke="none" 
	d="
M671.441772,45.986694 
	C678.242065,47.717091 681.363586,52.057667 682.286377,58.723251 
	C672.945190,58.723251 663.917847,58.723251 654.889221,58.723251 
	C655.068298,50.155251 660.852173,45.553387 671.441772,45.986694 
z"/>
<path fill="#0D143D" opacity="1.000000" stroke="none" 
	d="
M259.394531,58.999031 
	C250.679550,59.001190 242.404068,59.001190 234.099548,59.001190 
	C234.815842,51.214828 239.722382,46.254646 246.789520,45.835938 
	C254.174805,45.398380 259.724823,49.235470 261.188019,56.043884 
	C261.370300,56.892048 260.315582,58.006050 259.394531,58.999031 
z"/>
<path fill="#0D143D" opacity="1.000000" stroke="none" 
	d="
M525.616577,69.201447 
	C520.781799,76.722519 514.633423,79.298447 507.203766,77.194229 
	C500.712006,75.355637 496.373718,69.798271 496.020111,62.867901 
	C495.634033,55.301357 499.388031,49.039715 506.083099,46.747917 
	C512.002441,44.721615 517.734680,45.390251 522.328857,49.901337 
	C527.819153,55.292355 528.266235,61.867126 525.616577,69.201447 
z"/>
<path fill="#F4F4F6" opacity="1.000000" stroke="none" 
	d="
M62.718678,33.168602 
	C68.043152,39.253979 69.025574,45.844208 65.751656,51.716614 
	C62.552460,57.454987 56.847137,59.541950 47.392551,58.116138 
	C47.392551,53.625786 47.392551,49.031635 47.392551,44.437485 
	C47.392551,39.822395 47.392551,35.207306 47.392551,30.371058 
	C52.984596,29.702814 57.998951,29.475180 62.718678,33.168602 
z"/>
</svg>