<svg version="1.1" id="Layer_1" xmlns="http://www.w3.org/2000/svg" xmlns:xlink="http://www.w3.org/1999/xlink" x="0px" y="0px"
	 width="100%" viewBox="0 0 581 518" enable-background="new 0 0 581 518" xml:space="preserve">
<path fill="#060E3C" opacity="1.000000" stroke="none" 
	d="
M582.000000,179.000000 
	C582.000000,292.666656 582.000000,405.833344 582.000000,519.000000 
	C388.333344,519.000000 194.666672,519.000000 1.000000,519.000000 
	C1.000000,346.333344 1.000000,173.666672 1.000000,1.000000 
	C194.666672,1.000000 388.333344,1.000000 582.000000,1.000000 
	C582.000000,60.166668 582.000000,119.333336 582.000000,179.000000 
M440.994995,455.988739 
	C440.994995,455.988739 440.926056,455.948151 441.665985,455.887177 
	C445.163116,455.456451 446.705780,453.282196 447.000000,450.000000 
	C447.000000,450.000000 446.956207,449.956329 447.641785,449.894073 
	C448.413208,448.907654 449.184631,447.921265 449.996490,446.996613 
	C449.996490,446.996613 449.934784,446.956146 450.678558,446.966339 
	C453.143524,446.192596 456.519348,446.617737 456.266693,442.363556 
	C456.230255,441.749847 457.408966,440.748383 458.218384,440.450134 
	C464.416626,438.166260 464.700653,432.919830 464.865448,427.243256 
	C464.865448,427.243256 465.088013,426.999786 465.748016,426.860413 
	C467.441223,424.885956 470.240936,423.105865 470.628143,420.901978 
	C471.999146,413.098602 478.166351,408.072754 481.234924,401.261566 
	C482.748108,397.902710 483.975494,395.186951 482.868805,391.894714 
	C482.868805,391.894714 482.687531,391.737305 483.448944,391.799255 
	C488.371338,389.094238 489.849060,384.872681 488.862030,379.226227 
	C488.862030,379.226227 489.093384,378.990173 489.679474,378.886444 
	C490.737549,376.989410 491.367615,374.055145 492.940643,373.406006 
	C496.478638,371.945923 496.331757,369.076996 496.862335,366.404480 
	C497.373291,363.830902 497.523926,361.185822 497.698273,358.269226 
	C497.698273,358.269226 497.865479,357.983032 498.518616,357.897980 
	C503.063904,355.162445 501.685944,350.666870 502.154724,346.215820 
	C502.308441,346.144348 502.462128,346.072876 503.198608,345.837677 
	C504.635895,343.717438 506.433868,341.748322 507.404236,339.432434 
	C508.289886,337.318665 507.954163,334.711731 508.742035,332.533905 
	C509.834839,329.513184 511.538727,326.719177 512.863708,323.775360 
	C514.392578,320.378723 516.253479,317.035797 517.117004,313.463287 
	C517.927917,310.108124 517.626526,306.484100 517.539185,302.552155 
	C517.605042,302.396332 517.670959,302.240509 518.385010,301.817688 
	C519.117249,301.022888 520.263062,300.339691 520.512756,299.414642 
	C521.859375,294.426422 521.595093,288.256378 524.527100,284.627380 
	C528.416748,279.812958 526.717224,274.428741 528.762146,269.586060 
	C531.241272,263.715179 532.196594,257.200806 533.811279,250.964874 
	C534.233948,249.639069 533.553040,247.822769 533.847778,246.181671 
	C535.590637,236.476898 538.239807,226.879745 539.201965,217.110275 
	C539.792603,211.114136 542.020203,205.587891 541.840393,199.203079 
	C541.522827,187.923370 544.288635,176.594177 544.785767,165.242844 
	C545.213257,155.481476 544.276489,145.660370 543.866150,135.375458 
	C543.650208,135.106354 543.375244,134.928360 543.037415,134.400101 
	C543.037415,134.400101 542.878723,133.988266 542.999451,133.335068 
	C542.682617,132.829239 542.365784,132.323410 542.017029,131.377869 
	C542.017029,131.377869 541.853638,130.968399 541.964355,130.546341 
	C541.997131,130.248581 541.948059,129.964996 541.408691,128.924988 
	C540.939453,123.033302 540.861877,117.077393 539.908630,111.265083 
	C538.505066,102.707184 537.062256,94.073891 534.549622,85.802834 
	C532.064453,77.622612 528.230408,69.852203 524.995667,61.113285 
	C524.864136,55.096439 520.567810,50.810135 516.091370,49.798180 
	C509.920074,48.403095 506.314301,42.982307 499.431519,42.379166 
	C491.686646,41.700478 484.230377,37.509674 476.695160,34.720631 
	C469.541107,32.072659 462.449371,29.256496 455.322021,26.535759 
	C454.886719,26.369579 454.381073,26.355919 453.905182,26.332479 
	C449.297913,26.105576 444.691833,25.821648 440.081543,25.703390 
	C437.725555,25.642958 435.361755,25.886139 432.063782,25.997459 
	C423.294464,25.998018 414.524200,25.925230 405.756317,26.037329 
	C402.512268,26.078804 399.273804,26.554955 395.547791,27.041878 
	C395.398743,27.135559 395.249695,27.229240 394.286316,27.489866 
	C390.917328,27.775082 387.548370,28.060297 383.858856,27.727436 
	C381.738556,27.683788 379.537415,27.260094 377.517761,27.689655 
	C374.800812,28.267519 372.223846,29.503567 369.174805,30.606083 
	C369.148590,30.918245 369.066681,31.893843 368.355988,33.013882 
	C367.928650,33.058468 367.501282,33.103054 366.772217,32.707073 
	C366.184296,33.026745 365.596375,33.346413 364.241791,34.060902 
	C359.540558,35.332695 354.743103,36.332787 350.165466,37.953636 
	C345.699860,39.534832 341.458832,41.750412 336.342468,43.631035 
	C335.889984,43.808712 335.437531,43.986389 334.599792,43.734882 
	C334.080444,44.180977 333.561127,44.627071 332.234619,45.061474 
	C325.945892,47.870804 319.638672,50.639595 313.372620,53.498615 
	C302.998932,58.231846 293.186340,64.467186 280.706573,61.679916 
	C275.638733,60.548050 271.074707,59.120487 266.786713,56.227077 
	C264.102417,54.415779 260.949127,53.299438 257.983917,51.142570 
	C255.815872,46.626114 247.255051,43.025848 241.861755,44.302139 
	C241.861755,44.302139 241.717865,44.324501 241.783905,43.589478 
	C241.168457,42.886044 240.660690,42.032578 239.921219,41.501987 
	C230.676270,34.868301 219.960068,33.519173 208.904831,32.412815 
	C206.379425,31.240976 203.961212,29.617579 201.307175,28.987667 
	C195.033752,27.498726 188.658920,26.417095 182.292114,25.371538 
	C181.627029,25.262321 180.741257,26.496975 179.222336,27.015497 
	C178.485321,26.968195 177.748306,26.920895 176.345383,26.380457 
	C174.702835,26.253536 173.060638,26.022060 171.417679,26.016636 
	C160.626968,25.980999 149.736267,26.894154 139.076309,25.711689 
	C130.264572,24.734240 122.535896,27.425013 114.497704,29.403801 
	C105.886612,31.523621 97.464233,34.435246 88.820740,36.386692 
	C84.996040,37.250195 82.275330,38.976078 79.496880,42.427158 
	C75.042503,44.686703 70.586563,46.943165 66.134499,49.207241 
	C64.230621,50.175446 62.292839,51.086975 60.446285,52.155293 
	C58.280762,53.408146 55.464966,54.323917 54.218224,56.228409 
	C50.666710,61.653584 47.620838,67.430412 44.644466,73.207199 
	C38.286297,85.547623 36.027248,98.983124 34.420578,112.583511 
	C34.280544,113.768906 33.442871,114.871887 32.407711,116.652489 
	C32.263073,121.736252 32.118435,126.820015 31.512518,132.533859 
	C31.396221,133.037384 31.279926,133.540909 30.718767,134.257019 
	C30.482494,134.837814 30.246222,135.418594 29.998751,136.936722 
	C29.996603,146.014542 29.922686,155.093460 30.059341,164.169189 
	C30.083565,165.778015 30.984591,167.373627 31.566986,169.794739 
	C32.004665,170.691422 32.442345,171.588104 32.929111,173.359573 
	C33.940334,184.207291 34.857365,195.064896 35.992802,205.899597 
	C36.889038,214.451721 37.619461,223.057602 39.209343,231.491470 
	C41.205212,242.079025 43.876099,252.547180 46.492729,263.007568 
	C48.827900,272.342743 51.333557,281.641876 54.039738,290.876068 
	C57.352016,302.178467 60.821110,313.439392 64.486549,324.631744 
	C66.109985,329.588867 68.459167,334.303925 70.335487,339.184021 
	C71.881920,343.206116 73.005150,347.399689 74.690590,351.357727 
	C78.004341,359.139740 81.699905,366.759247 85.008942,374.543182 
	C88.007111,381.595764 90.148514,389.062927 93.647629,395.841461 
	C100.384064,408.891418 107.516991,421.760651 115.047508,434.369171 
	C121.152496,444.590912 129.748535,452.735870 139.474518,459.555908 
	C145.240479,463.599091 151.893585,466.700684 158.832703,466.274506 
	C166.519669,465.802399 173.587799,461.964661 179.592346,457.120148 
	C186.147125,451.831787 190.245041,444.542450 194.439468,437.252655 
	C199.588623,428.303589 205.643784,419.851196 211.647049,411.426208 
	C216.268661,404.940216 221.402481,398.818298 226.331665,392.552643 
	C231.779892,385.627197 236.866486,378.363098 242.835739,371.918182 
	C247.952454,366.393707 253.267349,361.065979 259.376770,356.311768 
	C264.874054,352.033905 270.006531,347.504425 276.473572,344.893005 
	C282.621368,342.410522 288.948914,341.097504 295.414368,345.590271 
	C297.708313,347.407654 300.148895,349.070099 302.266602,351.073730 
	C307.110382,355.656616 312.541473,358.955536 319.165131,359.796478 
	C319.165131,359.796478 319.182831,359.678436 319.366516,360.247162 
	C319.883057,360.496735 320.399597,360.746307 321.434113,361.449463 
	C327.299530,367.826477 333.312500,374.075928 338.974701,380.628540 
	C342.341766,384.525116 345.685974,388.428497 348.629639,392.755676 
	C354.493958,401.376282 361.294128,409.354950 367.519836,417.738342 
	C369.354584,420.208954 370.558380,423.148102 372.116302,426.643280 
	C373.042236,431.807770 378.652649,435.233917 377.520721,441.222046 
	C377.420563,441.752014 378.426941,442.539612 378.991882,443.139282 
	C384.039185,448.496521 389.213776,453.739014 394.123199,459.219238 
	C397.483917,462.970734 401.344299,465.173492 406.776184,464.819611 
	C406.776184,464.819611 407.000214,465.038483 407.492615,465.537750 
	C413.659393,469.231110 419.846497,470.183319 426.238525,465.959015 
	C427.265137,465.280548 428.893951,465.542328 429.971680,464.906891 
	C433.672119,462.725128 440.522797,464.236908 439.855377,456.830383 
	C439.855377,456.830383 439.748535,456.858246 440.263458,456.709839 
	C440.494049,456.446320 440.724640,456.182800 440.994995,455.988739 
z"/>
<path fill="#C2C2C3" opacity="1.000000" stroke="none" 
	d="
M372.051331,425.872559 
	C370.558380,423.148102 369.354584,420.208954 367.519836,417.738342 
	C361.294128,409.354950 354.493958,401.376282 348.629639,392.755676 
	C345.685974,388.428497 342.341766,384.525116 338.974701,380.628540 
	C333.312500,374.075928 327.299530,367.826477 321.126404,360.924072 
	C320.273407,360.158630 319.728119,359.918518 319.182831,359.678436 
	C319.182831,359.678436 319.165131,359.796478 319.114563,359.458344 
	C313.901886,355.127747 308.932495,350.840118 303.485809,347.283417 
	C301.204620,345.793732 297.911194,345.854095 295.077972,345.209778 
	C288.948914,341.097504 282.621368,342.410522 276.473572,344.893005 
	C270.006531,347.504425 264.874054,352.033905 259.376770,356.311768 
	C253.267349,361.065979 247.952454,366.393707 242.835739,371.918182 
	C236.866486,378.363098 231.779892,385.627197 226.331665,392.552643 
	C221.402481,398.818298 216.268661,404.940216 211.647049,411.426208 
	C205.643784,419.851196 199.588623,428.303589 194.439468,437.252655 
	C190.245041,444.542450 186.147125,451.831787 179.592346,457.120148 
	C173.587799,461.964661 166.519669,465.802399 158.832703,466.274506 
	C151.893585,466.700684 145.240479,463.599091 139.474518,459.555908 
	C129.748535,452.735870 121.152496,444.590912 115.047508,434.369171 
	C107.516991,421.760651 100.384064,408.891418 93.647629,395.841461 
	C90.148514,389.062927 88.007111,381.595764 85.008942,374.543182 
	C81.699905,366.759247 78.004341,359.139740 74.690590,351.357727 
	C73.005150,347.399689 71.881920,343.206116 70.335487,339.184021 
	C68.459167,334.303925 66.109985,329.588867 64.486549,324.631744 
	C60.821110,313.439392 57.352016,302.178467 54.039738,290.876068 
	C51.333557,281.641876 48.827900,272.342743 46.492729,263.007568 
	C43.876099,252.547180 41.205212,242.079025 39.209343,231.491470 
	C37.619461,223.057602 36.889038,214.451721 35.992802,205.899597 
	C34.857365,195.064896 33.940334,184.207291 32.942581,172.421371 
	C32.970371,161.192657 33.032898,150.901749 32.946819,140.612076 
	C32.933975,139.077209 32.222717,137.548172 31.664202,136.049454 
	C31.493843,136.082458 31.147015,136.094940 31.255379,135.759186 
	C31.297035,134.963760 31.230331,134.504105 31.163630,134.044434 
	C31.279926,133.540909 31.396221,133.037384 32.150810,132.066071 
	C32.835819,126.403229 32.882534,121.208183 32.929245,116.013145 
	C33.442871,114.871887 34.280544,113.768906 34.420578,112.583511 
	C36.027248,98.983124 38.286297,85.547623 44.644466,73.207199 
	C47.620838,67.430412 50.666710,61.653584 54.218224,56.228409 
	C55.464966,54.323917 58.280762,53.408146 60.446285,52.155293 
	C62.292839,51.086975 64.230621,50.175446 66.134499,49.207241 
	C70.586563,46.943165 75.042503,44.686703 80.172119,42.186001 
	C81.344101,41.954082 81.871162,42.077663 82.333023,41.955261 
	C88.479851,40.326283 94.618423,38.666088 100.755737,37.001438 
	C101.218651,36.875881 101.650902,36.641563 102.106628,36.484570 
	C106.917046,34.827412 111.637726,32.791645 116.563576,31.616684 
	C123.182091,30.037973 129.959427,29.125134 137.158844,27.955391 
	C151.757019,27.994244 165.864944,28.004166 180.267273,28.263294 
	C186.414215,29.446463 192.283951,30.286070 198.113037,31.348780 
	C201.774033,32.016220 205.373993,33.018513 209.378265,34.002686 
	C213.291412,34.922722 216.926544,35.415352 220.343292,36.559856 
	C227.528854,38.966812 234.599854,41.715862 241.717865,44.324501 
	C241.717865,44.324501 241.861755,44.302139 242.047455,44.565235 
	C244.705139,46.195843 247.099091,47.738873 249.670624,48.882587 
	C252.360229,50.078812 255.220581,50.891136 258.006287,51.871269 
	C260.949127,53.299438 264.102417,54.415779 266.786713,56.227077 
	C271.074707,59.120487 275.638733,60.548050 280.706573,61.679916 
	C293.186340,64.467186 302.998932,58.231846 313.372620,53.498615 
	C319.638672,50.639595 325.945892,47.870804 332.784790,45.248627 
	C333.884979,45.011871 334.435028,44.587967 334.985046,44.164062 
	C335.437531,43.986389 335.889984,43.808712 336.839874,43.859436 
	C343.438110,42.466450 349.619324,41.090755 355.609772,39.131836 
	C359.224213,37.949890 362.542297,35.861691 366.241211,34.086231 
	C366.683899,33.710388 366.878937,33.429020 367.073944,33.147644 
	C367.501282,33.103054 367.928650,33.058468 369.081238,32.922577 
	C372.911346,32.226109 376.068451,31.805412 379.101227,30.945971 
	C380.895477,30.437504 382.493256,29.235601 384.179382,28.345512 
	C387.548370,28.060297 390.917328,27.775082 395.035278,27.623749 
	C409.841156,27.841208 423.898102,27.924784 438.272278,28.268505 
	C441.572601,28.590860 444.688873,28.121428 447.510559,28.828131 
	C453.049286,30.215338 458.356689,32.515682 463.885406,33.956139 
	C469.552429,35.432632 475.422241,36.125423 481.100433,37.566521 
	C484.264404,38.369530 487.259796,39.908413 490.256714,41.278564 
	C493.509338,42.765640 496.538422,44.866447 499.905884,45.953323 
	C508.796661,48.822933 518.416992,50.336609 522.380127,60.723278 
	C522.621460,61.355801 524.090332,61.519951 524.988037,61.902023 
	C528.230408,69.852203 532.064453,77.622612 534.549622,85.802834 
	C537.062256,94.073891 538.505066,102.707184 539.908630,111.265083 
	C540.861877,117.077393 540.939453,123.033302 541.375793,129.393158 
	C541.513123,130.230362 541.683411,130.599380 541.853638,130.968399 
	C541.853638,130.968399 542.017029,131.377869 542.016846,131.905960 
	C542.304077,132.952118 542.591370,133.470200 542.878723,133.988266 
	C542.878723,133.988266 543.037415,134.400101 543.023621,134.941101 
	C543.016968,135.695328 543.024170,135.908585 543.017334,136.355377 
	C543.003296,136.588898 542.850037,137.030960 542.597961,137.356308 
	C542.231445,139.487274 542.065063,141.291321 542.011169,143.098755 
	C541.715759,152.998825 541.447998,162.899734 541.269653,173.130676 
	C541.374878,178.264496 541.847046,183.122757 541.290283,187.860077 
	C540.143127,197.620377 538.483765,207.321976 536.954529,217.035034 
	C536.461914,220.163849 535.582520,223.232849 535.114319,226.364227 
	C534.123108,232.993027 533.663025,239.724167 532.286682,246.266373 
	C530.709045,253.765457 528.323059,261.091827 526.380920,268.517426 
	C523.457275,279.695465 520.614197,290.894592 517.736816,302.084717 
	C517.670959,302.240509 517.605042,302.396332 517.523254,303.094177 
	C516.155701,306.954620 514.642151,310.217499 513.482361,313.601624 
	C509.789429,324.377289 506.228058,335.198059 502.615845,346.001404 
	C502.462128,346.072876 502.308441,346.144348 501.687744,346.632141 
	C500.102325,350.693298 498.983887,354.338165 497.865479,357.983032 
	C497.865479,357.983032 497.698273,358.269226 497.423218,358.569550 
	C494.961670,363.147705 492.579865,367.340729 490.670532,371.738861 
	C489.704224,373.964691 489.591827,376.561218 489.093384,378.990173 
	C489.093384,378.990173 488.862030,379.226227 488.515656,379.532776 
	C486.342041,383.805328 484.514801,387.771332 482.687531,391.737305 
	C482.687531,391.737305 482.868805,391.894714 482.451172,391.929352 
	C479.367554,397.512665 476.713318,403.066986 474.032440,408.608429 
	C471.063660,414.745026 468.070557,420.869843 465.088013,426.999786 
	C465.088013,426.999786 464.865448,427.243256 464.522705,427.542114 
	C461.743378,431.202454 459.339661,434.588379 456.860626,437.918274 
	C454.594299,440.962372 452.246613,443.945892 449.934753,446.956116 
	C449.934784,446.956146 449.996490,446.996613 449.672424,447.063232 
	C448.550995,448.071991 447.753601,449.014160 446.956238,449.956360 
	C446.956207,449.956329 447.000000,450.000000 446.652710,450.068512 
	C444.512329,452.074066 442.719177,454.011108 440.926056,455.948151 
	C440.926056,455.948151 440.994995,455.988739 440.709412,456.034058 
	C440.198700,456.339020 439.973602,456.598633 439.748535,456.858215 
	C439.748535,456.858246 439.855377,456.830383 439.501587,456.954590 
	C435.624908,459.113525 432.291565,461.661835 428.530060,463.050049 
	C424.061493,464.699219 419.267639,465.678925 414.529724,466.297913 
	C412.115936,466.613281 409.515991,465.503876 407.000214,465.038452 
	C407.000214,465.038483 406.776184,464.819611 406.486328,464.495117 
	C405.952484,463.948669 405.745239,463.645050 405.459259,463.516418 
	C394.015411,458.368347 386.420349,449.800354 381.414734,438.290314 
	C379.404480,433.667938 375.236969,429.983734 372.051331,425.872559 
M128.108810,425.350861 
	C133.508881,437.465332 143.778091,444.300964 155.251236,449.373779 
	C158.253326,450.701172 162.866196,450.539398 165.922302,449.198883 
	C176.316269,444.639740 184.466171,437.382019 190.355560,427.363739 
	C195.278870,418.988800 201.021652,411.064575 206.788361,403.225311 
	C212.427231,395.559845 218.414581,388.137024 224.506470,380.822144 
	C231.322021,372.638336 238.333130,364.610962 245.465149,356.701263 
	C247.517151,354.425507 250.296310,352.810608 252.715652,350.859924 
	C262.057373,343.327942 271.229797,335.573242 280.792358,328.333466 
	C285.360504,324.874939 291.742798,325.973755 295.971680,329.551300 
	C301.099976,333.889709 306.487427,337.920807 311.641327,342.230072 
	C318.725067,348.152802 326.101379,353.806458 332.601227,360.324402 
	C339.339355,367.081238 345.490143,374.492401 351.345306,382.045654 
	C361.182709,394.736084 370.811584,407.603882 380.075836,420.716614 
	C385.165009,427.919922 388.713898,436.283203 396.144135,441.628784 
	C401.266602,445.314087 406.054749,450.063080 412.947845,449.922058 
	C426.937622,449.635742 436.143585,440.555908 443.530548,430.555420 
	C449.988586,421.812561 454.259155,411.388977 459.035370,401.485718 
	C464.516357,390.121155 469.696777,378.599823 474.633636,366.987488 
	C481.386414,351.103851 488.236145,335.235931 494.199371,319.049988 
	C499.230103,305.395050 503.237610,291.349762 507.356995,277.376709 
	C510.497009,266.725739 513.489319,256.001068 515.841492,245.156097 
	C518.371521,233.491379 520.434631,221.696671 522.047791,209.869537 
	C523.810425,196.946289 525.219971,183.945770 526.037292,170.932068 
	C526.673218,160.807434 526.586609,150.588455 526.047668,140.452530 
	C525.490173,129.966934 524.789490,119.369850 522.698059,109.118004 
	C520.549011,98.583611 516.904541,88.317413 513.381653,78.117874 
	C511.919617,73.884979 510.050354,68.604279 506.674561,66.445686 
	C496.898956,60.194790 486.245239,55.323177 475.975128,49.837318 
	C469.052246,46.139416 461.655212,44.204159 453.884918,43.519028 
	C444.581818,42.698746 435.282990,41.302116 425.975128,41.240349 
	C419.180054,41.195255 412.352386,42.774475 405.576660,43.862522 
	C394.661133,45.615334 383.573792,46.794380 372.928406,49.611492 
	C358.582520,53.407852 344.549774,58.416637 330.454285,63.119797 
	C321.051819,66.257065 311.491119,69.153152 302.518097,73.280769 
	C293.024536,77.647835 284.225464,78.704697 274.242950,74.655960 
	C258.482056,68.263596 242.515259,62.203388 226.248093,57.283978 
	C209.800812,52.310097 192.991318,48.347725 176.132401,44.985714 
	C164.588196,42.683567 152.705490,41.955700 140.936737,40.970490 
	C136.888855,40.631622 132.692093,41.425072 128.626480,42.088242 
	C121.729408,43.213268 114.587982,43.819538 108.082253,46.138901 
	C97.885902,49.774017 87.871117,54.157738 78.303360,59.215492 
	C73.538246,61.734447 68.109917,64.050354 65.211517,69.473137 
	C58.997520,81.099228 54.621819,93.306320 52.756950,106.371910 
	C51.141087,117.692932 48.479736,129.007233 48.303627,140.355896 
	C48.073372,155.193695 46.440929,170.126541 49.680794,184.989258 
	C51.555134,193.587677 51.537907,202.580276 52.893429,211.314529 
	C54.598042,222.298172 56.788933,233.207962 58.860054,244.132553 
	C60.236393,251.392380 61.320263,258.750275 63.334896,265.836884 
	C66.707191,277.699158 70.635422,289.407013 74.485886,301.128540 
	C77.798355,311.212341 80.862518,321.414764 84.864723,331.226868 
	C92.135704,349.052948 99.723770,366.764832 107.746819,384.264252 
	C114.010193,397.925568 121.132729,411.192932 128.108810,425.350861 
z"/>
<path fill="#0F1230" opacity="1.000000" stroke="none" 
	d="
M518.060913,301.951202 
	C520.614197,290.894592 523.457275,279.695465 526.380920,268.517426 
	C528.323059,261.091827 530.709045,253.765457 532.286682,246.266373 
	C533.663025,239.724167 534.123108,232.993027 535.114319,226.364227 
	C535.582520,223.232849 536.461914,220.163849 536.954529,217.035034 
	C538.483765,207.321976 540.143127,197.620377 541.290283,187.860077 
	C541.847046,183.122757 541.374878,178.264496 541.704102,172.989105 
	C542.347717,171.468140 542.920044,170.419739 542.922852,169.369843 
	C542.951538,158.590347 542.887878,147.810623 542.849976,137.030960 
	C542.850037,137.030960 543.003296,136.588898 543.240173,136.273010 
	C543.477051,135.957123 543.942993,135.865677 543.942993,135.865677 
	C544.276489,145.660370 545.213257,155.481476 544.785767,165.242844 
	C544.288635,176.594177 541.522827,187.923370 541.840393,199.203079 
	C542.020203,205.587891 539.792603,211.114136 539.201965,217.110275 
	C538.239807,226.879745 535.590637,236.476898 533.847778,246.181671 
	C533.553040,247.822769 534.233948,249.639069 533.811279,250.964874 
	C532.196594,257.200806 531.241272,263.715179 528.762146,269.586060 
	C526.717224,274.428741 528.416748,279.812958 524.527100,284.627380 
	C521.595093,288.256378 521.859375,294.426422 520.512756,299.414642 
	C520.263062,300.339691 519.117249,301.022888 518.060913,301.951202 
z"/>
<path fill="#0F132F" opacity="1.000000" stroke="none" 
	d="
M524.991821,61.507652 
	C524.090332,61.519951 522.621460,61.355801 522.380127,60.723278 
	C518.416992,50.336609 508.796661,48.822933 499.905884,45.953323 
	C496.538422,44.866447 493.509338,42.765640 490.256714,41.278564 
	C487.259796,39.908413 484.264404,38.369530 481.100433,37.566521 
	C475.422241,36.125423 469.552429,35.432632 463.885406,33.956139 
	C458.356689,32.515682 453.049286,30.215338 447.510559,28.828131 
	C444.688873,28.121428 441.572601,28.590860 438.169220,27.898546 
	C436.488739,27.120121 435.228577,26.971802 433.845642,26.644215 
	C433.520996,26.248573 433.280518,26.090954 433.001495,25.992090 
	C435.361755,25.886139 437.725555,25.642958 440.081543,25.703390 
	C444.691833,25.821648 449.297913,26.105576 453.905182,26.332479 
	C454.381073,26.355919 454.886719,26.369579 455.322021,26.535759 
	C462.449371,29.256496 469.541107,32.072659 476.695160,34.720631 
	C484.230377,37.509674 491.686646,41.700478 499.431519,42.379166 
	C506.314301,42.982307 509.920074,48.403095 516.091370,49.798180 
	C520.567810,50.810135 524.864136,55.096439 524.991821,61.507652 
z"/>
<path fill="#101330" opacity="1.000000" stroke="none" 
	d="
M136.668594,27.926456 
	C129.959427,29.125134 123.182091,30.037973 116.563576,31.616684 
	C111.637726,32.791645 106.917046,34.827412 102.106628,36.484570 
	C101.650902,36.641563 101.218651,36.875881 100.755737,37.001438 
	C94.618423,38.666088 88.479851,40.326283 82.333023,41.955261 
	C81.871162,42.077663 81.344101,41.954082 80.434097,41.922523 
	C82.275330,38.976078 84.996040,37.250195 88.820740,36.386692 
	C97.464233,34.435246 105.886612,31.523621 114.497704,29.403801 
	C122.535896,27.425013 130.264572,24.734240 139.076309,25.711689 
	C149.736267,26.894154 160.626968,25.980999 171.417679,26.016636 
	C173.060638,26.022060 174.702835,26.253536 176.213806,26.702801 
	C164.480209,27.027506 152.877975,26.996925 141.276428,27.071823 
	C139.738708,27.081751 138.204453,27.628384 136.668594,27.926456 
z"/>
<path fill="#0E1230" opacity="1.000000" stroke="none" 
	d="
M372.083801,426.257935 
	C375.236969,429.983734 379.404480,433.667938 381.414734,438.290314 
	C386.420349,449.800354 394.015411,458.368347 405.459259,463.516418 
	C405.745239,463.645050 405.952484,463.948669 406.330322,464.508606 
	C401.344299,465.173492 397.483917,462.970734 394.123199,459.219238 
	C389.213776,453.739014 384.039185,448.496521 378.991882,443.139282 
	C378.426941,442.539612 377.420563,441.752014 377.520721,441.222046 
	C378.652649,435.233917 373.042236,431.807770 372.083801,426.257935 
z"/>
<path fill="#0F1230" opacity="1.000000" stroke="none" 
	d="
M502.907227,345.919556 
	C506.228058,335.198059 509.789429,324.377289 513.482361,313.601624 
	C514.642151,310.217499 516.155701,306.954620 517.661011,303.307312 
	C517.626526,306.484100 517.927917,310.108124 517.117004,313.463287 
	C516.253479,317.035797 514.392578,320.378723 512.863708,323.775360 
	C511.538727,326.719177 509.834839,329.513184 508.742035,332.533905 
	C507.954163,334.711731 508.289886,337.318665 507.404236,339.432434 
	C506.433868,341.748322 504.635895,343.717438 502.907227,345.919556 
z"/>
<path fill="#0F1230" opacity="1.000000" stroke="none" 
	d="
M465.418030,426.930115 
	C468.070557,420.869843 471.063660,414.745026 474.032440,408.608429 
	C476.713318,403.066986 479.367554,397.512665 482.380737,391.832153 
	C483.975494,395.186951 482.748108,397.902710 481.234924,401.261566 
	C478.166351,408.072754 471.999146,413.098602 470.628143,420.901978 
	C470.240936,423.105865 467.441223,424.885956 465.418030,426.930115 
z"/>
<path fill="#101330" opacity="1.000000" stroke="none" 
	d="
M209.001328,33.870575 
	C205.373993,33.018513 201.774033,32.016220 198.113037,31.348780 
	C192.283951,30.286070 186.414215,29.446463 180.291901,28.036209 
	C180.022141,27.559916 179.957886,27.108112 179.957886,27.108112 
	C180.741257,26.496975 181.627029,25.262321 182.292114,25.371538 
	C188.658920,26.417095 195.033752,27.498726 201.307175,28.987667 
	C203.961212,29.617579 206.379425,31.240976 208.955566,32.922455 
	C209.006317,33.432098 209.001328,33.870575 209.001328,33.870575 
z"/>
<path fill="#0F1032" opacity="1.000000" stroke="none" 
	d="
M295.246155,345.400024 
	C297.911194,345.854095 301.204620,345.793732 303.485809,347.283417 
	C308.932495,350.840118 313.901886,355.127747 319.172150,359.442657 
	C312.541473,358.955536 307.110382,355.656616 302.266602,351.073730 
	C300.148895,349.070099 297.708313,347.407654 295.246155,345.400024 
z"/>
<path fill="#0E1130" opacity="1.000000" stroke="none" 
	d="
M209.378265,34.002686 
	C209.001328,33.870575 209.006317,33.432098 209.014709,33.212921 
	C219.960068,33.519173 230.676270,34.868301 239.921219,41.501987 
	C240.660690,42.032578 241.168457,42.886044 241.750885,43.956989 
	C234.599854,41.715862 227.528854,38.966812 220.343292,36.559856 
	C216.926544,35.415352 213.291412,34.922722 209.378265,34.002686 
z"/>
<path fill="#0E1230" opacity="1.000000" stroke="none" 
	d="
M407.246399,465.288086 
	C409.515991,465.503876 412.115936,466.613281 414.529724,466.297913 
	C419.267639,465.678925 424.061493,464.699219 428.530060,463.050049 
	C432.291565,461.661835 435.624908,459.113525 439.470947,456.908661 
	C440.522797,464.236908 433.672119,462.725128 429.971680,464.906891 
	C428.893951,465.542328 427.265137,465.280548 426.238525,465.959015 
	C419.846497,470.183319 413.659393,469.231110 407.246399,465.288086 
z"/>
<path fill="#0F1230" opacity="1.000000" stroke="none" 
	d="
M450.306641,446.961243 
	C452.246613,443.945892 454.594299,440.962372 456.860626,437.918274 
	C459.339661,434.588379 461.743378,431.202454 464.516907,427.706909 
	C464.700653,432.919830 464.416626,438.166260 458.218384,440.450134 
	C457.408966,440.748383 456.230255,441.749847 456.266693,442.363556 
	C456.519348,446.617737 453.143524,446.192596 450.306641,446.961243 
z"/>
<path fill="#C8CAD6" opacity="1.000000" stroke="none" 
	d="
M365.993561,34.180710 
	C362.542297,35.861691 359.224213,37.949890 355.609772,39.131836 
	C349.619324,41.090755 343.438110,42.466450 337.228271,43.887657 
	C341.458832,41.750412 345.699860,39.534832 350.165466,37.953636 
	C354.743103,36.332787 359.540558,35.332695 364.855774,34.022171 
	C365.644348,34.049194 365.818970,34.114952 365.993561,34.180710 
z"/>
<path fill="#020724" opacity="1.000000" stroke="none" 
	d="
M31.480730,168.975342 
	C30.984591,167.373627 30.083565,165.778015 30.059341,164.169189 
	C29.922686,155.093460 29.996603,146.014542 30.194653,136.472534 
	C30.645182,136.015640 30.897333,136.044495 31.147015,136.094940 
	C31.147015,136.094940 31.493843,136.082458 31.547709,136.506195 
	C31.561293,147.611725 31.521011,158.293533 31.480730,168.975342 
z"/>
<path fill="#0F1230" opacity="1.000000" stroke="none" 
	d="
M489.386414,378.938293 
	C489.591827,376.561218 489.704224,373.964691 490.670532,371.738861 
	C492.579865,367.340729 494.961670,363.147705 497.490479,358.721008 
	C497.523926,361.185822 497.373291,363.830902 496.862335,366.404480 
	C496.331757,369.076996 496.478638,371.945923 492.940643,373.406006 
	C491.367615,374.055145 490.737549,376.989410 489.386414,378.938293 
z"/>
<path fill="#0E1130" opacity="1.000000" stroke="none" 
	d="
M257.995117,51.506920 
	C255.220581,50.891136 252.360229,50.078812 249.670624,48.882587 
	C247.099091,47.738873 244.705139,46.195843 241.979645,44.566833 
	C247.255051,43.025848 255.815872,46.626114 257.995117,51.506920 
z"/>
<path fill="#0A0B26" opacity="1.000000" stroke="none" 
	d="
M384.019104,28.036476 
	C382.493256,29.235601 380.895477,30.437504 379.101227,30.945971 
	C376.068451,31.805412 372.911346,32.226109 369.395630,32.850357 
	C369.066681,31.893843 369.148590,30.918245 369.174805,30.606083 
	C372.223846,29.503567 374.800812,28.267519 377.517761,27.689655 
	C379.537415,27.260094 381.738556,27.683788 384.019104,28.036476 
z"/>
<path fill="#D5D9E5" opacity="1.000000" stroke="none" 
	d="
M179.590118,27.061806 
	C179.957886,27.108112 180.022141,27.559916 179.997498,27.787001 
	C165.864944,28.004166 151.757019,27.994244 137.158844,27.955391 
	C138.204453,27.628384 139.738708,27.081751 141.276428,27.071823 
	C152.877975,26.996925 164.480209,27.027506 176.546753,26.949368 
	C177.748306,26.920895 178.485321,26.968195 179.590118,27.061806 
z"/>
<path fill="#D5D9E5" opacity="1.000000" stroke="none" 
	d="
M433.968384,26.823483 
	C435.228577,26.971802 436.488739,27.120121 437.851990,27.638401 
	C423.898102,27.924784 409.841156,27.841208 395.442444,27.540277 
	C395.249695,27.229240 395.398743,27.135559 396.253052,27.000935 
	C409.295013,26.914490 421.631714,26.868984 433.968384,26.823483 
z"/>
<path fill="#0F1230" opacity="1.000000" stroke="none" 
	d="
M483.068237,391.768280 
	C484.514801,387.771332 486.342041,383.805328 488.504242,379.697632 
	C489.849060,384.872681 488.371338,389.094238 483.068237,391.768280 
z"/>
<path fill="#00011E" opacity="1.000000" stroke="none" 
	d="
M433.845642,26.644213 
	C421.631714,26.868984 409.295013,26.914490 396.495544,26.896427 
	C399.273804,26.554955 402.512268,26.078804 405.756317,26.037329 
	C414.524200,25.925230 423.294464,25.998018 432.532654,25.994774 
	C433.280518,26.090954 433.520996,26.248573 433.845642,26.644213 
z"/>
<path fill="#CACEDD" opacity="1.000000" stroke="none" 
	d="
M31.523857,169.385040 
	C31.521011,158.293533 31.561293,147.611725 31.718067,136.473175 
	C32.222717,137.548172 32.933975,139.077209 32.946819,140.612076 
	C33.032898,150.901749 32.970371,161.192657 32.918034,171.983978 
	C32.442345,171.588104 32.004665,170.691422 31.523857,169.385040 
z"/>
<path fill="#0F1230" opacity="1.000000" stroke="none" 
	d="
M498.192017,357.940491 
	C498.983887,354.338165 500.102325,350.693298 501.543152,346.841278 
	C501.685944,350.666870 503.063904,355.162445 498.192017,357.940491 
z"/>
<path fill="#0E1230" opacity="1.000000" stroke="none" 
	d="
M441.296021,455.917664 
	C442.719177,454.011108 444.512329,452.074066 446.631226,450.046478 
	C446.705780,453.282196 445.163116,455.456451 441.296021,455.917664 
z"/>
<path fill="#010525" opacity="1.000000" stroke="none" 
	d="
M32.668480,116.332817 
	C32.882534,121.208183 32.835819,126.403229 32.381447,131.751022 
	C32.118435,126.820015 32.263073,121.736252 32.668480,116.332817 
z"/>
<path fill="#0F1230" opacity="1.000000" stroke="none" 
	d="
M447.299011,449.925232 
	C447.753601,449.014160 448.550995,448.071991 449.652222,447.032349 
	C449.184631,447.921265 448.413208,448.907654 447.299011,449.925232 
z"/>
<path fill="#C8CAD6" opacity="1.000000" stroke="none" 
	d="
M334.792419,43.949471 
	C334.435028,44.587967 333.884979,45.011871 333.188354,45.254471 
	C333.561127,44.627071 334.080444,44.180977 334.792419,43.949471 
z"/>
<path fill="#0A0B26" opacity="1.000000" stroke="none" 
	d="
M366.241211,34.086235 
	C365.818970,34.114952 365.644348,34.049194 365.239075,33.824760 
	C365.596375,33.346413 366.184296,33.026745 366.923096,32.927361 
	C366.878937,33.429020 366.683899,33.710388 366.241211,34.086235 
z"/>
<path fill="#010525" opacity="1.000000" stroke="none" 
	d="
M31.255379,135.759186 
	C30.897333,136.044495 30.645182,136.015640 30.200253,136.003876 
	C30.246222,135.418594 30.482494,134.837814 30.941196,134.150726 
	C31.230331,134.504105 31.297035,134.963760 31.255379,135.759186 
z"/>
<path fill="#0F1032" opacity="1.000000" stroke="none" 
	d="
M319.274658,359.962799 
	C319.728119,359.918518 320.273407,360.158630 320.867432,360.697296 
	C320.399597,360.746307 319.883057,360.496735 319.274658,359.962799 
z"/>
<path fill="#D6D9E8" opacity="1.000000" stroke="none" 
	d="
M541.908997,130.757370 
	C541.683411,130.599380 541.513123,130.230362 541.580017,129.778473 
	C541.948059,129.964996 541.997131,130.248581 541.908997,130.757370 
z"/>
<path fill="#D6D9E8" opacity="1.000000" stroke="none" 
	d="
M542.939087,133.661667 
	C542.591370,133.470200 542.304077,132.952118 542.032837,132.125824 
	C542.365784,132.323410 542.682617,132.829239 542.939087,133.661667 
z"/>
<path fill="#D6D9E8" opacity="1.000000" stroke="none" 
	d="
M543.904541,135.620575 
	C543.942993,135.865677 543.477051,135.957123 543.254150,136.039490 
	C543.024170,135.908585 543.016968,135.695328 543.025574,135.161774 
	C543.375244,134.928360 543.650208,135.106354 543.904541,135.620575 
z"/>
<path fill="#0E1230" opacity="1.000000" stroke="none" 
	d="
M440.005981,456.784027 
	C439.973602,456.598633 440.198700,456.339020 440.689514,455.999359 
	C440.724640,456.182800 440.494049,456.446320 440.005981,456.784027 
z"/>
<path fill="#FFFFFF" opacity="1.000000" stroke="none" 
	d="
M127.991150,424.993103 
	C121.132729,411.192932 114.010193,397.925568 107.746819,384.264252 
	C99.723770,366.764832 92.135704,349.052948 84.864723,331.226868 
	C80.862518,321.414764 77.798355,311.212341 74.485886,301.128540 
	C70.635422,289.407013 66.707191,277.699158 63.334896,265.836884 
	C61.320263,258.750275 60.236393,251.392380 58.860054,244.132553 
	C56.788933,233.207962 54.598042,222.298172 52.893429,211.314529 
	C51.537907,202.580276 51.555134,193.587677 49.680794,184.989258 
	C46.440929,170.126541 48.073372,155.193695 48.303627,140.355896 
	C48.479736,129.007233 51.141087,117.692932 52.756950,106.371910 
	C54.621819,93.306320 58.997520,81.099228 65.211517,69.473137 
	C68.109917,64.050354 73.538246,61.734447 78.303360,59.215492 
	C87.871117,54.157738 97.885902,49.774017 108.082253,46.138901 
	C114.587982,43.819538 121.729408,43.213268 128.626480,42.088242 
	C132.692093,41.425072 136.888855,40.631622 140.936737,40.970490 
	C152.705490,41.955700 164.588196,42.683567 176.132401,44.985714 
	C192.991318,48.347725 209.800812,52.310097 226.248093,57.283978 
	C242.515259,62.203388 258.482056,68.263596 274.242950,74.655960 
	C284.225464,78.704697 293.024536,77.647835 302.518097,73.280769 
	C311.491119,69.153152 321.051819,66.257065 330.454285,63.119797 
	C344.549774,58.416637 358.582520,53.407852 372.928406,49.611492 
	C383.573792,46.794380 394.661133,45.615334 405.576660,43.862522 
	C412.352386,42.774475 419.180054,41.195255 425.975128,41.240349 
	C435.282990,41.302116 444.581818,42.698746 453.884918,43.519028 
	C461.655212,44.204159 469.052246,46.139416 475.975128,49.837318 
	C486.245239,55.323177 496.898956,60.194790 506.674561,66.445686 
	C510.050354,68.604279 511.919617,73.884979 513.381653,78.117874 
	C516.904541,88.317413 520.549011,98.583611 522.698059,109.118004 
	C524.789490,119.369850 525.490173,129.966934 526.047668,140.452530 
	C526.586609,150.588455 526.673218,160.807434 526.037292,170.932068 
	C525.219971,183.945770 523.810425,196.946289 522.047791,209.869537 
	C520.434631,221.696671 518.371521,233.491379 515.841492,245.156097 
	C513.489319,256.001068 510.497009,266.725739 507.356995,277.376709 
	C503.237610,291.349762 499.230103,305.395050 494.199371,319.049988 
	C488.236145,335.235931 481.386414,351.103851 474.633636,366.987488 
	C469.696777,378.599823 464.516357,390.121155 459.035370,401.485718 
	C454.259155,411.388977 449.988586,421.812561 443.530548,430.555420 
	C436.143585,440.555908 426.937622,449.635742 412.947845,449.922058 
	C406.054749,450.063080 401.266602,445.314087 396.144135,441.628784 
	C388.713898,436.283203 385.165009,427.919922 380.075836,420.716614 
	C370.811584,407.603882 361.182709,394.736084 351.345306,382.045654 
	C345.490143,374.492401 339.339355,367.081238 332.601227,360.324402 
	C326.101379,353.806458 318.725067,348.152802 311.641327,342.230072 
	C306.487427,337.920807 301.099976,333.889709 295.971680,329.551300 
	C291.742798,325.973755 285.360504,324.874939 280.792358,328.333466 
	C271.229797,335.573242 262.057373,343.327942 252.715652,350.859924 
	C250.296310,352.810608 247.517151,354.425507 245.465149,356.701263 
	C238.333130,364.610962 231.322021,372.638336 224.506470,380.822144 
	C218.414581,388.137024 212.427231,395.559845 206.788361,403.225311 
	C201.021652,411.064575 195.278870,418.988800 190.355560,427.363739 
	C184.466171,437.382019 176.316269,444.639740 165.922302,449.198883 
	C162.866196,450.539398 158.253326,450.701172 155.251236,449.373779 
	C143.778091,444.300964 133.508881,437.465332 127.991150,424.993103 
M163.155701,224.784012 
	C162.777237,225.188019 162.398773,225.592026 161.492249,226.445679 
	C159.692520,228.669128 157.849533,230.859222 156.102783,233.123566 
	C153.195587,236.892197 153.929565,241.235764 157.814331,243.930130 
	C159.390076,245.023026 160.845108,246.292496 162.437744,247.358032 
	C167.283722,250.600159 172.170013,253.781998 177.140579,257.686188 
	C179.069183,258.833374 180.997787,259.980560 182.956116,261.044312 
	C182.956116,261.044312 182.874161,261.078003 183.069977,261.760406 
	C186.688110,264.513641 190.255981,267.336792 193.945984,269.990082 
	C195.739120,271.279388 197.760712,272.251038 199.866409,273.153992 
	C199.866409,273.153992 199.641602,273.326569 199.918304,273.982849 
	C201.261093,274.710266 202.603897,275.437714 204.090408,276.829620 
	C206.695831,278.878113 209.283707,280.949463 211.910233,282.970520 
	C217.929977,287.602661 223.903503,292.298645 230.016937,296.804291 
	C236.805252,301.807404 243.839264,306.481903 250.548035,311.586334 
	C254.172745,314.344208 258.138336,314.608856 261.153870,310.943298 
	C269.470917,300.833649 277.513306,290.498596 285.767578,280.336578 
	C294.473541,269.618469 302.858612,258.591248 312.205231,248.456589 
	C320.312714,239.665497 325.871918,228.970657 334.821686,220.758072 
	C340.904205,215.176514 345.147430,207.614822 350.359772,201.055145 
	C358.887634,190.322937 367.441803,179.608795 376.163635,169.034500 
	C382.259552,161.643875 388.638489,154.486023 394.920013,147.249420 
	C399.195068,142.324387 399.124451,140.683426 395.660522,136.027786 
	C392.518982,131.805481 389.592957,127.361839 387.103027,122.730247 
	C383.573639,116.165230 377.087311,114.824333 372.251312,120.309013 
	C367.091705,126.160698 362.163452,132.222336 357.271454,138.302765 
	C349.022247,148.556030 340.967529,158.966476 332.668610,169.178833 
	C325.546082,177.943512 318.176361,186.506927 310.959656,195.195633 
	C308.847443,197.738678 306.899414,200.417496 304.850586,203.013901 
	C299.137299,210.254227 293.471893,217.533646 287.664276,224.697678 
	C284.604462,228.472183 281.200165,231.966095 278.104431,235.713150 
	C271.844421,243.290222 265.654877,250.926407 259.503387,258.592041 
	C256.118073,262.810638 252.869080,267.138672 249.672302,271.270477 
	C244.583435,267.378082 239.558975,263.403778 234.397125,259.616821 
	C226.228989,253.624313 217.974365,247.749542 209.746017,241.839325 
	C201.893616,236.199142 194.028030,230.577332 185.960831,224.276443 
	C184.638748,223.525467 183.316650,222.774490 181.800369,221.777237 
	C181.800369,221.777237 181.492294,221.836014 181.208008,221.162643 
	C173.788376,212.656357 168.843704,213.360321 164.494232,223.529221 
	C164.307587,223.965591 163.953598,224.330399 163.792694,224.756882 
	C163.792694,224.756882 163.761353,224.642517 163.155701,224.784012 
z"/>
<path fill="#D6D9E8" opacity="1.000000" stroke="none" 
	d="
M542.597900,137.356308 
	C542.887878,147.810623 542.951538,158.590347 542.922852,169.369843 
	C542.920044,170.419739 542.347717,171.468140 541.605225,172.658783 
	C541.447998,162.899734 541.715759,152.998825 542.011169,143.098755 
	C542.065063,141.291321 542.231445,139.487274 542.597900,137.356308 
z"/>
<path fill="#08103B" opacity="1.000000" stroke="none" 
	d="
M181.492294,221.836014 
	C181.492294,221.836014 181.800369,221.777237 181.914673,222.284866 
	C183.408722,223.510818 184.788498,224.229126 186.168259,224.947433 
	C194.028030,230.577332 201.893616,236.199142 209.746017,241.839325 
	C217.974365,247.749542 226.228989,253.624313 234.397125,259.616821 
	C239.558975,263.403778 244.583435,267.378082 249.672302,271.270477 
	C252.869080,267.138672 256.118073,262.810638 259.503387,258.592041 
	C265.654877,250.926407 271.844421,243.290222 278.104431,235.713150 
	C281.200165,231.966095 284.604462,228.472183 287.664276,224.697678 
	C293.471893,217.533646 299.137299,210.254227 304.850586,203.013901 
	C306.899414,200.417496 308.847443,197.738678 310.959656,195.195633 
	C318.176361,186.506927 325.546082,177.943512 332.668610,169.178833 
	C340.967529,158.966476 349.022247,148.556030 357.271454,138.302765 
	C362.163452,132.222336 367.091705,126.160698 372.251312,120.309013 
	C377.087311,114.824333 383.573639,116.165230 387.103027,122.730247 
	C389.592957,127.361839 392.518982,131.805481 395.660522,136.027786 
	C399.124451,140.683426 399.195068,142.324387 394.920013,147.249420 
	C388.638489,154.486023 382.259552,161.643875 376.163635,169.034500 
	C367.441803,179.608795 358.887634,190.322937 350.359772,201.055145 
	C345.147430,207.614822 340.904205,215.176514 334.821686,220.758072 
	C325.871918,228.970657 320.312714,239.665497 312.205231,248.456589 
	C302.858612,258.591248 294.473541,269.618469 285.767578,280.336578 
	C277.513306,290.498596 269.470917,300.833649 261.153870,310.943298 
	C258.138336,314.608856 254.172745,314.344208 250.548035,311.586334 
	C243.839264,306.481903 236.805252,301.807404 230.016937,296.804291 
	C223.903503,292.298645 217.929977,287.602661 211.910233,282.970520 
	C209.283707,280.949463 206.695831,278.878113 204.016785,276.091309 
	C202.509308,274.677521 201.075455,274.002045 199.641602,273.326569 
	C199.641602,273.326569 199.866409,273.153992 199.846344,272.869385 
	C198.979141,271.370667 198.358063,269.864502 197.240662,268.999573 
	C194.379303,266.784729 191.386230,264.703156 188.266373,262.874451 
	C186.667358,261.937195 184.683884,261.655823 182.874161,261.078003 
	C182.874161,261.078003 182.956116,261.044312 182.900940,260.733826 
	C180.910706,259.277985 178.975647,258.132660 177.040604,256.987305 
	C172.170013,253.781998 167.283722,250.600159 162.437744,247.358032 
	C160.845108,246.292496 159.390076,245.023026 157.814331,243.930130 
	C153.929565,241.235764 153.195587,236.892197 156.102783,233.123566 
	C157.849533,230.859222 159.692520,228.669128 162.058899,226.177719 
	C163.004135,225.487335 163.382736,225.064926 163.761353,224.642517 
	C163.761353,224.642517 163.792694,224.756882 164.108948,224.776154 
	C165.438705,223.859039 166.786438,223.103439 167.407822,221.954880 
	C170.081909,217.012115 173.266907,216.511673 177.700150,220.324097 
	C178.675949,221.163254 180.213455,221.349243 181.492294,221.836014 
z"/>
<path fill="#0B0F2D" opacity="1.000000" stroke="none" 
	d="
M182.972076,261.419189 
	C184.683884,261.655823 186.667358,261.937195 188.266373,262.874451 
	C191.386230,264.703156 194.379303,266.784729 197.240662,268.999573 
	C198.358063,269.864502 198.979141,271.370667 199.752579,272.975616 
	C197.760712,272.251038 195.739120,271.279388 193.945984,269.990082 
	C190.255981,267.336792 186.688110,264.513641 182.972076,261.419189 
z"/>
<path fill="#0B0F2B" opacity="1.000000" stroke="none" 
	d="
M181.350159,221.499329 
	C180.213455,221.349243 178.675949,221.163254 177.700150,220.324097 
	C173.266907,216.511673 170.081909,217.012115 167.407822,221.954880 
	C166.786438,223.103439 165.438705,223.859039 164.051376,224.761993 
	C163.953598,224.330399 164.307587,223.965591 164.494232,223.529221 
	C168.843704,213.360321 173.788376,212.656357 181.350159,221.499329 
z"/>
<path fill="#0B0F2D" opacity="1.000000" stroke="none" 
	d="
M177.090591,257.336731 
	C178.975647,258.132660 180.910706,259.277985 182.886078,260.775543 
	C180.997787,259.980560 179.069183,258.833374 177.090591,257.336731 
z"/>
<path fill="#0B0F2D" opacity="1.000000" stroke="none" 
	d="
M199.779953,273.654724 
	C201.075455,274.002045 202.509308,274.677521 203.944916,275.759064 
	C202.603897,275.437714 201.261093,274.710266 199.779953,273.654724 
z"/>
<path fill="#0B0F2B" opacity="1.000000" stroke="none" 
	d="
M186.064545,224.611938 
	C184.788498,224.229126 183.408722,223.510818 182.011749,222.408005 
	C183.316650,222.774490 184.638748,223.525467 186.064545,224.611938 
z"/>
<path fill="#0B0F2B" opacity="1.000000" stroke="none" 
	d="
M163.458527,224.713257 
	C163.382736,225.064926 163.004135,225.487335 162.322922,225.952911 
	C162.398773,225.592026 162.777237,225.188019 163.458527,224.713257 
z"/>
</svg>