<svg version="1.1" id="Layer_1" xmlns="http://www.w3.org/2000/svg" xmlns:xlink="http://www.w3.org/1999/xlink" x="0px" y="0px"
	 width="100%" viewBox="0 0 888 118" enable-background="new 0 0 888 118" xml:space="preserve">
<path fill="#0A113A" opacity="1.000000" stroke="none" 
	d="
M656.000000,119.000000 
	C437.333344,119.000000 219.166672,119.000000 1.000000,119.000000 
	C1.000000,79.666664 1.000000,40.333332 1.000000,1.000000 
	C297.000000,1.000000 593.000000,1.000000 889.000000,1.000000 
	C889.000000,40.333332 889.000000,79.666664 889.000000,119.000000 
	C811.500000,119.000000 734.000000,119.000000 656.000000,119.000000 
M11.640826,66.906403 
	C12.770329,70.731430 13.488322,74.741531 15.109137,78.345604 
	C19.386456,87.856743 23.206211,97.738945 28.812534,106.439621 
	C34.184216,114.776146 40.426514,113.634552 45.921581,105.359566 
	C49.950268,99.292786 54.285770,93.325478 59.214767,87.988213 
	C64.897079,81.835228 69.719872,81.872345 75.350044,88.020729 
	C80.263626,93.386581 84.683632,99.291435 88.703842,105.366982 
	C94.097458,113.518105 99.170494,114.216431 105.678734,106.933777 
	C106.780998,105.700348 107.988388,104.406517 108.602997,102.916176 
	C113.346893,91.412994 118.694351,80.086281 122.412521,68.251770 
	C126.611320,54.887508 128.363770,40.997627 125.766350,26.892122 
	C124.526581,20.159449 121.410057,15.624779 114.511673,13.154481 
	C100.060349,7.979500 86.354950,9.500940 73.040504,16.350065 
	C68.903091,18.478407 65.446587,18.334505 61.328552,16.236391 
	C47.995224,9.443142 34.273003,7.949148 19.855120,13.253444 
	C13.404236,15.626705 10.293478,19.810833 8.976944,26.146196 
	C6.158786,39.707607 8.460819,52.927647 11.640826,66.906403 
M238.644592,61.248718 
	C238.725311,41.931179 229.227585,27.991100 212.263824,24.625204 
	C204.064636,22.998343 195.399765,23.496986 186.951218,23.581261 
	C185.646866,23.594273 183.270035,26.547503 183.250473,28.163527 
	C182.998886,48.947601 183.093079,69.735779 183.079437,90.522896 
	C183.077209,93.929161 184.794434,95.232033 188.089478,95.145226 
	C192.576370,95.027023 197.068756,95.125465 201.558762,95.115067 
	C223.160858,95.065041 235.997726,83.630821 238.644592,61.248718 
M504.620361,77.754433 
	C495.891388,64.224777 496.941711,48.522293 507.293335,37.793411 
	C517.410034,27.308050 529.968384,26.445688 544.453979,34.939045 
	C545.624207,35.625164 547.814941,34.570621 549.531494,34.324936 
	C549.195435,32.796768 549.069641,31.173979 548.441345,29.777300 
	C548.086304,28.988100 546.926697,28.537258 546.092285,27.990826 
	C533.974548,20.054661 517.530212,20.839754 505.833191,29.902534 
	C493.339874,39.582306 488.306976,56.687954 493.807709,71.715172 
	C503.518494,98.243568 532.407166,101.259888 547.628418,89.567413 
	C549.019104,88.499115 550.235901,85.241180 549.606812,83.911873 
	C548.262268,81.070755 545.846802,82.591362 543.758667,83.947159 
	C529.760925,93.035576 516.142395,91.036423 504.620361,77.754433 
M453.751617,64.023270 
	C449.379852,50.482883 439.500885,43.693596 425.982697,44.939156 
	C415.520142,45.903172 406.749329,53.698597 404.353516,64.162971 
	C401.805634,75.291801 406.434418,86.617416 415.835388,92.256599 
	C424.793640,97.630219 436.344269,96.400452 444.539581,89.231483 
	C445.189423,88.663033 445.992126,88.269318 447.183197,87.496185 
	C447.183197,89.096191 446.817413,90.310120 447.259338,91.024200 
	C448.180969,92.513474 449.529480,93.738564 450.702637,95.072197 
	C451.933105,93.635353 454.194153,92.219963 454.224548,90.758141 
	C454.404236,82.124725 454.065460,73.480530 453.751617,64.023270 
M295.153198,71.936348 
	C295.586792,71.075592 296.311768,70.246475 296.409241,69.349213 
	C297.473145,59.552612 290.646545,48.914047 281.174805,45.998219 
	C272.641815,43.371387 264.542664,44.541233 257.803284,50.643364 
	C250.151398,57.571720 248.463211,66.649529 250.453583,76.309418 
	C254.069656,93.859268 275.672760,101.675163 289.981110,90.694977 
	C291.178528,89.776108 291.333801,87.499275 291.973267,85.853355 
	C290.218994,85.665054 288.369537,85.043480 286.735474,85.402451 
	C284.858826,85.814705 283.252441,87.329613 281.391357,87.960953 
	C269.354309,92.044357 257.272156,84.632385 257.060120,72.362076 
	C269.523193,72.362076 281.979218,72.362076 295.153198,71.936348 
M772.059753,44.989017 
	C771.727661,44.963100 771.395996,44.926052 771.063416,44.912888 
	C759.026184,44.436188 750.359497,49.696373 746.513184,59.811123 
	C742.321533,70.834366 745.418518,83.617203 753.902405,90.310036 
	C762.229736,96.879440 775.334351,97.360779 784.312622,91.105995 
	C785.721436,90.124504 787.333801,87.346596 786.873291,86.181099 
	C785.718933,83.259071 783.323425,84.373680 781.083923,85.658501 
	C778.946289,86.884895 776.631958,88.011726 774.251648,88.571251 
	C762.752380,91.274254 751.642090,83.341110 752.271423,72.688461 
	C763.554382,72.688461 774.862305,72.590302 786.167053,72.739189 
	C790.392700,72.794846 791.735107,71.065590 791.414734,66.983871 
	C790.523560,55.627190 784.364807,48.193127 772.059753,44.989017 
M563.983032,86.469315 
	C571.632996,95.199379 581.244202,97.482758 592.037048,94.241020 
	C601.919250,91.272789 607.548218,84.080681 608.872803,73.964272 
	C610.261780,63.356289 606.728271,54.540588 597.538574,48.578533 
	C587.823547,42.275623 573.685181,43.875114 565.717163,51.938610 
	C556.998962,60.761276 556.115234,74.587013 563.983032,86.469315 
M692.299622,81.445206 
	C692.301636,76.116821 692.223511,70.786896 692.325684,65.460426 
	C692.457214,58.605892 696.257568,53.817120 702.810242,51.999554 
	C714.727539,48.693970 723.976624,55.246677 724.400879,67.555000 
	C724.664551,75.205780 724.282837,82.881134 724.640564,90.524384 
	C724.713623,92.084396 726.795044,93.550400 727.950623,95.059753 
	C729.135864,93.577423 731.306091,92.119881 731.344116,90.608673 
	C731.565918,81.796135 731.689087,72.943016 731.076721,64.157204 
	C730.305664,53.094734 722.146484,45.694378 711.102966,44.865582 
	C704.249146,44.351204 698.392761,46.547306 692.877930,51.228336 
	C692.595703,50.013660 692.648193,49.073219 692.205078,48.563683 
	C691.125427,47.321796 689.815918,46.279667 688.598999,45.157108 
	C687.476807,46.400776 685.399963,47.628479 685.378784,48.890553 
	C685.142212,63.039387 685.126099,77.195251 685.381958,91.343254 
	C685.404785,92.605339 687.747437,93.825478 689.012756,95.065071 
	C690.104858,93.681328 691.854309,92.421936 692.144775,90.886551 
	C692.661804,88.153015 692.296143,85.252495 692.299622,81.445206 
M629.605896,93.680435 
	C629.811401,84.388023 630.020874,75.095688 630.221191,65.803162 
	C630.367249,59.026073 633.748840,54.294559 639.932312,52.239285 
	C651.993835,48.230255 661.985962,55.077267 662.304077,67.734322 
	C662.492371,75.224030 662.131470,82.733528 662.523926,90.207550 
	C662.611938,91.884384 664.815002,93.450172 666.044373,95.067093 
	C667.158386,93.529190 669.186768,92.018753 669.233887,90.448784 
	C669.488647,81.966843 669.566223,73.453255 669.109680,64.982651 
	C668.475647,53.218571 660.112549,44.784603 648.376282,45.102367 
	C642.273071,45.267612 636.238708,47.970615 630.869202,49.348644 
	C629.613892,48.218834 627.939087,46.711491 626.264343,45.204174 
	C625.213745,47.183731 623.296631,49.144630 623.253540,51.145863 
	C622.977539,63.963497 623.074463,76.790169 623.132324,89.613495 
	C623.155090,94.664505 624.223145,95.437912 629.605896,93.680435 
M352.944702,94.278252 
	C353.324158,93.561249 354.032776,92.844490 354.033325,92.127228 
	C354.040344,82.472794 354.490570,72.775154 353.726318,63.176167 
	C352.988281,53.906624 346.362213,47.325279 337.290314,45.369022 
	C329.146423,43.612869 321.835846,45.599884 316.531464,50.409309 
	C314.522125,48.413727 312.930450,45.492805 311.253418,45.442940 
	C307.622711,45.334972 307.978363,48.792938 307.979279,51.467068 
	C307.983704,64.291779 307.855682,77.119217 308.131744,89.937996 
	C308.169067,91.670967 310.003845,94.578850 311.389313,94.829979 
	C314.839722,95.455383 315.052979,92.464531 315.046844,89.807442 
	C315.028076,81.646309 315.054108,73.485085 315.043091,65.323929 
	C315.034973,59.315289 317.977814,55.236721 323.323120,52.830990 
	C335.371521,47.408413 346.831787,54.556038 347.085236,67.706734 
	C347.229645,75.198975 347.119019,82.696144 347.122437,90.191093 
	C347.123993,93.630318 348.316498,95.739075 352.944702,94.278252 
M838.153076,50.336620 
	C829.124634,43.597649 818.329712,42.883961 809.789551,48.461433 
	C801.107361,54.131641 796.947083,65.177650 799.365173,76.139069 
	C803.228516,93.651756 824.451782,101.798012 838.261780,90.921196 
	C839.554077,89.903313 839.744019,87.485657 840.445801,85.717903 
	C838.567505,85.680557 836.678711,85.515472 834.816223,85.669632 
	C834.085999,85.730080 833.456177,86.594162 832.710571,86.942154 
	C825.667236,90.229355 818.811951,90.047668 812.482422,85.317444 
	C806.546631,80.881516 804.154175,72.043655 806.405396,64.005562 
	C808.441162,56.736916 813.598755,52.150055 820.842041,51.395184 
	C826.669434,50.787872 831.500427,52.841637 835.805298,56.832424 
	C836.833496,57.785534 839.211365,57.282719 840.968445,57.449554 
	C840.777100,55.844971 840.731873,54.202370 840.328674,52.652878 
	C840.145081,51.947334 839.253906,51.425919 838.153076,50.336620 
M858.083374,73.421661 
	C858.214478,76.077370 858.062317,78.783997 858.528809,81.379402 
	C860.037048,89.770317 866.599976,95.081024 875.044128,95.129074 
	C877.742249,95.144417 880.415588,94.912216 880.511414,91.564354 
	C880.609192,88.148827 877.973083,87.982140 875.249268,87.866470 
	C869.702148,87.630905 865.859985,84.884781 865.546448,79.714043 
	C865.018066,71.000633 865.401672,62.231918 865.401672,53.167919 
	C868.778442,53.167919 871.800537,53.480358 874.705872,53.033569 
	C876.118591,52.816307 877.313110,51.179657 878.606445,50.185574 
	C877.263000,49.073650 876.039124,47.249706 874.550903,46.999660 
	C871.554199,46.496189 868.413635,46.849812 865.117920,46.849812 
	C865.117920,42.088753 865.100647,38.104549 865.123962,34.120583 
	C865.139343,31.498602 865.108154,28.730682 861.522827,28.828205 
	C857.958740,28.925150 858.097168,31.794876 858.088745,34.341637 
	C858.075134,38.429794 858.085022,42.518028 858.085022,46.001423 
	C854.691895,47.976963 849.385498,44.680908 849.294678,49.895531 
	C849.192810,55.739105 855.443298,51.520702 858.083191,54.170502 
	C858.083191,60.136112 858.083191,66.290009 858.083374,73.421661 
M372.827728,71.470993 
	C372.872772,74.297127 372.737030,77.139969 372.996307,79.946312 
	C373.824493,88.912071 380.746704,95.096565 389.737183,95.119118 
	C392.368652,95.125717 395.045288,95.065376 395.154724,91.565147 
	C395.266907,87.977211 392.610413,88.006653 389.955536,87.880402 
	C384.575043,87.624535 380.621552,84.983696 380.352844,80.246056 
	C379.849487,71.371452 380.208008,62.447960 380.208008,53.172657 
	C383.190979,53.172657 385.897980,53.545738 388.430847,53.042427 
	C390.139679,52.702858 391.602875,51.127087 393.175934,50.104305 
	C391.665436,49.018440 390.276520,47.314102 388.616669,46.987728 
	C385.945221,46.462440 383.094910,46.846714 379.887024,46.846714 
	C379.887024,41.993671 379.888062,37.704502 379.886566,33.415329 
	C379.885681,30.791538 379.038727,28.306885 376.057098,29.007961 
	C374.703308,29.326284 373.150238,31.871328 372.978302,33.539330 
	C372.541504,37.776737 372.833099,42.089218 372.833099,45.953918 
	C369.742462,48.200825 364.031982,44.443668 364.024597,50.003632 
	C364.017151,55.575684 369.736969,51.813869 372.827728,54.073891 
	C372.827728,59.262993 372.827728,64.872467 372.827728,71.470993 
M473.626373,30.819004 
	C473.626160,30.486046 473.636322,30.152706 473.624084,29.820189 
	C473.521881,27.041597 474.123138,23.455408 469.950073,23.532362 
	C466.120880,23.602972 466.662323,26.989344 466.660522,29.614075 
	C466.649292,45.929344 466.478851,62.248016 466.789917,78.557381 
	C466.862854,82.379913 467.976654,86.478455 469.702423,89.899796 
	C471.932526,94.321083 476.408020,95.804726 481.227722,94.909111 
	C482.435242,94.684723 484.056000,92.882866 484.171661,91.679626 
	C484.281799,90.533432 482.918365,88.474983 481.782898,88.104485 
	C474.263306,85.650955 473.664307,85.103622 473.640778,77.193718 
	C473.595703,62.043953 473.626984,46.893955 473.626373,30.819004 
z"/>
<path fill="#BDBEC0" opacity="1.000000" stroke="none" 
	d="
M11.499640,66.517654 
	C8.460819,52.927647 6.158786,39.707607 8.976944,26.146196 
	C10.293478,19.810833 13.404236,15.626705 19.855120,13.253444 
	C34.273003,7.949148 47.995224,9.443142 61.328552,16.236391 
	C65.446587,18.334505 68.903091,18.478407 73.040504,16.350065 
	C86.354950,9.500940 100.060349,7.979500 114.511673,13.154481 
	C121.410057,15.624779 124.526581,20.159449 125.766350,26.892122 
	C128.363770,40.997627 126.611320,54.887508 122.412521,68.251770 
	C118.694351,80.086281 113.346893,91.412994 108.602997,102.916176 
	C107.988388,104.406517 106.780998,105.700348 105.678734,106.933777 
	C99.170494,114.216431 94.097458,113.518105 88.703842,105.366982 
	C84.683632,99.291435 80.263626,93.386581 75.350044,88.020729 
	C69.719872,81.872345 64.897079,81.835228 59.214767,87.988213 
	C54.285770,93.325478 49.950268,99.292786 45.921581,105.359566 
	C40.426514,113.634552 34.184216,114.776146 28.812534,106.439621 
	C23.206211,97.738945 19.386456,87.856743 15.109137,78.345604 
	C13.488322,74.741531 12.770329,70.731430 11.499640,66.517654 
M116.411530,17.964071 
	C110.007774,14.317719 103.151230,12.353696 95.862656,14.001855 
	C87.931030,15.795424 80.009895,17.831488 72.337517,20.492283 
	C68.528625,21.813211 65.434799,21.576099 61.811859,20.338902 
	C55.218525,18.087343 48.570744,15.696330 41.746727,14.476523 
	C22.981560,11.122214 11.320748,17.062263 11.693336,38.599998 
	C12.094387,61.783096 19.789433,82.547028 30.348402,102.611343 
	C30.877422,103.616592 31.737293,104.486061 32.570168,105.286560 
	C36.544350,109.106239 40.232979,108.907494 43.591549,104.634796 
	C44.718266,103.201416 45.404434,101.400330 46.613674,100.056892 
	C52.140404,93.916893 57.695889,87.797493 63.421841,81.844612 
	C65.843376,79.327103 68.796806,79.091949 71.296776,81.889290 
	C77.580948,88.920990 84.049568,95.816887 89.899147,103.199158 
	C94.977303,109.607880 100.353165,109.635506 104.293976,102.442459 
	C106.373352,98.647041 108.321770,94.769974 110.133156,90.839371 
	C117.800552,74.201523 122.962097,56.858047 122.857811,38.417927 
	C122.818359,31.442467 122.791817,23.950914 116.411530,17.964071 
z"/>
<path fill="#F4F4F6" opacity="1.000000" stroke="none" 
	d="
M238.616119,61.694000 
	C235.997726,83.630821 223.160858,95.065041 201.558762,95.115067 
	C197.068756,95.125465 192.576370,95.027023 188.089478,95.145226 
	C184.794434,95.232033 183.077209,93.929161 183.079437,90.522896 
	C183.093079,69.735779 182.998886,48.947601 183.250473,28.163527 
	C183.270035,26.547503 185.646866,23.594273 186.951218,23.581261 
	C195.399765,23.496986 204.064636,22.998343 212.263824,24.625204 
	C229.227585,27.991100 238.725311,41.931179 238.616119,61.694000 
M221.319672,36.113811 
	C212.124496,28.315231 201.237366,29.915726 190.455200,30.116226 
	C190.455200,49.802540 190.455200,69.034363 190.455200,88.222908 
	C209.055573,91.169090 222.221207,85.946732 228.500656,73.277023 
	C234.488495,61.195683 231.741119,46.007149 221.319672,36.113811 
z"/>
<path fill="#F2F2F4" opacity="1.000000" stroke="none" 
	d="
M504.835693,78.047668 
	C516.142395,91.036423 529.760925,93.035576 543.758667,83.947159 
	C545.846802,82.591362 548.262268,81.070755 549.606812,83.911873 
	C550.235901,85.241180 549.019104,88.499115 547.628418,89.567413 
	C532.407166,101.259888 503.518494,98.243568 493.807709,71.715172 
	C488.306976,56.687954 493.339874,39.582306 505.833191,29.902534 
	C517.530212,20.839754 533.974548,20.054661 546.092285,27.990826 
	C546.926697,28.537258 548.086304,28.988100 548.441345,29.777300 
	C549.069641,31.173979 549.195435,32.796768 549.531494,34.324936 
	C547.814941,34.570621 545.624207,35.625164 544.453979,34.939045 
	C529.968384,26.445688 517.410034,27.308050 507.293335,37.793411 
	C496.941711,48.522293 495.891388,64.224777 504.835693,78.047668 
z"/>
<path fill="#F3F3F5" opacity="1.000000" stroke="none" 
	d="
M453.826416,64.431610 
	C454.065460,73.480530 454.404236,82.124725 454.224548,90.758141 
	C454.194153,92.219963 451.933105,93.635353 450.702637,95.072189 
	C449.529480,93.738564 448.180969,92.513474 447.259338,91.024200 
	C446.817413,90.310120 447.183197,89.096191 447.183197,87.496185 
	C445.992126,88.269318 445.189423,88.663033 444.539581,89.231483 
	C436.344269,96.400452 424.793640,97.630219 415.835388,92.256599 
	C406.434418,86.617416 401.805634,75.291801 404.353516,64.162971 
	C406.749329,53.698597 415.520142,45.903172 425.982697,44.939156 
	C439.500885,43.693596 449.379852,50.482883 453.826416,64.431610 
M444.720703,60.076851 
	C438.969391,52.177288 430.965179,49.391117 422.595673,52.375389 
	C415.169586,55.023273 410.479645,62.221367 410.668640,70.681000 
	C410.862366,79.353714 415.965057,86.340652 424.010712,88.393158 
	C431.351105,90.265747 438.018341,88.682686 442.921295,82.717712 
	C448.422821,76.024452 448.658630,68.509560 444.720703,60.076851 
z"/>
<path fill="#F1F1F4" opacity="1.000000" stroke="none" 
	d="
M294.794189,72.149216 
	C281.979218,72.362076 269.523193,72.362076 257.060120,72.362076 
	C257.272156,84.632385 269.354309,92.044357 281.391357,87.960953 
	C283.252441,87.329613 284.858826,85.814705 286.735474,85.402451 
	C288.369537,85.043480 290.218994,85.665054 291.973267,85.853348 
	C291.333801,87.499275 291.178528,89.776108 289.981110,90.694977 
	C275.672760,101.675163 254.069656,93.859268 250.453583,76.309418 
	C248.463211,66.649529 250.151398,57.571720 257.803284,50.643364 
	C264.542664,44.541233 272.641815,43.371387 281.174805,45.998219 
	C290.646545,48.914047 297.473145,59.552612 296.409241,69.349213 
	C296.311768,70.246475 295.586792,71.075592 294.794189,72.149216 
M285.369690,56.168896 
	C279.896820,50.697826 273.391449,49.909367 266.571014,52.722542 
	C260.573761,55.196201 257.717987,60.258698 256.738953,66.606529 
	C267.975800,66.606529 278.786072,66.606529 290.632660,66.606529 
	C288.819397,62.861691 287.335846,59.797794 285.369690,56.168896 
z"/>
<path fill="#F1F1F4" opacity="1.000000" stroke="none" 
	d="
M772.493652,45.040295 
	C784.364807,48.193127 790.523560,55.627190 791.414734,66.983871 
	C791.735107,71.065590 790.392700,72.794846 786.167053,72.739189 
	C774.862305,72.590302 763.554382,72.688461 752.271423,72.688461 
	C751.642090,83.341110 762.752380,91.274254 774.251648,88.571251 
	C776.631958,88.011726 778.946289,86.884895 781.083923,85.658501 
	C783.323425,84.373680 785.718933,83.259071 786.873291,86.181099 
	C787.333801,87.346596 785.721436,90.124504 784.312622,91.105995 
	C775.334351,97.360779 762.229736,96.879440 753.902405,90.310036 
	C745.418518,83.617203 742.321533,70.834366 746.513184,59.811123 
	C750.359497,49.696373 759.026184,44.436188 771.063416,44.912888 
	C771.395996,44.926052 771.727661,44.963100 772.493652,45.040295 
M761.544861,66.955421 
	C769.184937,66.955421 776.825073,66.955421 784.485718,66.955421 
	C783.682312,57.148865 777.435547,51.143513 768.407288,51.232380 
	C759.385071,51.321194 752.619019,57.726547 752.130859,66.955421 
	C754.945740,66.955421 757.753540,66.955421 761.544861,66.955421 
z"/>
<path fill="#F3F3F5" opacity="1.000000" stroke="none" 
	d="
M563.765015,86.180618 
	C556.115234,74.587013 556.998962,60.761276 565.717163,51.938610 
	C573.685181,43.875114 587.823547,42.275623 597.538574,48.578533 
	C606.728271,54.540588 610.261780,63.356289 608.872803,73.964272 
	C607.548218,84.080681 601.919250,91.272789 592.037048,94.241020 
	C581.244202,97.482758 571.632996,95.199379 563.765015,86.180618 
M575.824341,53.000526 
	C566.262146,58.540096 562.727905,68.963524 567.148926,78.586655 
	C571.024841,87.023376 580.793823,91.144745 589.799866,88.142677 
	C599.557800,84.889992 604.545288,74.187653 601.166687,63.751705 
	C597.842468,53.483788 588.155945,49.136528 575.824341,53.000526 
z"/>
<path fill="#F4F4F6" opacity="1.000000" stroke="none" 
	d="
M692.299683,81.933502 
	C692.296143,85.252495 692.661804,88.153015 692.144775,90.886551 
	C691.854309,92.421936 690.104858,93.681328 689.012756,95.065086 
	C687.747437,93.825478 685.404785,92.605339 685.381958,91.343254 
	C685.126099,77.195251 685.142212,63.039387 685.378784,48.890553 
	C685.399963,47.628479 687.476807,46.400776 688.598999,45.157104 
	C689.815918,46.279667 691.125427,47.321796 692.205078,48.563683 
	C692.648193,49.073219 692.595703,50.013660 692.877930,51.228336 
	C698.392761,46.547306 704.249146,44.351204 711.102966,44.865582 
	C722.146484,45.694378 730.305664,53.094734 731.076721,64.157204 
	C731.689087,72.943016 731.565918,81.796135 731.344116,90.608673 
	C731.306091,92.119881 729.135864,93.577423 727.950623,95.059753 
	C726.795044,93.550400 724.713623,92.084396 724.640564,90.524384 
	C724.282837,82.881134 724.664551,75.205780 724.400879,67.555000 
	C723.976624,55.246677 714.727539,48.693970 702.810242,51.999554 
	C696.257568,53.817120 692.457214,58.605892 692.325684,65.460426 
	C692.223511,70.786896 692.301636,76.116821 692.299683,81.933502 
z"/>
<path fill="#F2F2F5" opacity="1.000000" stroke="none" 
	d="
M629.304199,93.995575 
	C624.223145,95.437912 623.155090,94.664505 623.132324,89.613495 
	C623.074463,76.790169 622.977539,63.963497 623.253540,51.145863 
	C623.296631,49.144630 625.213745,47.183731 626.264282,45.204163 
	C627.939087,46.711491 629.613892,48.218834 630.869202,49.348644 
	C636.238708,47.970615 642.273071,45.267612 648.376282,45.102367 
	C660.112549,44.784603 668.475647,53.218571 669.109680,64.982651 
	C669.566223,73.453255 669.488647,81.966843 669.233887,90.448784 
	C669.186768,92.018753 667.158386,93.529190 666.044373,95.067085 
	C664.815002,93.450172 662.611938,91.884384 662.523926,90.207550 
	C662.131470,82.733528 662.492371,75.224030 662.304077,67.734322 
	C661.985962,55.077267 651.993835,48.230255 639.932312,52.239285 
	C633.748840,54.294559 630.367249,59.026073 630.221191,65.803162 
	C630.020874,75.095688 629.811401,84.388023 629.304199,93.995575 
z"/>
<path fill="#F4F4F6" opacity="1.000000" stroke="none" 
	d="
M352.598206,94.534058 
	C348.316498,95.739075 347.123993,93.630318 347.122437,90.191093 
	C347.119019,82.696144 347.229645,75.198975 347.085236,67.706734 
	C346.831787,54.556038 335.371521,47.408413 323.323120,52.830990 
	C317.977814,55.236721 315.034973,59.315289 315.043091,65.323929 
	C315.054108,73.485085 315.028076,81.646309 315.046844,89.807442 
	C315.052979,92.464531 314.839722,95.455383 311.389313,94.829979 
	C310.003845,94.578850 308.169067,91.670967 308.131744,89.937996 
	C307.855682,77.119217 307.983704,64.291779 307.979279,51.467068 
	C307.978363,48.792938 307.622711,45.334972 311.253418,45.442940 
	C312.930450,45.492805 314.522125,48.413727 316.531464,50.409309 
	C321.835846,45.599884 329.146423,43.612869 337.290314,45.369022 
	C346.362213,47.325279 352.988281,53.906624 353.726318,63.176167 
	C354.490570,72.775154 354.040344,82.472794 354.033325,92.127228 
	C354.032776,92.844490 353.324158,93.561249 352.598206,94.534058 
z"/>
<path fill="#F1F1F3" opacity="1.000000" stroke="none" 
	d="
M838.418396,50.578804 
	C839.253906,51.425919 840.145081,51.947334 840.328674,52.652878 
	C840.731873,54.202370 840.777100,55.844971 840.968445,57.449554 
	C839.211365,57.282719 836.833496,57.785534 835.805298,56.832424 
	C831.500427,52.841637 826.669434,50.787872 820.842041,51.395184 
	C813.598755,52.150055 808.441162,56.736916 806.405396,64.005562 
	C804.154175,72.043655 806.546631,80.881516 812.482422,85.317444 
	C818.811951,90.047668 825.667236,90.229355 832.710571,86.942154 
	C833.456177,86.594162 834.085999,85.730080 834.816223,85.669632 
	C836.678711,85.515472 838.567505,85.680557 840.445801,85.717896 
	C839.744019,87.485657 839.554077,89.903313 838.261780,90.921196 
	C824.451782,101.798012 803.228516,93.651756 799.365173,76.139069 
	C796.947083,65.177650 801.107361,54.131641 809.789551,48.461433 
	C818.329712,42.883961 829.124634,43.597649 838.418396,50.578804 
z"/>
<path fill="#F5F5F7" opacity="1.000000" stroke="none" 
	d="
M858.083252,72.932785 
	C858.083191,66.290009 858.083191,60.136112 858.083191,54.170502 
	C855.443298,51.520702 849.192810,55.739105 849.294678,49.895531 
	C849.385498,44.680908 854.691895,47.976963 858.085022,46.001423 
	C858.085022,42.518028 858.075134,38.429794 858.088745,34.341637 
	C858.097168,31.794876 857.958740,28.925150 861.522827,28.828205 
	C865.108154,28.730682 865.139343,31.498602 865.123962,34.120583 
	C865.100647,38.104549 865.117920,42.088753 865.117920,46.849812 
	C868.413635,46.849812 871.554199,46.496189 874.550903,46.999660 
	C876.039124,47.249706 877.263000,49.073650 878.606445,50.185562 
	C877.313110,51.179657 876.118591,52.816307 874.705872,53.033569 
	C871.800537,53.480358 868.778442,53.167919 865.401672,53.167919 
	C865.401672,62.231918 865.018066,71.000633 865.546448,79.714043 
	C865.859985,84.884781 869.702148,87.630905 875.249268,87.866470 
	C877.973083,87.982140 880.609192,88.148827 880.511414,91.564354 
	C880.415588,94.912216 877.742249,95.144417 875.044128,95.129074 
	C866.599976,95.081024 860.037048,89.770317 858.528809,81.379402 
	C858.062317,78.783997 858.214478,76.077370 858.083252,72.932785 
z"/>
<path fill="#F4F5F7" opacity="1.000000" stroke="none" 
	d="
M372.827728,70.976463 
	C372.827728,64.872467 372.827728,59.262993 372.827728,54.073891 
	C369.736969,51.813869 364.017151,55.575684 364.024597,50.003632 
	C364.031982,44.443668 369.742462,48.200825 372.833099,45.953918 
	C372.833099,42.089218 372.541504,37.776737 372.978302,33.539330 
	C373.150238,31.871328 374.703308,29.326284 376.057098,29.007961 
	C379.038727,28.306885 379.885681,30.791538 379.886566,33.415329 
	C379.888062,37.704502 379.887024,41.993671 379.887024,46.846714 
	C383.094910,46.846714 385.945221,46.462440 388.616669,46.987728 
	C390.276520,47.314102 391.665436,49.018440 393.175934,50.104301 
	C391.602875,51.127087 390.139679,52.702858 388.430847,53.042427 
	C385.897980,53.545738 383.190979,53.172657 380.208008,53.172657 
	C380.208008,62.447960 379.849487,71.371452 380.352844,80.246056 
	C380.621552,84.983696 384.575043,87.624535 389.955536,87.880402 
	C392.610413,88.006653 395.266907,87.977211 395.154724,91.565147 
	C395.045288,95.065376 392.368652,95.125717 389.737183,95.119118 
	C380.746704,95.096565 373.824493,88.912071 372.996307,79.946312 
	C372.737030,77.139969 372.872772,74.297127 372.827728,70.976463 
z"/>
<path fill="#F0F0F3" opacity="1.000000" stroke="none" 
	d="
M473.626465,31.281530 
	C473.626984,46.893955 473.595703,62.043953 473.640778,77.193718 
	C473.664307,85.103622 474.263306,85.650955 481.782898,88.104485 
	C482.918365,88.474983 484.281799,90.533432 484.171661,91.679626 
	C484.056000,92.882866 482.435242,94.684723 481.227722,94.909111 
	C476.408020,95.804726 471.932526,94.321083 469.702423,89.899796 
	C467.976654,86.478455 466.862854,82.379913 466.789917,78.557381 
	C466.478851,62.248016 466.649292,45.929344 466.660522,29.614075 
	C466.662323,26.989344 466.120880,23.602972 469.950073,23.532362 
	C474.123138,23.455408 473.521881,27.041597 473.624084,29.820189 
	C473.636322,30.152706 473.626160,30.486046 473.626465,31.281530 
z"/>
<path fill="#FDFDFD" opacity="1.000000" stroke="none" 
	d="
M116.709373,18.192978 
	C122.791817,23.950914 122.818359,31.442467 122.857811,38.417927 
	C122.962097,56.858047 117.800552,74.201523 110.133156,90.839371 
	C108.321770,94.769974 106.373352,98.647041 104.293976,102.442459 
	C100.353165,109.635506 94.977303,109.607880 89.899147,103.199158 
	C84.049568,95.816887 77.580948,88.920990 71.296776,81.889290 
	C68.796806,79.091949 65.843376,79.327103 63.421841,81.844612 
	C57.695889,87.797493 52.140404,93.916893 46.613674,100.056892 
	C45.404434,101.400330 44.718266,103.201416 43.591549,104.634796 
	C40.232979,108.907494 36.544350,109.106239 32.570168,105.286560 
	C31.737293,104.486061 30.877422,103.616592 30.348402,102.611343 
	C19.789433,82.547028 12.094387,61.783096 11.693336,38.599998 
	C11.320748,17.062263 22.981560,11.122214 41.746727,14.476523 
	C48.570744,15.696330 55.218525,18.087343 61.811859,20.338902 
	C65.434799,21.576099 68.528625,21.813211 72.337517,20.492283 
	C80.009895,17.831488 87.931030,15.795424 95.862656,14.001855 
	C103.151230,12.353696 110.007774,14.317719 116.709373,18.192978 
M52.318081,62.252979 
	C49.117050,59.884220 45.766888,57.688023 42.762550,55.091663 
	C40.393555,53.044369 39.028427,54.206314 38.271870,56.235081 
	C37.736889,57.669662 37.477642,60.347324 38.265667,60.956779 
	C45.325794,66.417053 52.645714,71.541412 60.308311,77.066750 
	C71.448280,63.427322 82.401665,50.016346 93.445442,36.494694 
	C91.747437,34.364120 90.338242,32.595921 88.518211,30.312237 
	C78.284386,42.743649 68.448868,54.691227 58.539013,66.729111 
	C56.392811,65.208084 54.635651,63.962772 52.318081,62.252979 
z"/>
<path fill="#0C133C" opacity="1.000000" stroke="none" 
	d="
M221.592102,36.351902 
	C231.741119,46.007149 234.488495,61.195683 228.500656,73.277023 
	C222.221207,85.946732 209.055573,91.169090 190.455200,88.222908 
	C190.455200,69.034363 190.455200,49.802540 190.455200,30.116226 
	C201.237366,29.915726 212.124496,28.315231 221.592102,36.351902 
z"/>
<path fill="#0C133C" opacity="1.000000" stroke="none" 
	d="
M444.895752,60.423672 
	C448.658630,68.509560 448.422821,76.024452 442.921295,82.717712 
	C438.018341,88.682686 431.351105,90.265747 424.010712,88.393158 
	C415.965057,86.340652 410.862366,79.353714 410.668640,70.681000 
	C410.479645,62.221367 415.169586,55.023273 422.595673,52.375389 
	C430.965179,49.391117 438.969391,52.177288 444.895752,60.423672 
z"/>
<path fill="#0F163F" opacity="1.000000" stroke="none" 
	d="
M285.611023,56.451397 
	C287.335846,59.797794 288.819397,62.861691 290.632660,66.606529 
	C278.786072,66.606529 267.975800,66.606529 256.738953,66.606529 
	C257.717987,60.258698 260.573761,55.196201 266.571014,52.722542 
	C273.391449,49.909367 279.896820,50.697826 285.611023,56.451397 
z"/>
<path fill="#0F163F" opacity="1.000000" stroke="none" 
	d="
M761.053101,66.955421 
	C757.753540,66.955421 754.945740,66.955421 752.130859,66.955421 
	C752.619019,57.726547 759.385071,51.321194 768.407288,51.232380 
	C777.435547,51.143513 783.682312,57.148865 784.485718,66.955421 
	C776.825073,66.955421 769.184937,66.955421 761.053101,66.955421 
z"/>
<path fill="#0D143D" opacity="1.000000" stroke="none" 
	d="
M576.180908,52.849422 
	C588.155945,49.136528 597.842468,53.483788 601.166687,63.751705 
	C604.545288,74.187653 599.557800,84.889992 589.799866,88.142677 
	C580.793823,91.144745 571.024841,87.023376 567.148926,78.586655 
	C562.727905,68.963524 566.262146,58.540096 576.180908,52.849422 
z"/>
<path fill="#14193D" opacity="1.000000" stroke="none" 
	d="
M52.598286,62.485222 
	C54.635651,63.962772 56.392811,65.208084 58.539013,66.729111 
	C68.448868,54.691227 78.284386,42.743649 88.518211,30.312237 
	C90.338242,32.595921 91.747437,34.364120 93.445442,36.494694 
	C82.401665,50.016346 71.448280,63.427322 60.308311,77.066750 
	C52.645714,71.541412 45.325794,66.417053 38.265667,60.956779 
	C37.477642,60.347324 37.736889,57.669662 38.271870,56.235081 
	C39.028427,54.206314 40.393555,53.044369 42.762550,55.091663 
	C45.766888,57.688023 49.117050,59.884220 52.598286,62.485222 
z"/>
</svg>