<svg version="1.1" id="Layer_1" xmlns="http://www.w3.org/2000/svg" xmlns:xlink="http://www.w3.org/1999/xlink" x="0px" y="0px"
	 width="100%" viewBox="0 0 1302 1118" enable-background="new 0 0 1302 1118" xml:space="preserve">
<path fill="#080E39" opacity="1.000000" stroke="none" 
	d="
M1.000000,399.000000 
	C1.000000,267.500000 1.018639,136.499985 0.905770,5.500081 
	C0.902539,1.750535 1.750947,0.906215 5.500021,0.907073 
	C436.500000,1.005699 867.500000,1.005699 1298.500000,0.907073 
	C1302.249023,0.906215 1303.094116,1.750920 1303.093140,5.500025 
	C1302.993408,375.166656 1302.993408,744.833313 1303.093140,1114.500000 
	C1303.094116,1118.249023 1302.249023,1119.093872 1298.500000,1119.093018 
	C867.500000,1118.994385 436.500000,1118.994385 5.500022,1119.093018 
	C1.750948,1119.093872 0.904970,1118.249146 0.906602,1114.500000 
	C1.010293,876.166687 1.000000,637.833313 1.000000,399.000000 
z"/>
<path fill="#C2C3C4" opacity="1.000000" stroke="none" 
	d="
M1257.201782,379.624207 
	C1257.127930,392.889648 1257.151855,405.721558 1257.070068,418.552795 
	C1257.059082,420.276825 1258.166138,422.608551 1254.834351,423.108826 
	C1253.213013,423.352325 1253.979980,425.373993 1253.969238,426.578064 
	C1253.896118,434.743500 1253.942993,442.909912 1253.897949,451.075714 
	C1253.887817,452.895721 1254.748779,455.209290 1251.357300,455.238251 
	C1249.352173,455.255371 1249.998779,457.196777 1249.980713,458.376465 
	C1249.909424,463.041809 1250.150269,467.719635 1249.892822,472.371643 
	C1249.723145,475.439972 1251.781128,479.411774 1247.017578,481.152069 
	C1246.624512,481.295624 1246.736206,483.007599 1246.730591,483.991516 
	C1246.706421,488.320587 1246.775879,492.650726 1246.704224,496.978699 
	C1246.673706,498.812683 1247.477295,501.049988 1244.407593,501.614349 
	C1242.590942,501.948334 1243.269775,503.768890 1243.249268,504.988770 
	C1243.181885,508.987488 1243.338745,512.992737 1243.176758,516.986023 
	C1243.082397,519.316467 1244.586914,522.529236 1240.187378,522.998657 
	C1238.787231,523.148071 1239.297729,524.943237 1239.280762,526.036133 
	C1239.228760,529.368103 1239.327515,532.702942 1239.244385,536.033630 
	C1239.198730,537.860779 1239.999268,540.078308 1236.914551,540.637817 
	C1235.565796,540.882446 1236.045776,542.607361 1236.027954,543.710693 
	C1235.971436,547.208130 1235.930298,550.708069 1236.004883,554.204529 
	C1236.047852,556.223022 1236.548950,558.243408 1233.384033,558.310242 
	C1231.723511,558.345337 1232.072876,559.956970 1232.059692,561.053650 
	C1232.019409,564.386353 1232.200562,567.729858 1231.987061,571.049316 
	C1231.861694,572.998840 1233.418457,575.730591 1229.552979,576.435608 
	C1228.217285,576.679199 1229.119141,579.146729 1228.841064,580.568665 
	C1228.100586,584.355530 1230.952759,588.899109 1225.818115,591.930054 
	C1224.685303,592.598755 1225.679932,596.653870 1225.447144,599.126343 
	C1225.218750,601.551147 1227.064453,605.057434 1222.318237,605.453491 
	C1221.408203,605.529419 1221.741333,607.184998 1221.523315,608.128723 
	C1220.597290,612.135315 1224.000977,617.053223 1218.406250,620.302551 
	C1217.222778,620.989807 1218.272705,625.348022 1218.099731,628.002197 
	C1217.946777,630.351685 1219.486084,633.675049 1215.083496,633.965881 
	C1214.781128,633.985901 1214.220581,634.738037 1214.287842,635.034485 
	C1215.832520,641.841431 1209.052246,647.122925 1210.870728,654.065308 
	C1211.322876,655.791809 1212.070190,658.530945 1208.573608,659.050110 
	C1207.459473,659.215576 1207.858154,660.699463 1207.695312,661.639404 
	C1207.185181,664.585876 1209.734009,668.686523 1204.265503,669.829102 
	C1203.104980,670.071472 1204.109985,672.618591 1203.731323,674.021973 
	C1202.778809,677.552490 1206.410522,682.426453 1200.628052,684.642029 
	C1200.212158,684.801453 1200.441406,686.512024 1200.276855,687.485535 
	C1199.821289,690.180908 1202.060425,694.024780 1197.002930,694.810852 
	C1196.075439,694.955017 1196.468506,696.568298 1196.313477,697.528381 
	C1195.846436,700.422180 1198.020874,704.232727 1193.387207,705.789978 
	C1192.968140,705.930664 1193.285889,707.967041 1193.076172,709.088379 
	C1192.616089,711.551086 1194.499146,714.718262 1190.418945,716.155945 
	C1189.126709,716.611328 1190.101196,719.241150 1189.871216,720.855347 
	C1189.525024,723.284119 1191.468994,726.951599 1186.615723,727.045776 
	C1186.414917,727.049622 1186.044434,727.512878 1186.053467,727.750854 
	C1186.225342,732.314514 1185.608643,736.437439 1182.770752,740.457458 
	C1181.191650,742.694153 1184.440552,747.498169 1179.112305,748.570190 
	C1178.793091,748.634460 1178.844604,750.382019 1178.666138,751.335571 
	C1178.149048,754.096924 1180.140259,757.630249 1175.675781,759.204651 
	C1174.408203,759.651611 1175.377441,762.290955 1175.176392,763.910400 
	C1174.908569,766.066650 1176.476929,769.284241 1172.178955,769.179565 
	C1171.933960,769.173584 1171.432373,769.637878 1171.465576,769.724792 
	C1173.223267,774.330322 1167.450928,776.444702 1167.884277,780.792908 
	C1168.115845,783.115906 1169.588623,786.586914 1165.222290,787.516968 
	C1164.860596,787.594055 1164.932861,789.632996 1164.772949,790.755981 
	C1164.636108,791.716431 1164.566040,793.468933 1164.277344,793.509033 
	C1158.966553,794.246399 1161.178955,798.309143 1160.850220,801.153625 
	C1160.662598,802.777039 1161.219482,804.547180 1158.700928,804.875000 
	C1157.105469,805.082642 1157.420166,806.563293 1157.366943,807.683594 
	C1157.270264,809.719727 1158.020996,811.889404 1154.524170,812.260193 
	C1152.431274,812.482117 1153.682129,815.067261 1153.423340,816.577942 
	C1153.021606,818.924133 1153.690430,820.950684 1151.112549,823.355408 
	C1149.283081,825.061951 1148.238892,829.532776 1147.019043,832.826904 
	C1145.994507,835.593445 1148.890991,840.026611 1143.386841,840.793213 
	C1143.285767,840.807312 1143.112305,841.087219 1143.146484,841.175171 
	C1145.018921,845.969238 1138.443237,848.206665 1139.620850,852.821167 
	C1139.814575,853.580566 1139.619019,854.771423 1138.575317,854.740845 
	C1135.004272,854.636230 1135.280396,857.311707 1135.820312,859.163086 
	C1136.858521,862.722595 1131.536865,861.338318 1132.142212,864.609924 
	C1132.584717,867.000916 1132.844116,871.295715 1131.844849,871.742310 
	C1128.487549,873.242554 1129.010498,875.640198 1129.027832,878.110413 
	C1129.039185,879.735840 1128.170654,880.073120 1126.825928,880.006958 
	C1125.141235,879.924011 1125.067383,881.072083 1125.014893,882.319092 
	C1124.925537,884.445068 1124.492554,885.937866 1122.821411,887.942993 
	C1120.963257,890.172363 1119.589722,893.709290 1118.272095,896.618408 
	C1116.379395,900.796936 1112.377441,905.051270 1114.477661,910.525635 
	C1109.896362,911.591614 1113.264771,918.698120 1107.900513,919.201294 
	C1107.662476,919.223633 1107.227539,919.729309 1107.277588,919.865967 
	C1108.930054,924.383240 1102.944946,926.577026 1103.940796,930.873413 
	C1103.977417,931.030823 1104.004272,931.308899 1103.927124,931.357361 
	C1099.157959,934.347168 1100.515503,941.751282 1094.815552,944.014709 
	C1093.953491,944.357056 1093.351196,944.644775 1093.296875,945.631653 
	C1093.152344,948.249268 1094.223389,951.548645 1089.857056,951.840210 
	C1089.738525,951.848145 1089.514160,952.115295 1089.540649,952.185242 
	C1091.298950,956.828308 1085.179565,958.963196 1086.002808,963.342529 
	C1086.267944,964.752747 1085.958496,966.035950 1084.004028,965.937012 
	C1082.028687,965.837036 1082.555664,967.547058 1081.950928,968.564026 
	C1079.726562,972.304688 1080.238037,977.386169 1076.188110,980.202087 
	C1075.228149,980.869507 1075.546143,982.012268 1075.531738,982.975159 
	C1075.502930,984.912781 1076.129761,987.173157 1072.890259,987.119141 
	C1071.816528,987.101135 1071.598511,988.131714 1071.679321,988.940918 
	C1072.165894,993.813965 1068.801147,995.838684 1065.299438,997.836548 
	C1064.817505,998.111572 1064.280640,998.806458 1064.271484,999.315979 
	C1064.153687,1005.806580 1059.708984,1009.116943 1054.891602,1012.100464 
	C1054.016968,1012.642212 1053.715576,1013.266968 1053.829834,1014.070984 
	C1054.515991,1018.902222 1051.114502,1020.967773 1047.709473,1022.768311 
	C1045.777344,1023.790039 1045.541992,1025.900757 1044.011597,1027.315552 
	C1039.933472,1031.085693 1035.971069,1035.202637 1032.169189,1039.347778 
	C1028.273682,1043.595093 1024.391724,1048.371338 1019.007202,1051.060913 
	C1017.108276,1052.009399 1019.016418,1054.195312 1016.920898,1055.045166 
	C1014.372742,1056.078735 1012.926636,1058.964600 1009.279358,1058.498169 
	C1006.981567,1058.204224 1007.183350,1062.479980 1004.077209,1063.309204 
	C1002.986084,1063.600464 999.918518,1065.007568 999.408203,1065.912231 
	C997.102051,1070.000977 990.521606,1066.643433 989.430176,1072.083496 
	C989.379700,1072.334961 988.930298,1072.735352 988.742188,1072.696899 
	C983.490295,1071.623535 980.232239,1077.890259 974.562012,1076.315552 
	C972.272400,1075.679932 967.958252,1074.228882 967.403992,1079.464966 
	C967.373962,1079.749390 965.950317,1080.052612 965.171265,1080.063843 
	C961.005798,1080.124023 956.839050,1080.093262 952.672729,1080.096436 
	C951.309937,1080.097534 949.910889,1080.184326 949.991150,1078.159302 
	C950.085999,1075.764648 948.310974,1076.153931 946.866699,1076.133789 
	C944.533875,1076.101196 941.608826,1077.008423 939.987854,1075.931763 
	C936.404663,1073.551880 930.888184,1074.783936 928.752197,1069.853394 
	C928.561523,1069.413086 927.674988,1068.976562 927.157043,1069.024902 
	C924.127319,1069.307861 921.839417,1068.570923 919.981262,1065.818726 
	C918.227600,1063.221313 915.728821,1061.712769 912.091003,1061.788086 
	C911.274536,1061.804810 908.707886,1058.638184 907.184082,1056.818237 
	C903.428833,1052.333374 898.713806,1048.820557 895.007629,1044.404785 
	C892.716370,1041.674927 887.866150,1040.369629 889.054321,1035.145752 
	C889.647461,1032.537476 884.921692,1033.275269 885.437012,1030.334473 
	C882.107788,1030.193970 882.628662,1027.729492 882.725220,1025.666016 
	C882.908020,1021.757202 878.090698,1022.460388 877.014038,1019.451660 
	C876.776733,1018.788574 875.204529,1018.097595 875.225708,1016.603333 
	C875.257385,1014.368286 875.892700,1011.662292 872.131592,1011.814392 
	C871.915710,1011.823181 871.445862,1011.313721 871.491028,1011.187073 
	C873.113464,1006.642212 867.389221,1004.590576 867.899170,1000.213440 
	C868.262878,997.091675 864.813843,995.939148 862.832092,994.398926 
	C861.720032,993.534546 860.573608,993.173645 860.913696,991.673157 
	C861.916626,987.247925 857.856689,986.161438 855.707092,983.942017 
	C855.047607,983.261108 853.407288,983.303894 853.639404,981.805786 
	C854.360779,977.148987 850.650085,975.160095 848.158081,972.431641 
	C847.846680,972.090759 847.160278,971.844116 847.139648,971.522339 
	C846.700623,964.656494 841.152588,961.948792 836.611938,958.397156 
	C836.167542,958.049622 835.730774,957.206543 835.838867,956.713684 
	C836.879944,951.965393 833.029053,950.339722 830.323730,948.042114 
	C829.847046,947.637268 829.126404,947.492065 829.115112,946.749207 
	C829.006958,939.646057 823.376282,936.828308 818.723328,933.223938 
	C818.284912,932.884399 817.814697,931.994812 817.964600,931.578796 
	C819.361511,927.704163 815.820801,924.424988 814.258606,924.016602 
	C810.913635,923.142273 811.968628,917.961853 807.888550,918.678345 
	C807.209900,918.797485 807.194763,917.338196 807.199585,916.528503 
	C807.224365,912.404480 804.002014,910.683716 801.526245,908.192322 
	C799.618774,906.272827 795.816284,905.034363 796.863342,901.249634 
	C797.866760,897.622498 793.679382,895.921143 792.971069,895.660156 
	C788.357849,893.960449 787.928345,887.791321 782.927429,886.887695 
	C781.944763,886.710083 782.056641,885.523804 782.146729,884.764771 
	C782.682129,880.251587 778.927368,879.054688 776.469971,876.550415 
	C773.706909,873.734497 771.205383,870.620239 768.289185,867.876160 
	C764.779358,864.573486 764.239746,858.411499 760.715881,856.212463 
	C755.445068,852.923340 753.537964,846.621704 747.850830,844.123779 
	C745.927185,843.278870 745.720581,840.779053 743.635071,839.418762 
	C738.189270,835.866455 734.547852,830.174377 729.703247,825.757446 
	C726.825439,823.133789 723.393921,820.349060 721.124329,816.817871 
	C720.891235,816.455200 720.413574,816.039368 720.027832,816.016663 
	C713.548401,815.636230 711.161804,810.081665 707.575256,806.103149 
	C706.996887,805.461609 706.589233,804.677002 705.733459,804.818542 
	C700.938538,805.611816 698.795044,802.437134 696.889893,798.965637 
	C696.242004,797.784973 695.248535,798.094971 694.324768,798.058716 
	C692.127686,797.972412 689.399231,798.790710 689.564636,795.001160 
	C689.574463,794.774963 689.077637,794.286743 688.937561,794.328308 
	C683.997131,795.793396 681.253418,789.571472 676.268860,790.784058 
	C674.433960,791.230469 671.788452,791.794006 671.789246,788.126404 
	C671.789612,786.445068 670.055481,786.980652 669.001892,786.952148 
	C666.170715,786.875488 663.336060,786.938416 660.504028,786.880371 
	C659.398254,786.857666 658.320740,787.061035 657.343933,785.962769 
	C654.307251,782.548706 649.665771,782.529175 646.693848,785.836060 
	C644.907532,787.823486 642.613831,786.410156 640.640381,786.940186 
	C637.524109,787.777100 632.671387,784.218872 631.611511,790.430908 
	C631.582642,790.600037 630.977966,790.860046 630.748657,790.778198 
	C625.306641,788.836914 620.730286,792.544250 616.823364,794.567810 
	C613.655823,796.208313 609.736633,797.369690 606.763489,800.150879 
	C604.727234,802.055664 603.372192,806.169678 598.912048,804.842224 
	C596.046875,803.989441 597.054810,807.330811 595.857605,808.434570 
	C593.445374,810.658203 589.606262,811.457520 588.844971,815.387268 
	C588.796814,815.635620 587.986511,815.907227 587.546448,815.883118 
	C581.612549,815.557007 579.043213,820.767395 575.761108,823.983521 
	C573.969666,825.739075 571.537048,827.197632 570.061096,829.708130 
	C566.908630,835.070496 561.588806,838.933594 557.079590,842.839600 
	C552.544922,846.767639 549.887146,852.604614 544.077393,855.446533 
	C542.725159,856.107971 539.043091,858.863647 539.741821,862.713440 
	C540.352173,866.076172 536.365845,867.255981 534.889282,868.615417 
	C530.824585,872.357483 528.064209,877.606262 522.843872,880.104126 
	C522.477722,880.279297 522.024658,880.795837 522.030029,881.147278 
	C522.142029,888.507507 515.242004,890.408325 511.680267,894.911926 
	C509.919495,897.138245 505.712524,898.503174 507.241577,902.869324 
	C508.198761,905.602661 504.958099,904.863037 503.934967,906.204346 
	C501.068237,909.962585 496.084625,912.304321 496.657227,918.160645 
	C492.604340,919.523621 491.231628,923.799805 488.027252,926.055237 
	C487.409332,926.490234 486.265228,926.395691 486.267975,927.425781 
	C486.287415,934.689514 480.059052,937.089172 475.749329,940.958435 
	C475.177032,941.472229 474.872864,941.971130 474.990417,942.589661 
	C475.884613,947.296326 472.723724,949.428528 469.401672,951.426270 
	C468.553925,951.936157 468.103577,952.733032 468.354187,953.470947 
	C469.945740,958.157654 464.893036,958.856812 463.382446,961.699036 
	C461.660828,964.938416 456.379272,965.799500 457.028809,970.873352 
	C457.316437,973.120361 454.575287,972.205566 453.756958,973.966980 
	C452.435944,976.810486 449.838013,978.917358 450.366486,982.679565 
	C450.597137,984.321594 447.699127,983.171753 447.200958,984.266418 
	C445.946259,987.023193 441.917419,988.021057 442.899872,992.459106 
	C443.298981,994.261841 438.867432,995.006958 437.864746,997.569092 
	C437.702545,997.983582 436.277191,998.290344 436.292816,998.333069 
	C437.976929,1002.932617 432.087860,1005.121948 432.794647,1009.367737 
	C432.821533,1009.529297 432.857330,1009.802368 432.779327,1009.852356 
	C427.933014,1012.956482 429.260284,1020.700195 423.087280,1022.760864 
	C422.219879,1023.050415 421.301208,1023.362915 421.508942,1024.296753 
	C422.262634,1027.684204 420.620361,1029.811279 418.084564,1031.630127 
	C415.676361,1033.357666 415.081726,1035.695312 414.606171,1038.668579 
	C414.257385,1040.849365 411.112030,1042.581787 409.215729,1044.516602 
	C405.083923,1048.732666 400.656219,1052.633545 396.644257,1057.008423 
	C394.744629,1059.079834 393.015625,1063.559204 388.045776,1062.415405 
	C385.439270,1061.815552 384.969360,1065.720581 382.841370,1067.103394 
	C381.572235,1067.928101 380.641632,1068.997314 378.965393,1068.971680 
	C376.972565,1068.941406 374.734680,1068.555054 374.973846,1071.782349 
	C374.998047,1072.109131 374.377533,1072.813110 374.124878,1072.782227 
	C368.729980,1072.120850 364.921661,1077.998779 359.115814,1076.247437 
	C357.160370,1075.657593 353.836334,1074.931030 353.809631,1079.181763 
	C353.803589,1080.147949 352.574432,1080.073242 351.777283,1080.076172 
	C347.277771,1080.092529 342.777832,1080.103149 338.278931,1080.045532 
	C337.674927,1080.037842 336.568359,1079.669678 336.549774,1079.407593 
	C336.189941,1074.347290 332.324799,1076.685303 329.827606,1076.120972 
	C326.839325,1075.445557 322.741821,1078.127075 321.059082,1073.257324 
	C320.960785,1072.972900 319.826263,1073.003662 319.169434,1072.965698 
	C318.338837,1072.917603 317.058014,1073.297607 316.741089,1072.891846 
	C314.295868,1069.760864 310.439453,1069.500000 307.447327,1067.752075 
	C306.218689,1067.034180 305.135010,1065.840820 303.401306,1065.691284 
	C300.375397,1065.430664 298.037659,1062.564697 297.161469,1060.977173 
	C295.736877,1058.395996 294.313019,1057.985229 292.209137,1058.359741 
	C288.814697,1058.964355 286.960449,1054.998047 286.698303,1054.292480 
	C284.839264,1049.287720 279.789886,1047.939697 276.752533,1044.455811 
	C272.976013,1040.124023 269.225037,1035.677856 264.880157,1031.962646 
	C261.378784,1028.968750 258.605164,1025.294800 254.954697,1022.393677 
	C252.886459,1020.750061 248.904419,1018.891052 250.248917,1014.510925 
	C251.334671,1010.973633 247.239700,1012.734619 246.225861,1010.773071 
	C244.146088,1006.749146 238.968765,1004.545105 239.630951,998.777161 
	C239.838089,996.972961 236.721359,998.414490 236.157211,996.767700 
	C235.206223,993.991882 230.865097,992.796509 232.477539,988.847107 
	C227.080200,988.030518 230.606400,980.936829 225.958755,979.543884 
	C225.630142,979.445374 225.179367,978.643127 225.287994,978.362976 
	C227.087189,973.720520 220.264664,971.677063 221.930023,967.116760 
	C215.880722,966.966125 220.189331,959.138062 215.246429,957.988831 
	C214.856369,957.898132 214.834579,955.866150 214.790009,954.730591 
	C214.723358,953.033325 214.932907,951.251648 212.420197,951.216125 
	C211.109451,951.197632 210.775040,950.322571 210.819641,949.200195 
	C210.923294,946.592468 210.911667,944.636780 207.781143,942.981812 
	C205.745148,941.905579 202.543427,939.299377 203.991486,935.354065 
	C204.398178,934.246094 203.455780,933.537415 202.259155,933.516846 
	C200.520065,933.487061 200.069580,932.518738 200.060257,930.922974 
	C200.047714,928.778320 200.938583,926.029419 197.321487,925.744812 
	C199.022324,920.770142 192.313034,919.132874 192.892090,914.583862 
	C193.024353,913.544800 192.812943,912.576416 191.525879,912.334473 
	C190.698242,912.178894 189.492691,911.877380 189.737686,911.018005 
	C191.275665,905.622498 187.453293,901.664124 186.226730,897.024475 
	C185.978836,896.086792 186.224487,894.756714 184.927048,894.704224 
	C181.838943,894.579590 183.050674,891.639648 182.072952,890.628967 
	C179.030426,887.484009 181.151108,881.487915 175.838516,879.854248 
	C175.564392,879.769897 175.130569,879.350342 175.173630,879.212708 
	C176.754669,874.155640 170.100861,871.316223 171.705002,866.128479 
	C172.129959,864.754089 172.764465,862.305115 169.710007,862.008545 
	C168.061050,861.848511 168.455673,860.326660 168.368835,859.226746 
	C168.212006,857.240356 169.199448,854.625183 165.543213,854.741638 
	C164.516998,854.774353 164.444458,853.589966 164.468796,852.793091 
	C164.545212,850.290527 163.905945,848.726379 161.736343,846.755615 
	C159.914154,845.100403 161.938812,840.049988 157.255768,839.177795 
	C158.775894,834.011169 154.921036,830.148560 153.970230,825.582764 
	C153.778244,824.660767 154.321228,823.196899 153.215179,822.946533 
	C149.731064,822.157654 150.907318,819.500366 150.656540,817.359436 
	C150.389282,815.077576 152.086578,811.616394 147.470078,811.800232 
	C147.347412,811.805115 147.088470,811.561646 147.107483,811.496460 
	C148.400650,807.063232 143.724625,804.860901 143.223923,801.061035 
	C142.855225,798.262817 145.105423,794.147705 139.764938,793.468689 
	C139.487900,793.433472 139.382477,791.669739 139.282822,790.701965 
	C139.112381,789.047058 140.084518,786.793640 137.017960,786.755249 
	C136.717087,786.751465 136.105148,786.006226 136.174942,785.753479 
	C137.643143,780.434143 133.861694,776.379211 132.842133,771.672058 
	C132.672455,770.888733 132.510651,769.450073 132.266052,769.432800 
	C126.918282,769.054321 129.390884,764.974426 128.916946,762.382263 
	C128.609665,760.701477 129.366272,758.967834 126.692375,758.135803 
	C124.249992,757.375916 125.807854,754.647095 125.472336,752.819031 
	C125.101433,750.798279 126.455101,748.331970 122.700974,747.588684 
	C120.415939,747.136230 121.923698,744.099609 121.566231,742.261841 
	C121.166748,740.208191 122.732918,737.420776 118.945053,736.898743 
	C117.738838,736.732544 118.290573,735.239258 118.135696,734.316650 
	C117.638084,731.352356 120.063957,727.124878 114.669395,726.234802 
	C114.490883,726.205383 114.304153,725.697144 114.270897,725.395630 
	C113.821976,721.324341 115.533875,716.654297 110.999489,713.726929 
	C113.164856,707.427917 105.857132,702.941101 107.713280,696.666260 
	C107.861732,696.164368 107.431664,694.983948 107.131233,694.932617 
	C102.334190,694.112000 104.078781,690.401550 103.801201,687.596313 
	C103.689468,686.467163 104.222130,684.551697 103.250198,684.361389 
	C98.784546,683.486877 100.807312,680.092041 100.303276,677.670898 
	C99.631340,674.443359 102.615608,669.802795 96.776848,668.470154 
	C96.474014,668.401123 96.492615,666.949341 96.351158,666.143066 
	C95.844025,663.252563 97.767899,659.880676 93.495125,657.696472 
	C92.283432,657.077148 93.300278,652.380066 93.010826,649.582520 
	C92.791588,647.463623 94.597679,644.483032 90.498512,643.687256 
	C89.316277,643.457764 90.126770,641.268982 89.903114,640.004761 
	C89.455292,637.473511 91.534698,633.777771 86.618095,633.178345 
	C85.446091,633.035400 86.138229,631.111938 85.899750,630.023926 
	C85.012474,625.975708 88.110489,621.263306 82.962990,617.697876 
	C81.531136,616.706116 82.715797,612.007080 82.603584,609.012451 
	C82.540596,607.331299 83.274193,605.141846 80.273262,605.050232 
	C78.198936,604.986938 78.711884,603.250366 78.681847,602.028381 
	C78.616348,599.363464 78.684669,596.695557 78.661263,594.029236 
	C78.648476,592.572144 78.963737,590.979797 76.745483,590.640747 
	C74.898659,590.358459 75.436333,588.710815 75.159981,587.468750 
	C74.226494,583.273193 77.641327,578.250305 72.225784,574.697388 
	C71.065224,573.935974 72.436745,569.857849 71.897789,567.475952 
	C71.134033,564.100586 75.057899,558.889893 68.341240,557.554016 
	C68.053169,557.496765 68.027687,555.713196 68.018265,554.732544 
	C67.981453,550.899780 69.410454,546.211121 67.710205,543.408386 
	C63.964497,537.233887 65.053337,530.917358 64.806252,524.549744 
	C64.799797,524.383484 64.833305,524.115601 64.748878,524.066833 
	C57.058102,519.618896 62.344799,512.296997 60.895500,506.468353 
	C60.386036,504.419373 61.798504,501.732300 58.233837,501.020721 
	C56.912090,500.756897 57.398346,499.036682 57.391846,497.922607 
	C57.370457,494.256927 57.619301,490.574036 57.337242,486.930817 
	C57.136959,484.343933 59.089172,480.717102 54.508152,479.601624 
	C54.125320,479.508423 54.117256,477.464508 54.106754,476.325348 
	C54.062202,471.492554 54.300323,466.645233 53.991657,461.831665 
	C53.824951,459.231934 56.149143,455.202423 50.680508,454.669250 
	C49.672245,454.570953 50.126907,452.261230 50.120316,450.966187 
	C50.078747,442.802734 50.090599,434.638977 50.077354,426.475342 
	C50.074799,424.899323 50.669075,423.245514 48.081425,422.732300 
	C46.111195,422.341583 46.970940,420.227295 46.963844,418.877716 
	C46.902515,407.212616 46.943535,395.546967 46.917316,383.881592 
	C46.913181,382.041534 47.683853,379.935089 44.301311,379.776825 
	C41.817982,379.660583 43.017582,377.098602 43.012009,375.699066 
	C42.927742,354.533539 42.954056,333.367554 42.955803,312.201691 
	C42.956425,304.701965 42.840042,297.199219 43.030346,289.704254 
	C43.094715,287.169098 41.219017,283.493042 46.248505,282.900757 
	C47.514030,282.751740 46.906040,280.552124 46.911476,279.300201 
	C46.955620,269.134155 46.907082,258.967651 46.952412,248.801605 
	C46.960579,246.970291 46.156448,244.788727 49.141109,244.051239 
	C50.801731,243.640930 50.085770,241.798965 50.098080,240.562988 
	C50.146187,235.732468 49.897369,230.887787 50.195496,226.075409 
	C50.358406,223.445663 48.053726,219.302109 53.506229,218.861572 
	C53.770687,218.840210 54.039848,217.101532 54.060104,216.157272 
	C54.128006,212.992203 54.005760,209.822159 54.110157,206.659088 
	C54.180042,204.541641 53.092144,201.934479 56.548550,201.070618 
	C57.853756,200.744400 57.360481,199.058273 57.376839,197.952118 
	C57.423645,194.786835 57.300564,191.617294 57.413052,188.455429 
	C57.482075,186.515381 56.578903,184.421097 59.791973,183.340469 
	C62.045826,182.582474 60.567944,179.474213 60.813122,177.431152 
	C61.050430,175.453659 60.031368,172.842407 63.594551,172.893616 
	C64.323929,172.904099 64.949829,172.194321 64.737724,171.551727 
	C62.599319,165.072968 69.511887,160.324097 68.039551,153.964828 
	C67.645409,152.262421 68.268494,151.017532 70.389412,151.157745 
	C70.808350,151.185440 71.642838,150.781433 71.627007,150.687531 
	C70.981613,146.857773 74.725739,144.282501 74.893974,141.325562 
	C75.201202,135.925797 76.119423,131.793564 81.676727,129.892410 
	C81.952988,129.797913 82.400200,129.410049 82.362259,129.304260 
	C80.714935,124.712196 86.452324,122.635498 86.001274,118.286034 
	C85.634239,114.746666 90.598938,115.329857 91.600975,112.316162 
	C91.778069,111.783501 93.287338,111.093658 93.047791,109.843430 
	C92.181297,105.321091 95.667465,103.317749 98.585991,102.034805 
	C100.867485,101.031898 99.655907,98.779694 101.486458,97.885056 
	C104.121613,96.597168 105.710533,93.040298 109.511047,94.355072 
	C110.084312,88.948723 117.134598,92.488632 118.368690,87.958305 
	C118.439362,87.698875 118.935120,87.297958 119.084633,87.354607 
	C123.834236,89.154114 126.144684,82.762383 130.720749,83.907806 
	C131.728836,84.160141 132.873459,83.762917 132.780121,82.433342 
	C132.601395,79.887192 134.176422,79.909164 135.962601,79.947227 
	C137.389328,79.977623 138.775101,80.280685 139.395691,78.116814 
	C140.088394,75.701454 142.509872,77.069054 144.158600,76.723320 
	C146.691132,76.192245 150.557449,78.534660 151.050415,73.480507 
	C151.078949,73.188019 152.511765,73.115105 153.224869,72.793312 
	C157.670410,70.787132 161.888962,67.921822 167.179504,69.255867 
	C167.459595,64.112907 175.632568,68.579674 175.286255,62.619869 
	C175.277603,62.471226 175.885284,62.085629 176.086487,62.155125 
	C182.292953,64.298805 186.891479,58.389004 192.785583,58.838299 
	C194.560440,58.973595 197.032486,59.706715 196.981201,56.316826 
	C196.953979,54.518513 198.520889,54.948280 199.590149,54.931919 
	C202.588882,54.886032 206.527039,56.119202 208.392929,54.664742 
	C212.281174,51.633888 218.620239,53.193645 220.175598,51.159916 
	C224.431320,45.595360 230.718369,50.004173 233.769165,47.286575 
	C238.612106,42.972557 244.841888,46.437172 248.258270,43.787437 
	C254.104919,39.252815 259.963501,41.988060 265.693848,41.000542 
	C266.181366,40.916534 267.029938,41.083134 267.130554,40.865322 
	C270.665314,33.212795 277.402863,38.404655 282.496399,37.087257 
	C284.526947,36.562073 286.811768,37.089588 288.972351,36.975933 
	C290.740631,36.882908 292.958984,37.910660 293.530701,34.713501 
	C293.786591,33.282677 295.830139,33.811260 297.102692,33.810181 
	C329.268066,33.782841 361.433441,33.778111 393.598816,33.785221 
	C395.168793,33.785568 396.874115,33.281273 397.181183,35.951675 
	C397.385559,37.728703 399.375580,36.945465 400.553497,36.963680 
	C406.218536,37.051285 411.886322,36.954372 417.551819,37.025101 
	C419.306580,37.047009 421.817871,36.040230 421.526001,39.605381 
	C421.376099,41.436527 423.084412,40.952370 424.127350,40.969986 
	C427.625824,41.029072 431.127106,40.936474 434.625092,41.008640 
	C436.578247,41.048931 438.812592,40.152874 439.663391,43.360249 
	C440.065521,44.876125 442.352356,43.927494 443.762848,44.205753 
	C447.539520,44.950802 451.935272,42.246449 455.132568,47.233326 
	C456.034058,48.639366 460.793243,47.571255 463.783020,47.639481 
	C465.828613,47.686153 468.005432,46.946857 468.578979,50.311691 
	C468.926849,52.352688 471.409271,51.299049 472.936523,51.582905 
	C476.417236,52.229866 480.853668,49.382759 483.173492,54.612732 
	C483.447845,55.231239 485.996582,54.757755 487.471069,54.946430 
	C489.733917,55.235992 493.200897,53.450275 493.135986,58.073990 
	C493.132507,58.321659 493.955200,58.877575 494.234497,58.789021 
	C500.652618,56.753670 505.425110,63.341366 511.702118,62.087872 
	C513.280945,61.772583 514.728333,62.136738 514.778015,64.277863 
	C514.792786,64.914139 514.875244,65.779190 515.676086,65.839485 
	C519.895752,66.157181 524.171143,65.472794 527.771667,69.093201 
	C528.914795,70.242638 532.144287,68.752983 533.027466,72.074615 
	C533.408081,73.506012 535.743103,72.505844 537.160583,72.780098 
	C539.494324,73.231613 543.252747,71.021118 543.256653,75.977470 
	C543.256836,76.193878 543.759888,76.634743 543.943726,76.593414 
	C549.040039,75.448174 552.205261,81.729698 557.524658,80.048820 
	C559.314331,79.483284 561.305176,79.760071 560.987183,82.644600 
	C560.947815,83.002350 561.600037,83.788658 561.678223,83.756660 
	C566.305054,81.863815 569.344360,86.108292 572.477539,87.621536 
	C576.668701,89.645737 580.511047,90.470352 584.897888,90.683983 
	C586.889954,90.780991 585.169556,93.535843 586.734192,94.241913 
	C589.400513,95.445137 590.749634,99.381500 594.736755,97.946030 
	C595.807678,97.560463 596.470276,98.508102 596.627319,99.688713 
	C596.708801,100.300789 597.261292,101.402481 597.298645,101.389832 
	C601.630188,99.923531 603.537048,105.043861 607.305481,105.047607 
	C608.994019,105.049286 610.914490,104.352097 611.273804,107.328270 
	C611.467468,108.932327 613.530273,108.134521 614.767090,108.243156 
	C616.407349,108.387215 618.274231,108.025711 618.293518,110.584290 
	C618.298889,111.296181 618.751221,112.180229 619.358276,111.995987 
	C625.863098,110.021828 630.354553,117.038651 636.744080,115.786568 
	C638.991211,115.346230 641.396851,115.700844 643.729858,115.719482 
	C644.715393,115.727356 645.744873,115.635735 646.520203,116.465118 
	C650.769653,121.011047 653.104675,121.007851 657.676147,116.428970 
	C658.634155,115.469398 659.847534,115.728653 660.978027,115.715477 
	C664.476135,115.674698 667.975464,115.730225 671.473511,115.689095 
	C673.041565,115.670654 674.940491,116.215919 675.169617,113.606888 
	C675.282898,112.317963 676.473389,112.379524 677.463989,112.222572 
	C680.759155,111.700478 685.159790,114.188248 686.748474,108.656853 
	C686.908142,108.101051 691.122375,108.705536 691.278992,108.153793 
	C692.706116,103.127205 699.484314,107.263718 700.886902,102.365891 
	C701.016113,101.914536 703.007568,101.888000 704.139465,101.857513 
	C705.857483,101.811241 707.579651,101.973778 707.619812,99.484634 
	C707.640747,98.185951 708.563721,97.762527 709.653076,97.903412 
	C714.490112,98.528954 716.378357,95.168472 718.104126,91.665283 
	C718.925049,89.998856 720.353149,90.703514 721.565796,90.507095 
	C724.369385,90.052971 728.102112,92.093300 729.417725,87.579994 
	C729.474304,87.385986 730.048035,87.149155 730.279602,87.228340 
	C734.896912,88.807022 737.072021,81.971146 741.770020,83.907455 
	C743.643555,78.089127 750.833984,81.716011 751.993774,79.619156 
	C754.391357,75.284248 761.327515,79.187401 761.709839,73.132919 
	C761.721191,72.952896 763.851318,72.952034 764.981995,72.788177 
	C767.644958,72.402275 771.196655,74.235397 772.321716,69.791588 
	C772.416687,69.416275 774.122131,69.401291 775.088013,69.304367 
	C776.765320,69.136047 778.360107,69.802254 779.247131,67.084267 
	C780.004578,64.762978 783.042236,66.408531 785.036255,66.082275 
	C786.969604,65.765923 789.672546,66.976738 789.576233,63.317631 
	C789.567017,62.966274 790.234070,62.241016 790.404419,62.292629 
	C796.241943,64.061508 800.464966,58.660236 805.979492,58.822197 
	C808.070862,58.883617 811.404663,60.287090 811.338684,55.904602 
	C811.334412,55.619770 812.117493,55.003696 812.367249,55.081059 
	C819.025391,57.143162 823.787781,49.872993 830.473633,51.479458 
	C832.467773,51.958588 835.537476,52.738609 836.113708,48.664894 
	C836.369019,46.860218 838.684204,47.961029 840.039734,47.641357 
	C843.782593,46.758682 848.270935,49.785633 851.425476,44.610176 
	C852.265930,43.231323 857.092651,44.421482 860.063477,44.150497 
	C861.898987,43.983070 864.569519,45.441135 865.087280,41.810406 
	C865.283325,40.435886 867.047729,41.040337 868.115845,41.015186 
	C871.113831,40.944603 874.120361,41.104515 877.112061,40.950397 
	C879.442749,40.830330 882.674561,42.376659 882.999634,37.886215 
	C883.097534,36.533730 884.905518,37.025520 885.981995,37.016457 
	C890.648010,36.977180 895.328430,37.215832 899.975464,36.916683 
	C902.654907,36.744202 906.383362,38.908985 907.723450,34.223087 
	C907.843201,33.804539 909.857910,33.816727 910.992615,33.815865 
	C942.991394,33.791569 974.990112,33.787510 1006.988892,33.797771 
	C1008.718933,33.798328 1010.604248,33.242805 1011.068176,36.097630 
	C1011.339172,37.765862 1013.332520,36.929539 1014.522034,36.948509 
	C1020.353577,37.041519 1026.187622,36.966789 1032.020264,37.013603 
	C1033.855469,37.028332 1036.220215,36.225048 1036.026733,39.665581 
	C1035.927612,41.429325 1037.634766,40.941437 1038.677856,40.966675 
	C1041.342285,41.031143 1044.031860,40.764629 1046.669434,41.037033 
	C1049.419922,41.321083 1052.743774,39.437840 1054.707520,43.676342 
	C1055.192017,44.722103 1059.374878,43.923164 1061.826294,44.225677 
	C1064.278076,44.528229 1067.302246,42.749229 1068.760254,46.951096 
	C1069.339355,48.620228 1072.793579,47.288132 1074.873047,47.703693 
	C1077.604980,48.249630 1081.800049,45.408741 1082.651733,50.993431 
	C1082.721436,51.450157 1086.038208,51.346840 1087.827759,51.622898 
	C1089.962891,51.952236 1092.809326,50.139221 1093.727539,54.191139 
	C1094.078247,55.738880 1096.783936,54.466282 1098.302979,54.934357 
	C1101.501953,55.920044 1106.459106,52.116817 1107.869141,58.410660 
	C1107.960693,58.819637 1110.329468,58.608311 1111.594116,58.888432 
	C1113.958374,59.412167 1117.240356,57.188057 1118.438110,61.573650 
	C1118.759766,62.751789 1121.538086,61.776997 1123.143311,62.080654 
	C1125.462280,62.519325 1129.297729,60.241978 1129.196899,65.291161 
	C1129.194580,65.405998 1129.427734,65.635773 1129.535156,65.626579 
	C1133.032959,65.326859 1136.026489,69.297913 1137.974487,68.892204 
	C1143.733154,67.692917 1148.822754,70.854706 1151.514771,73.327698 
	C1155.456055,76.948334 1160.816284,74.965675 1162.668579,77.119965 
	C1165.290161,80.168846 1171.026245,77.857361 1171.401367,83.118393 
	C1171.418335,83.356308 1171.938721,83.803436 1172.068115,83.752846 
	C1176.699585,81.941887 1178.951294,87.905518 1183.265747,87.157433 
	C1184.715698,86.905991 1185.877563,87.246185 1185.933472,89.144226 
	C1185.972656,90.475540 1187.021606,90.579918 1188.103760,90.551376 
	C1190.483154,90.488617 1193.313721,89.654999 1193.400513,93.666794 
	C1193.406250,93.936104 1194.831177,94.445328 1195.557617,94.384323 
	C1200.084961,94.004105 1202.134399,97.239685 1203.669678,100.448433 
	C1204.641846,102.480614 1206.712891,101.179352 1207.659302,102.806419 
	C1209.132080,105.338028 1212.145508,107.001266 1211.077026,110.790260 
	C1210.485840,112.887611 1213.890625,113.486115 1214.186401,113.554092 
	C1219.759155,114.834763 1216.007935,122.519348 1221.307007,123.674057 
	C1220.529785,129.468185 1225.134033,131.506546 1228.603394,134.447235 
	C1229.208008,134.959717 1228.672485,136.699692 1228.867188,137.837936 
	C1229.275635,140.225769 1227.290649,143.502029 1231.564209,144.543060 
	C1232.612061,144.798294 1231.873901,146.668930 1232.042114,147.785721 
	C1232.187988,148.754150 1232.187866,150.541763 1232.448364,150.578522 
	C1238.099854,151.376114 1235.520752,155.727173 1235.988525,158.678055 
	C1236.214111,160.100571 1235.815796,161.311981 1237.862427,162.108536 
	C1240.728394,163.223923 1238.740234,166.170944 1239.216675,168.254623 
	C1239.671997,170.245468 1238.113525,173.006271 1242.112061,173.285431 
	C1244.025757,173.419022 1242.960693,175.768753 1243.208618,177.116135 
	C1243.689453,179.728943 1241.652710,183.335922 1246.213013,184.374130 
	C1246.570679,184.455566 1246.672974,186.177734 1246.690186,187.141006 
	C1246.752686,190.636398 1246.726318,194.133316 1246.738647,197.629669 
	C1246.741577,198.460510 1246.433472,199.781876 1246.828247,200.048462 
	C1252.707397,204.017426 1248.951538,209.945129 1249.921997,214.878937 
	C1250.297363,216.787430 1249.056152,219.298477 1252.669800,219.462250 
	C1254.514893,219.545898 1253.890869,221.533951 1253.906616,222.740219 
	C1253.972168,227.738907 1253.765381,232.746857 1254.000610,237.735275 
	C1254.123413,240.337387 1252.263672,243.884720 1256.721558,245.123108 
	C1257.123779,245.234879 1257.090332,247.270401 1257.092285,248.412811 
	C1257.111328,259.904266 1257.095581,271.395844 1257.087402,283.343475 
	C1259.397217,288.346527 1260.731079,293.114258 1259.485718,298.191467 
	C1258.701538,301.388794 1259.567139,304.479126 1259.541626,307.618713 
	C1259.438721,320.272583 1259.577026,332.928467 1259.475586,345.582397 
	C1259.385498,356.821899 1261.105591,368.193451 1257.201782,379.624207 
z"/>
<path fill="#BFC3CF" opacity="1.000000" stroke="none" 
	d="
M1257.565918,380.015930 
	C1255.387451,378.818756 1255.184570,377.809448 1256.012207,375.401337 
	C1257.787598,370.235504 1259.331665,365.121399 1258.361938,359.069672 
	C1257.088501,351.121582 1258.195312,342.815338 1257.956665,334.672546 
	C1257.631348,323.568573 1259.047974,312.419800 1257.127686,301.354034 
	C1257.020630,300.737091 1257.110352,299.955902 1257.410156,299.419861 
	C1259.166992,296.278503 1259.425537,293.363983 1257.392334,290.070343 
	C1256.557739,288.718262 1257.113159,286.508087 1257.060791,284.243896 
	C1260.216187,283.520569 1261.184082,284.806519 1261.168945,288.045654 
	C1261.032959,317.342285 1261.078003,346.639740 1261.100464,375.936981 
	C1261.102173,378.167511 1261.404785,380.449982 1257.565918,380.015930 
z"/>
<path fill="#FFFFFF" opacity="1.000000" stroke="none" 
	d="
M486.021606,895.764038 
	C481.888092,898.462646 480.036194,903.234497 475.827454,905.451416 
	C475.385406,905.684204 475.052368,906.591858 475.076294,907.169556 
	C475.335236,913.427063 469.521423,915.182739 466.358215,918.870850 
	C465.843506,919.471008 464.193512,919.344055 464.276794,920.568726 
	C464.709229,926.925415 459.210052,929.226990 455.810028,932.880005 
	C454.868683,933.891235 453.682983,934.576111 453.996918,936.018188 
	C454.682098,939.165527 452.832703,941.011780 450.655914,942.475708 
	C447.977173,944.277283 445.451202,945.753662 446.462646,949.810486 
	C446.872192,951.453064 444.253418,951.231689 443.293915,952.490112 
	C439.045685,958.061829 435.383118,963.958069 432.849640,970.473999 
	C432.069672,972.479980 429.953613,972.011108 428.860779,973.784302 
	C425.721954,978.877258 422.368042,983.784485 420.928253,989.702515 
	C420.540558,991.295959 418.756287,991.444580 417.785065,992.607422 
	C416.179108,994.530212 415.618591,997.929382 414.730957,998.507019 
	C410.533295,1001.238342 413.382690,1009.696960 405.503632,1009.299683 
	C403.772888,1009.212402 401.570984,1011.789734 400.156128,1013.588501 
	C397.657166,1016.765503 393.951477,1018.891418 392.181702,1022.633301 
	C390.122589,1026.986938 384.923157,1026.053101 382.020203,1028.897461 
	C378.615417,1032.233643 374.029144,1033.712280 370.227875,1036.625854 
	C364.036865,1041.371216 355.986603,1041.828979 348.210388,1040.835571 
	C343.656982,1040.253784 339.491577,1041.086670 334.536591,1037.914307 
	C329.383820,1034.615234 323.606842,1029.918091 316.466736,1029.872803 
	C315.045197,1029.863770 314.890198,1028.271118 313.999420,1027.628540 
	C302.303162,1019.192444 291.614685,1009.763550 282.169647,998.739075 
	C278.995605,995.034363 277.212585,991.132385 276.039703,986.932312 
	C275.300110,984.283630 272.079590,984.427124 272.050964,982.387268 
	C271.991150,978.117065 269.122040,974.845520 267.518158,971.540344 
	C265.957672,968.324402 266.711212,963.330811 261.853424,961.409851 
	C259.539368,960.494812 262.587372,955.566956 258.667969,954.422607 
	C259.604706,949.619324 253.231400,947.976318 253.857819,943.275208 
	C254.039215,941.913879 252.827484,941.477295 251.980835,940.672363 
	C247.523376,936.435181 244.890167,931.255676 242.563110,925.462280 
	C241.280365,922.268738 241.723572,916.992065 236.819458,915.426208 
	C236.356888,915.278564 235.848297,913.844727 236.056076,913.251404 
	C237.915909,907.940430 233.299088,904.301575 232.351028,899.684998 
	C231.896881,897.473511 229.342850,893.026550 228.471390,892.630188 
	C223.715012,890.466980 224.613831,885.387878 223.244507,882.292664 
	C221.632187,878.648071 217.928818,876.253723 217.354462,871.472595 
	C217.039902,868.854065 216.245239,863.811890 211.935654,861.259338 
	C209.970535,860.095398 208.316849,855.322021 207.957336,852.779236 
	C207.289459,848.055298 204.733215,844.167847 204.025879,839.657227 
	C203.836899,838.451965 203.701630,837.324768 202.220306,837.054260 
	C201.389893,836.902649 200.257217,836.646057 200.331543,835.750549 
	C200.730057,830.949829 195.391449,827.717651 196.896027,822.578552 
	C197.371536,820.954346 196.938538,819.206848 194.600906,818.957031 
	C193.677521,818.858337 193.215881,818.166870 193.059677,817.258484 
	C192.181366,812.150696 190.505463,807.443420 186.619659,803.736511 
	C186.132614,803.271912 186.182205,802.182007 186.097046,801.369934 
	C185.779739,798.343872 187.524277,794.454895 182.676773,793.367615 
	C183.204956,789.386780 179.266937,787.041321 179.014984,783.327393 
	C178.808746,780.287537 180.076645,777.097290 175.714737,775.041260 
	C174.040314,774.252075 172.520401,769.099792 172.548141,767.331970 
	C172.636276,761.715820 168.933655,757.614197 168.388519,752.524109 
	C167.932648,748.267456 164.817688,745.234375 163.179932,741.533020 
	C162.282120,739.503967 160.994904,737.786255 161.025864,735.395630 
	C161.056625,733.021301 161.844650,730.204651 158.084763,729.630798 
	C157.193634,729.494751 156.887695,728.296753 157.139343,727.558777 
	C158.940445,722.277100 155.760086,716.740173 153.433319,714.281799 
	C149.493805,710.119507 153.664291,703.437012 147.464844,700.537842 
	C146.153320,699.924500 147.031784,694.613403 146.914719,691.466248 
	C146.842773,689.531372 147.410873,687.298523 144.485138,686.816895 
	C144.073578,686.749207 143.394547,686.204407 143.415573,685.923523 
	C143.768341,681.213257 140.054123,677.388672 139.667679,673.657715 
	C139.066467,667.853394 134.029037,663.198059 135.968185,657.085754 
	C131.775757,654.222839 134.748779,648.177856 132.583755,646.210632 
	C127.751511,641.819824 130.799316,636.018616 128.531479,632.247925 
	C125.776352,627.666931 127.564842,622.524414 125.481972,619.052673 
	C122.893372,614.738037 123.513290,608.832825 121.038559,606.375671 
	C117.384941,602.748047 118.481850,599.423828 118.113304,595.841309 
	C117.878357,593.557495 118.503342,591.062317 115.253883,590.348999 
	C114.808594,590.251282 114.157791,589.238159 114.255669,588.792175 
	C116.075676,580.499268 109.695763,573.402649 110.896729,565.138306 
	C111.286575,562.455688 112.135048,559.161377 108.516655,557.248596 
	C107.363129,556.638794 108.075378,554.758728 107.927750,553.459717 
	C107.509758,549.781921 109.131241,545.946472 104.606064,542.896118 
	C102.380943,541.396240 104.158981,536.593506 103.929810,533.294312 
	C103.744812,530.631104 104.841606,527.632812 101.116928,526.150269 
	C99.651215,525.566833 100.319107,523.456055 100.061638,522.015320 
	C99.176422,517.061768 102.809601,511.031525 96.516418,507.270996 
	C95.929741,506.920410 96.160316,505.070984 96.147179,503.915985 
	C96.105469,500.249969 96.208595,496.580780 96.096718,492.917694 
	C96.025398,490.582703 97.023788,487.872894 93.791328,486.475037 
	C92.701836,486.003937 93.069588,484.375946 93.061737,483.226959 
	C93.036682,479.560638 93.092026,475.892975 93.010529,472.228180 
	C92.954308,469.699860 93.802353,466.969025 90.660698,465.238647 
	C89.351341,464.517426 89.983620,462.452972 89.977875,460.984741 
	C89.947205,453.151978 89.970360,445.319061 89.959839,437.486176 
	C89.957199,435.524231 90.327660,433.538483 87.452660,432.879669 
	C85.252396,432.375458 86.025024,430.144531 86.010101,428.607880 
	C85.938919,421.275665 85.993378,413.942322 85.968254,406.609497 
	C85.961624,404.676819 86.392303,402.683960 83.899445,401.534485 
	C82.320633,400.806488 82.913139,398.855560 82.912308,397.414368 
	C82.890648,359.749939 82.893532,322.085480 82.908867,284.421051 
	C82.909584,282.650177 82.529427,280.777954 84.817810,279.773712 
	C86.550285,279.013367 85.943787,277.163239 85.955238,275.746704 
	C86.009140,269.080841 85.841370,262.410309 86.037582,255.749832 
	C86.129448,252.631775 84.302193,248.558258 89.353699,247.147064 
	C89.779266,247.028168 89.914040,245.350174 89.933945,244.391327 
	C90.003128,241.059616 89.850220,237.720673 89.996506,234.393936 
	C90.126526,231.437057 89.470398,228.677200 92.307114,225.836166 
	C94.536018,223.603897 92.723808,219.128738 93.050278,215.671463 
	C93.297096,213.057739 91.945259,210.003052 95.418999,208.229843 
	C96.632965,207.610153 96.059586,205.774445 96.112457,204.471024 
	C96.223190,201.741257 95.467201,198.919296 99.220947,197.467026 
	C100.951317,196.797562 99.906158,194.123337 100.103577,192.354767 
	C100.479324,188.988586 98.524178,184.884003 103.216179,182.847916 
	C103.688385,182.642990 103.835625,181.368164 103.888268,180.573593 
	C104.104607,177.308441 104.426308,174.756226 106.965660,171.648727 
	C108.806099,169.396515 111.595421,165.095337 111.169189,160.428406 
	C110.708527,155.384567 113.514290,151.168427 117.145073,147.664139 
	C117.481689,147.339249 117.831146,146.888184 117.903938,146.450653 
	C118.801506,141.056183 121.183266,136.498047 125.232307,132.774460 
	C125.732368,132.314590 125.882980,131.213333 125.814857,130.442932 
	C125.541527,127.352112 126.508400,125.634399 129.955734,126.030090 
	C131.117126,126.163399 132.045074,125.712387 132.936478,124.675262 
	C135.087753,122.172318 136.981720,119.641968 141.151505,119.528542 
	C143.051682,119.476852 145.270523,116.326561 146.584976,114.127525 
	C147.685120,112.287018 148.897522,112.045502 150.614059,112.073700 
	C152.157257,112.099060 153.678741,112.074341 154.002792,110.017029 
	C154.137421,109.162239 154.550461,108.342522 155.517242,108.277863 
	C162.076294,107.839165 166.807129,102.401436 173.300400,101.809479 
	C174.570343,96.886238 180.331009,98.930931 183.035400,95.435951 
	C184.873276,93.060791 189.355774,93.642189 192.200073,91.033905 
	C196.605835,86.993713 203.073029,86.295753 208.403259,84.837105 
	C213.263672,83.507011 217.072815,80.144478 222.394348,79.202469 
	C227.367813,78.322075 234.039703,79.181793 237.363678,76.395355 
	C243.137009,71.555641 248.987320,73.666092 254.816544,72.911774 
	C255.146652,72.869057 255.580780,72.951134 255.792587,72.770836 
	C264.687744,65.198685 275.171234,70.585785 284.834503,69.314194 
	C286.668732,69.072838 288.356750,69.814484 289.179779,67.400711 
	C289.819824,65.523613 291.647797,66.036766 293.070770,66.031670 
	C302.403442,65.998199 311.736298,66.008911 321.069031,66.032364 
	C322.053955,66.034836 323.703461,65.899239 323.920807,66.358994 
	C326.245178,71.275856 330.467499,68.949295 333.930481,69.041283 
	C340.592102,69.218239 347.262024,69.058365 353.927795,69.116196 
	C356.788757,69.141006 360.031738,68.166267 361.478943,72.151985 
	C361.895050,73.297951 363.563110,72.887589 364.699310,72.896240 
	C368.865509,72.927971 373.049438,72.682083 377.193085,72.991158 
	C380.598389,73.245155 385.042816,70.997696 386.850525,76.343346 
	C387.002655,76.793274 388.665771,76.768822 389.635681,76.899597 
	C395.098572,77.636162 400.764954,75.393738 406.094452,79.640099 
	C408.247314,81.355408 412.869659,79.989807 416.368225,79.990746 
	C418.532104,79.991325 420.786682,79.662651 421.765198,82.384377 
	C422.052490,83.183456 422.756165,84.045143 423.590210,83.841766 
	C431.263519,81.970528 437.720123,88.019295 445.250702,87.091591 
	C447.360779,86.831650 449.539001,86.675713 450.564606,89.474983 
	C451.178558,91.150681 453.030182,90.819992 454.519592,90.879532 
	C457.329376,90.991859 459.930603,90.268982 461.898529,94.022476 
	C463.077301,96.270813 467.476349,94.804787 470.411621,94.740524 
	C472.402496,94.696930 474.426056,93.741089 475.136932,96.692535 
	C475.421021,97.872032 476.567017,97.873985 477.583557,97.952255 
	C481.094574,98.222618 485.330139,96.466179 487.171265,101.546135 
	C487.342010,102.017181 489.343567,101.786514 490.485016,101.950951 
	C494.158112,102.480095 498.509796,100.308929 501.259277,104.725487 
	C501.525635,105.153320 502.835754,104.964043 503.664093,105.003471 
	C506.670166,105.146568 509.968781,104.092461 512.035645,107.650856 
	C512.379639,108.243088 514.218445,107.955978 515.363892,108.096001 
	C518.057800,108.425331 521.665710,106.725334 522.476135,111.317360 
	C522.526672,111.604019 523.281555,111.906868 523.736755,111.959473 
	C527.460999,112.389816 530.992310,111.688309 534.327148,115.407455 
	C536.276184,117.581108 542.360046,114.651154 544.418579,119.687088 
	C550.239563,117.963524 554.536804,123.434959 560.116272,123.003654 
	C562.210327,122.841782 564.237122,122.699409 565.562744,125.297325 
	C566.325012,126.791100 568.645569,125.897301 570.267578,126.032845 
	C572.308167,126.203362 574.794800,125.368332 575.330383,128.613281 
	C575.410095,129.096054 576.206848,129.826248 576.668091,129.823395 
	C581.042969,129.796478 585.116028,130.286469 588.946533,132.952423 
	C590.307922,133.899902 592.932678,132.985825 593.304688,135.806549 
	C593.355164,136.189545 593.920715,136.801193 594.254150,136.805466 
	C598.774780,136.863358 602.805847,139.695862 606.543518,140.276062 
	C611.261536,141.008408 614.798645,144.841934 619.623169,144.147903 
	C622.003967,150.649536 630.004761,145.437561 633.244202,150.631653 
	C633.760498,151.459457 636.391541,150.979980 638.046326,151.082275 
	C639.356873,151.163315 641.059204,150.622681 641.854492,151.754044 
	C646.625244,158.540634 653.470947,153.621658 659.173767,154.987320 
	C661.548096,148.131943 669.961548,153.848022 673.149719,148.334915 
	C673.518860,147.696686 675.667664,148.087357 676.991333,148.001541 
	C679.174927,147.859970 681.841248,148.799088 682.388672,145.255417 
	C682.573120,144.061768 683.824524,144.068039 684.829651,144.032318 
	C687.104187,143.951492 689.593262,141.910233 690.624695,141.893051 
	C696.020203,141.803177 699.970398,138.292557 704.770935,137.190353 
	C707.302673,136.609070 710.695374,138.189545 711.376404,133.948273 
	C715.573120,134.708893 718.045654,130.822372 721.617004,130.125671 
	C724.638062,129.536316 728.471741,131.274033 729.692566,126.623688 
	C729.725525,126.498322 729.966675,126.318848 730.079773,126.338928 
	C734.989075,127.210663 738.860229,123.971313 743.294189,123.072975 
	C746.105591,122.503380 749.469666,120.869865 751.238831,120.931839 
	C757.571716,121.153679 761.569336,115.325638 767.602783,115.883156 
	C769.544128,116.062538 771.244446,115.715897 772.024170,113.521362 
	C772.210510,112.997055 772.959961,112.278381 773.412720,112.304436 
	C777.777405,112.555580 781.247498,111.210808 784.925720,108.539467 
	C787.573364,106.616592 792.584839,109.292252 795.128235,105.186394 
	C801.638489,106.641647 806.687866,100.224609 813.311218,101.861565 
	C815.363403,102.368759 817.777405,102.368401 818.215637,99.215599 
	C818.269104,98.831314 818.913208,98.170616 819.156494,98.223427 
	C825.922668,99.691971 831.147400,93.602112 837.764404,94.459419 
	C837.929138,94.480759 838.162354,94.616150 838.243042,94.550392 
	C842.893677,90.759918 849.718262,92.377586 854.194092,88.140274 
	C854.643250,87.714958 855.355042,87.089859 855.788696,87.195961 
	C863.801208,89.156235 870.552429,82.487915 878.503113,83.929932 
	C880.436218,84.280533 882.489746,84.255524 883.147156,81.468674 
	C883.609375,79.508911 885.521057,80.041008 886.946594,80.017097 
	C890.445312,79.958382 894.814392,81.307968 897.272400,79.701973 
	C903.250244,75.796234 909.494873,77.343826 915.663147,76.874840 
	C915.993042,76.849754 916.492676,76.881088 916.620789,76.690018 
	C921.559082,69.326126 928.979004,74.257492 935.136963,72.988541 
	C938.305786,72.335548 942.126648,74.208794 944.184448,69.839417 
	C944.810730,68.509651 946.951782,69.124535 948.420898,69.118156 
	C955.587036,69.087029 962.758118,69.256134 969.917542,69.034042 
	C973.448975,68.924500 977.602417,70.700363 980.207581,66.326225 
	C980.543884,65.761658 982.410156,66.046715 983.568054,66.042992 
	C991.400818,66.017799 999.235046,65.931129 1007.065674,66.059067 
	C1010.177246,66.109909 1013.759644,64.784920 1015.983704,68.615257 
	C1016.330688,69.212875 1018.149414,69.067307 1019.288879,69.074783 
	C1025.454956,69.115234 1031.623413,69.000206 1037.786743,69.134529 
	C1041.195557,69.208817 1044.607056,68.146294 1047.446167,72.141747 
	C1049.037720,74.381531 1053.441040,72.632889 1056.563354,72.910133 
	C1059.644653,73.183746 1063.211792,71.667953 1065.030029,76.044212 
	C1065.681396,77.611771 1068.089600,76.689087 1069.697021,76.919304 
	C1073.204834,77.421715 1077.383545,75.201981 1080.016724,79.594101 
	C1080.370972,80.184990 1082.204102,79.928093 1083.356567,79.993607 
	C1085.866943,80.136307 1088.947144,79.105637 1089.497314,83.127213 
	C1089.528931,83.359192 1090.045044,83.753632 1090.234741,83.701958 
	C1095.123047,82.370804 1098.039551,88.283791 1102.960815,87.104050 
	C1104.701660,86.686760 1106.628784,86.857193 1107.313232,89.288483 
	C1107.673950,90.569901 1108.934814,90.877449 1110.166260,90.858818 
	C1112.063843,90.830116 1113.820801,90.835670 1114.443359,93.256668 
	C1114.600708,93.868065 1115.775879,94.787819 1116.237915,94.662262 
	C1120.723999,93.443069 1122.987671,98.463219 1127.412354,98.549095 
	C1129.052612,98.580925 1132.085327,101.637825 1134.965698,102.875519 
	C1139.181519,104.687057 1143.040039,107.361069 1147.693481,108.089996 
	C1149.028809,108.299164 1149.870361,108.765450 1150.060913,110.148682 
	C1150.259033,111.586197 1151.238281,112.195938 1152.524292,112.031677 
	C1155.175293,111.693108 1156.662476,112.799355 1158.037231,115.088989 
	C1161.273438,120.478409 1169.170166,119.940605 1172.162598,125.812447 
	C1179.677002,123.737434 1177.679443,133.098602 1182.427124,134.349915 
	C1180.597290,138.944183 1186.386230,141.032639 1185.987183,145.181091 
	C1185.847656,146.630875 1186.279785,147.779633 1188.020996,148.052414 
	C1188.605713,148.143997 1189.630127,148.755753 1189.593018,148.997543 
	C1188.862427,153.752457 1193.496216,156.716141 1193.367798,161.694458 
	C1193.265747,165.640656 1195.164795,170.247437 1198.809692,173.244171 
	C1199.175659,173.545181 1199.837158,174.007935 1199.774902,174.233414 
	C1197.882935,181.077225 1205.686157,185.632843 1204.010986,192.521103 
	C1203.462280,194.777405 1203.215942,197.646973 1206.672485,198.583557 
	C1207.146240,198.711960 1207.788330,199.649933 1207.722290,200.125336 
	C1206.738403,207.192642 1212.937012,212.987381 1211.123535,220.309692 
	C1210.515381,222.765381 1210.009644,225.970840 1213.434692,227.731125 
	C1214.039917,228.042221 1214.011108,229.864929 1214.028320,230.993347 
	C1214.091919,235.158768 1214.023560,239.326050 1214.063599,243.492081 
	C1214.081909,245.408752 1213.560669,247.496613 1216.501831,248.128815 
	C1218.753052,248.612701 1218.003418,250.819366 1218.016479,252.353973 
	C1218.081665,260.019623 1218.033325,267.686188 1218.047485,275.352356 
	C1218.051025,277.297577 1217.677612,279.253754 1220.156006,280.399994 
	C1221.769653,281.146271 1221.846802,283.067383 1221.776611,284.818207 
	C1220.327393,320.954651 1221.483154,357.106506 1221.205688,393.250397 
	C1221.178711,396.759003 1223.154175,400.516510 1218.580444,402.865448 
	C1217.927979,403.200500 1218.073853,405.335999 1218.066162,406.639496 
	C1218.023438,413.972168 1218.064209,421.305237 1218.035400,428.638031 
	C1218.027832,430.560669 1218.525024,432.691681 1215.596191,433.275726 
	C1213.586304,433.676514 1214.080566,435.600983 1214.070190,437.020081 
	C1214.026367,443.019409 1214.290527,449.032166 1213.968140,455.014465 
	C1213.743896,459.173798 1214.733276,463.157410 1211.608887,467.516083 
	C1209.380371,470.625061 1211.119263,476.538055 1210.972168,481.196106 
	C1210.898315,483.531464 1211.819946,486.179749 1208.625244,487.610016 
	C1207.400513,488.158356 1207.893433,490.033508 1207.886963,491.341614 
	C1207.867798,495.174591 1207.897461,499.007751 1207.892334,502.840851 
	C1207.889038,505.338531 1208.159302,507.926270 1205.155884,509.183868 
	C1203.578003,509.844574 1203.923218,511.384796 1203.911011,512.676453 
	C1203.881470,515.842590 1203.927368,519.009460 1203.898682,522.175598 
	C1203.889648,523.166687 1204.115234,524.710999 1203.597168,525.061768 
	C1197.779541,528.999939 1200.793701,534.920898 1200.114258,539.975220 
	C1199.874512,541.758789 1200.366577,543.688721 1197.854858,544.345337 
	C1197.214600,544.512756 1196.232422,545.622864 1196.342529,546.069519 
	C1197.964844,552.656677 1193.299927,558.021484 1192.924438,564.242310 
	C1192.655151,568.705994 1195.016235,573.753967 1190.240967,577.543152 
	C1189.395020,578.214355 1190.102051,580.735718 1189.930298,582.385864 
	C1189.583252,585.723755 1191.607300,589.972595 1186.504761,591.588989 
	C1186.224487,591.677795 1185.931152,592.535706 1186.040283,592.924072 
	C1188.111938,600.292236 1182.241577,606.099243 1182.122070,613.024231 
	C1182.113525,613.518311 1182.151489,614.341309 1181.907837,614.455078 
	C1176.543335,616.960693 1180.199341,621.999268 1178.737793,625.414490 
	C1176.351318,630.991089 1176.439331,637.435852 1174.288696,642.385498 
	C1171.234863,649.413757 1169.712646,656.525208 1167.425415,663.571228 
	C1166.203125,667.337158 1166.639038,672.763123 1164.389404,674.500977 
	C1160.286011,677.670959 1162.570801,682.484497 1160.584473,684.565125 
	C1156.004150,689.362854 1159.425415,696.848877 1156.584717,699.380676 
	C1152.011719,703.456421 1154.647705,708.997986 1150.998901,713.014160 
	C1149.216797,714.975586 1147.406128,719.094055 1146.977051,722.721802 
	C1146.620361,725.737366 1148.350098,729.596191 1143.559937,730.791504 
	C1143.244385,730.870300 1142.876221,732.079651 1143.052246,732.580322 
	C1144.917603,737.882141 1139.519897,741.404785 1139.770020,746.279785 
	C1133.425537,748.423218 1138.324707,756.736267 1132.657227,759.295288 
	C1132.349365,759.434265 1132.069214,760.269653 1132.194824,760.638306 
	C1133.991577,765.911926 1128.611694,769.431335 1128.897583,774.312744 
	C1121.515869,776.319153 1128.158691,785.160339 1122.276978,787.897827 
	C1123.039307,793.356079 1115.545410,796.309875 1117.908081,802.269653 
	C1118.016724,802.543701 1117.972656,803.133240 1117.807617,803.223083 
	C1114.472534,805.038879 1114.739746,808.819336 1113.087769,811.436096 
	C1112.139282,812.938538 1111.767212,814.738098 1110.869507,815.840332 
	C1107.614502,819.837036 1107.416138,824.499146 1106.324341,829.145142 
	C1105.225830,833.819519 1101.734741,837.763916 1099.476807,842.071960 
	C1097.498535,845.846375 1098.579468,850.697693 1096.520264,852.631836 
	C1093.416870,855.546631 1094.631592,860.742981 1090.233276,862.319519 
	C1089.320923,862.646545 1089.064941,863.538269 1089.160400,864.370911 
	C1089.643799,868.592957 1085.011719,871.049500 1085.487305,875.584045 
	C1085.629761,876.943726 1082.736816,880.232544 1081.621460,881.063232 
	C1077.823853,883.891479 1080.867065,890.041626 1075.731201,891.508484 
	C1076.262573,895.823853 1072.653198,898.298218 1071.093750,901.674500 
	C1069.208618,905.755798 1068.639038,910.113586 1067.383423,914.197754 
	C1066.623779,916.668640 1064.728760,919.793030 1063.128784,922.452393 
	C1060.879517,926.190857 1059.197510,930.054993 1057.926392,934.140503 
	C1056.932007,937.336487 1054.020874,938.777100 1051.890991,940.833740 
	C1050.844849,941.843933 1050.048828,942.515503 1050.113770,943.929199 
	C1050.211548,946.055054 1048.989014,946.960449 1047.563599,948.479614 
	C1045.193359,951.005737 1044.235718,954.987610 1043.112061,958.493896 
	C1042.606323,960.071777 1042.983765,961.841125 1040.651001,962.091125 
	C1039.731201,962.189697 1039.294189,962.908325 1039.123291,963.809692 
	C1038.188843,968.739014 1034.369141,972.964172 1033.708740,977.294006 
	C1032.979858,982.072449 1029.800049,985.315735 1028.097778,988.955261 
	C1026.720337,991.900269 1026.396973,997.160645 1021.594910,998.954651 
	C1019.576965,999.708618 1018.619629,1002.969666 1016.835510,1004.744507 
	C1011.981506,1009.573059 1006.975891,1014.251404 1001.963257,1018.917053 
	C999.871826,1020.863953 998.432861,1023.939453 994.619080,1023.132935 
	C993.470154,1022.889954 993.476501,1024.521973 992.889404,1025.163208 
	C990.810120,1027.433838 988.951111,1029.448608 985.344116,1030.385986 
	C981.807556,1031.305176 977.003296,1031.688721 974.782288,1035.877319 
	C974.205139,1036.965820 973.220215,1037.016602 972.235413,1037.018921 
	C970.200195,1037.023804 968.260681,1036.927368 967.502991,1039.540405 
	C967.130005,1040.826660 965.698853,1040.858765 964.516235,1040.853760 
	C957.062012,1040.822754 949.373657,1041.828735 942.259399,1040.251587 
	C939.050110,1039.540039 934.353149,1038.180176 931.706055,1034.401489 
	C930.045349,1032.030884 926.525452,1031.461304 924.083313,1030.385498 
	C915.776794,1026.726196 910.094482,1020.403931 904.189270,1014.126404 
	C901.695312,1011.475281 899.437256,1008.520325 895.176514,1008.846802 
	C894.620605,1008.889404 893.488403,1008.184021 893.515564,1008.093994 
	C895.023132,1003.090088 888.712036,1001.192017 889.016602,996.693848 
	C889.101440,995.441284 888.180481,994.801636 887.383057,993.904846 
	C885.369019,991.639832 883.995789,988.391846 882.419495,986.371338 
	C878.806274,981.739807 878.882812,974.499084 872.505432,971.945068 
	C872.085571,971.776917 871.401733,971.211426 871.457031,971.067261 
	C872.849304,967.439636 869.552612,965.996094 867.959167,963.964600 
	C864.607422,959.691528 862.221313,954.733398 859.156677,950.310974 
	C856.529968,946.520630 854.474792,942.774048 850.559814,940.009460 
	C848.768250,938.744263 850.536438,935.752075 848.356934,933.410522 
	C846.355957,931.260681 843.555420,929.670349 842.006958,926.686218 
	C841.169373,925.072021 839.790771,923.787903 839.933472,921.737305 
	C840.173950,918.279663 836.350708,918.642944 834.905762,916.435547 
	C832.812927,913.238281 829.596741,911.300598 828.501770,906.779297 
	C827.673096,903.357544 823.114624,900.722900 819.947510,898.057068 
	C819.041687,897.294556 818.019226,896.935730 817.998352,895.593628 
	C817.901001,889.330444 812.411560,886.834045 808.859314,883.195679 
	C806.405762,880.682617 804.380310,877.310425 800.600037,876.199341 
	C800.310730,876.114258 800.016602,875.316772 800.072083,874.896301 
	C800.935059,868.358276 795.427734,865.678284 791.793396,862.378113 
	C787.208069,858.214600 783.192932,853.502991 778.637207,849.439819 
	C774.112183,845.404114 771.354980,839.529724 765.558777,836.919250 
	C764.441772,836.416199 764.103455,835.622009 764.138245,834.573364 
	C764.278564,830.340454 761.324524,828.226929 758.456604,825.951538 
	C756.750183,824.597534 755.978455,822.432007 754.222595,820.949524 
	C751.553711,818.696106 749.343994,816.601746 745.517883,815.572571 
	C741.956055,814.614380 738.624451,810.892761 736.339905,807.592712 
	C733.673767,803.741394 730.020569,801.150757 726.978394,797.862183 
	C724.047607,794.694031 719.884644,792.713501 717.975281,788.618774 
	C717.585449,787.782715 717.160950,787.056335 716.257874,787.093628 
	C709.638306,787.366455 707.934326,780.976929 703.757141,777.953125 
	C701.157227,776.070923 699.681335,772.378174 695.554565,772.920471 
	C694.559021,773.051208 693.853821,772.579895 693.114868,771.664185 
	C689.774353,767.524658 686.810730,763.389709 680.918640,761.670837 
	C677.413940,760.648438 674.878723,756.177612 672.034241,753.138672 
	C671.553650,752.625061 671.690674,751.407471 670.718018,751.249817 
	C665.389648,750.386169 660.634094,748.179810 656.117615,745.315125 
	C655.346313,744.825989 654.629395,745.355347 654.098389,746.176086 
	C652.330994,748.907837 650.900940,748.664612 649.881287,745.593506 
	C649.499634,744.444092 648.516235,743.766113 647.671570,744.707214 
	C643.954041,748.849121 638.894104,749.935974 633.851929,751.095276 
	C632.681946,751.364258 632.575439,752.451660 631.950745,753.052429 
	C628.380615,756.485779 625.730042,760.672119 620.392456,762.512268 
	C616.755737,763.765869 614.036438,767.818787 611.081116,770.793030 
	C610.494141,771.383850 610.621460,772.964783 609.380981,772.852478 
	C602.827209,772.258911 600.842285,778.263550 597.066895,781.510254 
	C594.320923,783.871643 592.585693,787.432678 588.171082,787.007507 
	C585.290527,786.730103 586.079590,789.833496 584.557190,791.085938 
	C579.397095,795.330688 574.624268,800.066833 569.890686,804.802307 
	C566.639465,808.054810 563.706299,811.624451 560.607178,815.030762 
	C560.296204,815.372559 559.838989,815.754822 559.417419,815.796997 
	C549.915039,816.749207 544.741272,824.846802 541.008972,831.080322 
	C536.741760,838.207397 530.223572,842.420410 525.743042,848.652161 
	C520.079712,856.528931 511.730225,861.518738 505.758850,868.950623 
	C505.181824,869.668762 503.951508,869.987610 504.068573,871.143188 
	C504.768524,878.053040 497.716125,878.976257 494.925781,883.143860 
	C492.118195,887.337341 486.179962,889.253479 486.021606,895.764038 
z"/>
<path fill="#0A113A" opacity="1.000000" stroke="none" 
	d="
M379.000000,681.083679 
	C356.669434,681.083191 334.838837,681.111084 313.008362,681.072449 
	C298.128662,681.046082 289.769043,672.769104 289.765442,657.842041 
	C289.733704,526.358765 289.734100,394.875488 289.764160,263.392212 
	C289.767578,248.440887 298.121429,240.021347 312.895538,240.006912 
	C348.390869,239.972290 383.895172,239.528229 419.379669,240.159897 
	C476.861572,241.183136 527.888123,259.488098 569.809570,299.770996 
	C602.585693,331.266113 622.020081,370.159424 629.706787,414.721161 
	C637.313232,458.817993 635.175537,502.496735 619.159485,544.638062 
	C592.645996,614.400085 542.030884,657.092529 469.994171,674.941101 
	C445.518433,681.005554 420.532623,681.476440 395.496826,681.095520 
	C390.165741,681.014404 384.832336,681.083679 379.000000,681.083679 
z"/>
<path fill="#0A113B" opacity="1.000000" stroke="none" 
	d="
M1054.178711,289.115540 
	C1057.640137,298.621307 1056.215820,303.785767 1048.675659,310.010529 
	C1048.293213,310.326324 1047.851807,310.591919 1047.535522,310.963867 
	C1038.915649,321.098206 1028.951538,321.913208 1018.831665,313.079987 
	C1006.819397,302.595062 993.817932,293.568604 978.864868,287.965607 
	C915.804688,264.336578 840.014587,273.483002 784.761475,332.924103 
	C710.087585,413.258270 720.038269,541.723389 806.040466,608.635559 
	C868.251770,657.037720 953.912720,657.280151 1017.725525,609.233032 
	C1019.055786,608.231445 1020.362976,607.198853 1021.699768,606.206055 
	C1032.026245,598.537354 1043.462402,599.383789 1051.166382,608.380005 
	C1058.536865,616.986633 1057.552979,631.062073 1048.714233,639.118286 
	C1029.455444,656.671814 1007.281250,669.402405 982.327026,676.682922 
	C838.037781,718.779663 723.573486,626.503174 697.358032,512.237427 
	C673.984253,410.357330 721.052551,306.721680 812.352112,258.306213 
	C851.534241,237.528229 893.441895,231.390976 937.286438,235.620834 
	C979.625732,239.705490 1016.512390,256.208984 1048.937988,283.331726 
	C1050.862915,284.941833 1052.777710,286.531799 1054.178711,289.115540 
z"/>
<path fill="#141414" opacity="1.000000" stroke="none" 
	d="
M258.638489,130.123596 
	C260.881531,129.803833 261.220734,130.885193 260.923035,132.391968 
	C260.654144,133.752808 259.470154,133.701263 258.658783,133.325119 
	C257.064484,132.586044 257.423370,131.356491 258.638489,130.123596 
z"/>
<path fill="#FFFFFF" opacity="1.000000" stroke="none" 
	d="
M333.785522,550.999878 
	C333.785553,462.039978 333.823395,373.579987 333.677612,285.120331 
	C333.670074,280.540527 334.841736,279.374237 339.383728,279.426056 
	C367.699860,279.749207 396.045990,279.010254 424.333160,280.010040 
	C507.895538,282.963379 573.754822,341.395325 587.077881,424.145508 
	C594.897522,472.713623 589.125916,519.287903 562.633179,561.659790 
	C533.804077,607.768250 491.555267,633.411499 437.757141,640.084412 
	C414.035095,643.026855 390.164368,641.223267 366.362305,641.605591 
	C357.035614,641.755371 347.698578,641.437134 338.378265,641.723145 
	C334.554535,641.840515 333.680573,640.652344 333.700562,636.959351 
	C333.854950,608.473572 333.785583,579.986572 333.785522,550.999878 
z"/>
</svg>