<svg version="1.1" id="Layer_1" xmlns="http://www.w3.org/2000/svg" xmlns:xlink="http://www.w3.org/1999/xlink" x="0px" y="0px"
	 width="100%" viewBox="0 0 764 660" enable-background="new 0 0 764 660" xml:space="preserve">
<path fill="#090F39" opacity="1.000000" stroke="none" 
	d="
M1.000000,238.000000 
	C1.000000,160.000000 1.028939,82.499954 0.903841,5.000155 
	C0.898314,1.575735 1.576521,0.904392 5.000039,0.905794 
	C257.000000,1.008979 509.000000,1.008979 760.999939,0.905793 
	C764.423462,0.904392 765.096008,1.576473 765.094360,5.000045 
	C764.989563,222.333328 764.989563,439.666656 765.094360,656.999939 
	C765.096008,660.423523 764.423462,661.095581 760.999939,661.094177 
	C509.000000,660.991028 257.000000,660.991028 5.000039,661.094177 
	C1.576522,661.095581 0.902344,660.423767 0.905071,656.999939 
	C1.016168,517.500000 1.000000,378.000000 1.000000,238.000000 
z"/>
<path fill="#C2C2C3" opacity="1.000000" stroke="none" 
	d="
M82.034966,476.119202 
	C77.923378,472.570282 78.162529,467.513123 76.356728,463.318054 
	C73.540123,456.774841 71.719322,449.902222 69.638901,443.106445 
	C67.762589,436.977417 65.755096,430.734314 63.435474,424.794800 
	C61.381451,419.535278 60.489296,413.743011 57.244572,408.794037 
	C55.720840,406.469971 55.756252,402.817017 55.442638,399.990723 
	C54.997326,395.977509 52.978321,392.503693 52.261375,388.642395 
	C51.786423,386.084351 50.122482,382.794006 49.835648,379.883942 
	C49.351330,374.970276 47.704365,370.169464 46.002144,365.992340 
	C43.181660,359.071075 44.954479,351.080963 40.244881,344.867798 
	C40.070667,344.637970 40.045479,344.197357 40.116638,343.893829 
	C41.479725,338.079132 37.352665,333.157806 37.513176,327.314392 
	C37.600136,324.148621 35.723915,320.548035 35.059448,316.958221 
	C34.210415,312.371307 35.713367,306.594635 33.529953,303.565155 
	C29.685701,298.231293 34.171883,291.467377 29.161936,287.037292 
	C28.902269,286.807678 29.023722,286.066284 29.077330,285.575165 
	C29.982679,277.280945 28.395899,268.979218 27.160831,261.016632 
	C25.630880,251.152863 26.743513,241.102997 24.790789,231.627792 
	C20.897486,212.736343 22.960917,193.836166 23.488285,175.078293 
	C23.713396,167.071426 23.299984,158.365997 25.443947,150.611908 
	C27.877932,141.808945 27.297026,132.806564 29.315147,124.219460 
	C31.188648,116.247719 33.266167,108.226974 35.726677,100.411522 
	C37.606049,94.441971 40.572952,88.720802 43.019924,82.894844 
	C44.951828,78.295189 47.831631,73.524590 51.257198,69.779968 
	C52.976601,67.900421 52.814411,65.652161 54.625332,63.765556 
	C61.168015,56.949406 69.935349,54.504459 77.858093,50.508213 
	C84.568085,47.123680 91.809914,44.804863 98.765045,41.891846 
	C105.971153,38.873718 113.333450,36.702229 120.974129,34.849457 
	C126.726151,33.454655 132.629089,30.668758 138.507996,29.684832 
	C143.214462,28.897129 148.237488,28.032743 152.333817,26.439730 
	C159.097168,23.809551 166.671661,26.469294 172.882767,22.177916 
	C173.687408,21.621965 175.161774,22.004545 176.325912,22.004284 
	C193.990097,22.000309 211.705124,21.249985 229.289810,22.433605 
	C235.128693,22.826618 241.550491,22.879784 247.110092,24.620264 
	C256.247253,27.480728 265.576080,28.912107 274.808197,31.035873 
	C282.028107,32.696754 289.475281,34.565651 296.202789,37.393143 
	C302.490143,40.035637 309.099426,42.233147 315.364014,44.991589 
	C321.009430,47.477383 327.115173,49.809608 332.917847,52.209778 
	C339.856720,55.079926 346.775726,58.331882 353.473053,61.989033 
	C358.524384,64.747368 364.383667,67.343735 369.826721,69.772049 
	C374.656494,71.926758 379.566803,71.940964 384.044220,72.557487 
	C389.190704,73.266129 395.079163,72.028984 400.699860,70.152328 
	C406.456055,68.230423 410.997467,63.738514 417.034119,63.146038 
	C419.164703,62.936932 419.798889,61.255688 421.241577,60.488869 
	C429.064087,56.331074 437.202179,53.116600 445.381073,49.781769 
	C450.690552,47.616905 456.060455,44.979317 461.471130,42.997944 
	C469.158051,40.182991 476.865692,37.317646 484.761536,34.952454 
	C491.590729,32.906773 498.573425,31.014973 505.439392,29.584753 
	C510.119659,28.609838 515.633606,27.974621 519.574463,26.315197 
	C526.049561,23.588614 533.323120,26.710003 539.116150,22.222019 
	C539.969116,21.561153 541.711548,22.010521 543.042419,22.009912 
	C560.539978,22.001902 578.084167,21.283674 595.509216,22.407923 
	C601.393372,22.787563 607.817566,22.981131 613.445251,24.637362 
	C622.510376,27.305223 631.673401,29.068773 640.821167,31.148195 
	C643.580261,31.775381 647.133728,32.414822 649.966797,34.808914 
	C652.300659,36.781166 656.379333,35.204765 659.768066,36.754547 
	C663.578918,38.497353 667.683411,40.277409 671.592468,41.292427 
	C678.024658,42.962593 683.703979,46.255215 689.888489,48.354259 
	C694.787109,50.016895 700.120483,51.965973 704.229736,55.646835 
	C704.883850,56.232716 705.411011,56.660118 706.264404,56.790215 
	C715.504089,58.198753 718.722046,66.171570 722.858826,72.759064 
	C724.088135,74.716660 725.190186,77.699615 726.573547,79.054573 
	C730.056702,82.466209 729.801758,87.068817 731.813904,90.867912 
	C735.072144,97.019585 736.856323,103.754776 738.550964,110.607513 
	C740.177979,117.186775 742.180115,123.587280 743.259216,130.380081 
	C744.061523,135.430389 743.026794,140.973389 744.862183,145.306396 
	C748.200867,153.188583 745.305359,161.235550 747.101257,168.793488 
	C751.449463,187.092728 749.123596,205.570099 748.648499,223.845474 
	C748.404358,233.237747 748.576233,243.152084 746.541260,252.288544 
	C744.116150,263.176849 745.471863,274.431976 742.495056,284.811127 
	C740.892700,290.397980 743.113098,296.969330 738.393433,301.741608 
	C737.865051,302.275940 738.001038,303.687500 738.154480,304.639832 
	C739.122253,310.648224 738.109558,317.130920 736.137451,322.049866 
	C734.172668,326.950623 736.438171,332.826141 732.095276,336.803009 
	C731.746643,337.122223 731.921875,338.089111 731.964294,338.747864 
	C732.331116,344.449829 728.746033,349.377655 728.587769,354.830048 
	C728.450256,359.567627 726.991516,364.049805 725.390503,368.037720 
	C722.842224,374.384918 723.853516,381.588928 719.708252,387.507629 
	C718.048340,389.877777 718.046631,393.548096 717.412964,396.425812 
	C716.097290,402.400848 715.224670,408.778900 712.690735,414.088470 
	C709.156555,421.494141 708.159485,429.588165 704.732117,437.023499 
	C702.640991,441.559906 700.980347,446.810089 700.128967,452.138184 
	C699.401428,456.691956 696.481079,460.848419 695.187683,465.368652 
	C692.616577,474.354187 688.089478,482.590515 684.728027,491.221680 
	C681.966980,498.311066 680.961243,506.810303 674.811768,512.595398 
	C673.764282,513.580872 673.019287,516.003723 673.177185,516.935791 
	C674.150635,522.683655 669.266113,525.842407 667.605347,530.370972 
	C665.888000,535.053711 663.526733,539.565857 661.557861,544.214355 
	C659.429565,549.239258 657.542053,554.550903 654.491516,559.202393 
	C650.072510,565.940552 646.238220,572.946533 642.658875,580.200745 
	C639.773376,586.049072 637.107239,592.111755 632.941589,597.584473 
	C629.413513,602.219666 625.795776,607.107117 622.359680,611.944092 
	C619.117981,616.507446 614.364685,619.968933 610.519531,624.139343 
	C606.493042,628.506470 601.781006,632.028809 597.233765,635.771423 
	C593.457886,638.879028 588.579224,639.729553 584.492737,642.133484 
	C579.376221,645.143311 573.791687,646.258484 568.091492,645.917480 
	C559.655396,645.412781 551.962708,642.258301 544.829407,637.763123 
	C538.931030,634.046143 534.636536,628.527710 529.587036,623.876038 
	C526.992859,621.486206 525.502380,617.834961 523.372864,614.836121 
	C517.779602,606.959778 514.053772,597.920532 508.439972,589.868103 
	C503.280212,582.466919 497.418121,575.453247 493.060913,567.581177 
	C490.468933,562.898376 486.548950,559.406555 483.700653,554.966980 
	C480.791290,550.432190 476.222778,546.134827 473.527954,541.687561 
	C470.575378,536.814880 464.759491,534.079407 463.673553,527.815308 
	C463.357849,525.994202 460.122131,524.814514 458.549103,523.051575 
	C453.133789,516.982361 448.650543,510.109161 442.731415,504.473114 
	C437.466156,499.459747 432.903320,493.074493 427.096954,489.523651 
	C423.142120,487.105072 420.379700,482.877808 415.229645,481.366516 
	C411.748810,480.345062 407.324921,477.840240 404.486816,474.926544 
	C402.271942,472.652679 399.911285,473.632141 397.813354,472.882629 
	C393.913361,471.489258 389.296112,469.457153 385.693726,470.047760 
	C381.909790,470.668182 377.834808,472.070007 373.911285,472.664917 
	C368.820251,473.436859 364.675903,476.376556 360.629059,478.647430 
	C357.702362,480.289673 354.128387,481.853363 351.507019,484.625519 
	C347.251709,489.125580 341.523010,491.935883 337.421539,496.805786 
	C332.247040,502.949768 325.504059,507.684326 320.734375,514.210876 
	C317.207214,519.037170 311.523834,522.652832 309.207031,527.424805 
	C306.670288,532.649658 299.932709,534.738831 299.964111,541.257874 
	C299.965149,541.476868 299.576355,541.777161 299.305695,541.906311 
	C294.064392,544.407532 292.483002,550.079468 288.969574,554.081116 
	C284.307068,559.391479 280.441162,565.450256 276.627411,571.438782 
	C274.292114,575.105713 271.381439,578.321228 268.950256,581.920166 
	C263.208191,590.420227 257.187073,598.657104 252.832367,608.030518 
	C251.304016,611.320312 248.552963,614.018982 246.653656,617.164734 
	C243.386887,622.575378 238.928070,626.837830 234.664825,631.417419 
	C230.449921,635.945190 225.312469,638.730774 220.353531,641.625244 
	C215.276779,644.588379 209.091690,646.247192 203.063019,645.854980 
	C196.606323,645.434998 190.569855,643.666992 184.412888,640.649658 
	C178.621918,637.811707 173.410492,634.393188 168.441864,630.648254 
	C163.681198,627.059937 160.087860,621.956482 155.472565,618.133240 
	C149.757401,613.398926 145.887512,607.099670 141.329422,601.521118 
	C138.643982,598.234436 135.950165,594.210632 133.926651,590.022278 
	C129.466400,580.790161 125.696053,571.257751 119.662018,562.694946 
	C116.714333,558.511963 114.585777,553.170593 112.438942,548.154541 
	C108.739677,539.511353 106.368172,530.030090 99.733917,522.797058 
	C99.350082,522.378601 99.084602,521.581848 99.180954,521.034546 
	C100.075989,515.949951 96.725700,512.243164 94.418381,508.581604 
	C92.926643,506.214355 92.458588,503.679779 91.454407,501.322296 
	C88.664345,494.772156 86.319061,488.034912 83.259476,481.578461 
	C82.525467,480.029541 82.671143,478.063751 82.034966,476.119202 
z"/>
<path fill="#FFFFFF" opacity="1.000000" stroke="none" 
	d="
M484.540100,533.671387 
	C476.306580,527.158691 471.845398,517.688354 464.119720,511.229248 
	C460.354767,508.081573 456.005188,504.782745 453.811371,500.985901 
	C451.232056,496.521973 448.277740,492.747620 444.390472,490.002106 
	C437.691162,485.270477 432.539642,479.012146 426.511780,473.743164 
	C422.114807,469.899719 416.843872,466.550568 412.268097,462.737915 
	C408.146851,459.303925 403.274719,456.967987 399.519806,452.866882 
	C396.838043,449.937836 392.508484,447.766022 388.567993,446.969727 
	C385.186035,446.286346 381.661896,448.262054 378.080444,450.021423 
	C369.130249,454.418182 362.299255,461.357086 354.596039,467.123474 
	C347.046173,472.775024 339.078247,478.252167 333.445374,486.295074 
	C331.830688,488.600647 327.845367,488.754547 325.855865,491.285706 
	C317.825928,501.502167 308.262543,510.340912 299.873871,520.212769 
	C296.511993,524.169006 292.942810,527.880493 289.509979,531.734070 
	C285.799438,535.899353 283.058594,540.914856 279.726166,545.435120 
	C277.214294,548.842468 274.515137,552.096313 272.083710,555.584656 
	C269.111542,559.848694 266.443420,564.354187 263.481781,568.504700 
	C259.853119,573.590027 256.306366,578.826111 252.396942,583.748657 
	C251.890579,584.386292 250.669495,584.850891 250.652328,585.421814 
	C250.461548,591.764954 243.619644,594.757629 242.984100,600.772583 
	C242.663269,603.808899 239.558105,602.411499 238.526230,603.814331 
	C233.442368,610.726013 225.925568,614.473450 219.246780,619.380127 
	C212.657471,624.221130 199.236374,624.291809 192.789566,619.401367 
	C188.865311,616.424561 184.136169,614.528015 179.866287,611.982361 
	C175.148743,609.169861 171.670670,604.847778 168.146851,600.854126 
	C162.346008,594.279968 159.173813,585.947571 154.932343,578.323730 
	C151.666092,572.452820 149.839020,565.975830 145.258957,560.503357 
	C142.016418,556.629028 139.901306,550.967346 138.147736,545.803589 
	C136.254028,540.227173 133.656845,535.055603 131.089066,529.814087 
	C127.560593,522.611389 123.218086,515.825500 120.892639,507.993835 
	C119.729515,504.076782 117.164536,500.574219 115.213699,496.894714 
	C114.918610,496.338196 114.254425,495.864532 114.200531,495.309845 
	C113.431480,487.394501 107.917969,481.324219 105.978531,473.810455 
	C103.909378,465.794128 97.927589,459.053986 97.915138,450.313568 
	C97.911964,448.083588 95.748169,447.685120 94.914467,446.033203 
	C92.188904,440.632751 92.133728,434.422119 89.113754,429.110413 
	C86.629227,424.740479 85.621941,419.838440 84.777466,414.774536 
	C83.900787,409.517517 80.998596,404.629852 79.371017,399.458282 
	C77.443413,393.333405 75.103737,387.384125 73.680496,381.020142 
	C72.296524,374.831818 70.788094,368.527435 68.762688,362.383881 
	C66.677216,356.058167 63.943836,349.615143 63.990089,342.699463 
	C64.028877,336.900299 60.978367,331.999359 59.676174,326.599854 
	C59.408669,325.490662 59.048439,324.361725 59.038986,323.239319 
	C58.984997,316.829010 57.062611,310.814758 55.284748,304.763489 
	C55.145706,304.290253 55.002811,303.756073 55.084644,303.289307 
	C56.314972,296.271667 53.977341,289.318665 52.435299,282.987823 
	C49.345951,270.304596 50.741749,257.474060 48.710907,244.988159 
	C44.809525,221.001938 46.941040,196.974396 47.373627,173.052719 
	C47.568092,162.298965 47.957512,150.955185 50.506172,140.372391 
	C52.092648,133.784851 52.793339,126.690765 56.047722,120.572906 
	C57.659370,117.543190 57.175911,114.262062 58.177639,111.130180 
	C60.016262,105.381767 63.682438,100.532417 64.944290,94.461632 
	C66.066086,89.064629 69.607803,84.091591 72.566887,79.472359 
	C74.104462,77.072144 77.335175,73.831360 81.463234,72.795761 
	C85.443596,71.797211 88.246239,68.202843 92.167984,66.436264 
	C100.106369,62.860359 107.606888,58.032238 115.591789,54.843784 
	C122.647743,52.026264 130.001648,49.318687 137.623810,47.485180 
	C142.449600,46.324337 148.387589,47.804531 152.447021,43.461769 
	C152.805573,43.078182 153.723618,43.087238 154.370346,43.122734 
	C165.350708,43.725403 176.261612,40.732109 187.182022,42.068394 
	C194.484619,42.961975 202.644867,40.946842 208.794968,43.638760 
	C215.632431,46.631535 222.543823,44.902245 229.249756,47.315105 
	C233.591629,48.877354 238.877090,50.015285 243.990326,50.212307 
	C248.643417,50.391602 253.064178,52.533455 257.579010,53.276405 
	C264.018250,54.336048 269.591522,58.733280 276.299927,58.001232 
	C279.811340,57.618061 281.638397,60.570286 284.803772,61.242535 
	C294.224457,63.243259 303.507629,66.134842 312.603516,69.358299 
	C323.329407,73.159393 334.225403,76.451324 344.904358,80.277695 
	C349.377075,81.880302 354.005890,84.657600 358.493683,85.974411 
	C367.172668,88.521011 374.956482,93.484901 384.002136,94.856453 
	C388.830933,95.588631 393.174316,93.654762 397.406830,92.222519 
	C405.046631,89.637283 412.766510,86.794724 419.985168,83.515564 
	C428.386749,79.699059 437.869629,78.846031 445.604797,73.495735 
	C446.826538,72.650688 448.835663,73.005280 450.447296,72.652458 
	C459.286987,70.717316 467.329132,66.413544 476.057434,64.022026 
	C479.752380,63.009617 483.735352,63.405075 487.279022,61.048515 
	C493.524902,56.895020 501.388062,57.503780 508.374908,54.772190 
	C514.881226,52.228455 522.381470,50.943371 529.645569,49.808987 
	C534.789307,49.005726 540.312866,48.923527 545.194763,46.491199 
	C545.491943,46.343159 545.835022,46.057949 546.101624,46.111481 
	C553.816772,47.661045 560.627686,42.462914 568.177673,43.118061 
	C575.035461,43.713146 581.720093,42.101616 588.513977,41.860737 
	C598.340027,41.512363 608.122131,42.771259 617.807983,43.594055 
	C622.369568,43.981552 627.681274,45.645050 632.542175,47.240112 
	C637.567322,48.889065 642.802795,49.957996 647.868774,51.729137 
	C660.884521,56.279613 672.913269,62.932419 684.990051,69.334106 
	C690.880432,72.456482 698.259644,75.103020 700.893555,82.037537 
	C703.125916,87.914764 707.681091,92.527763 708.581848,99.298065 
	C709.060059,102.892044 711.721252,106.821251 713.499329,110.467178 
	C715.379944,114.323265 714.468018,118.510971 716.727966,122.201553 
	C719.803345,127.223755 718.673523,133.538803 721.454834,139.101791 
	C723.467102,143.126495 722.844910,148.900177 722.813171,153.747391 
	C722.728271,166.731186 727.166077,179.166885 726.114990,192.321320 
	C725.083008,205.236389 726.195984,218.307922 725.791626,231.292847 
	C725.477417,241.382965 722.261963,251.202805 722.272827,261.379059 
	C722.274048,262.529999 721.720520,263.748749 721.952698,264.821686 
	C723.907776,273.857483 719.458374,282.128845 718.593872,290.845551 
	C717.857605,298.268738 716.736328,305.947266 714.919556,313.291565 
	C713.250122,320.039978 713.135742,327.333008 710.435608,333.502686 
	C707.806824,339.509491 708.803955,345.835571 706.671570,351.447113 
	C704.437622,357.325897 703.144104,363.400452 701.271912,369.334198 
	C699.868958,373.780731 699.179443,378.446991 697.963379,382.959167 
	C696.535828,388.256775 694.920776,393.505310 693.316528,398.753601 
	C691.271118,405.445404 687.269104,411.356628 686.747009,418.740234 
	C686.304382,424.999908 681.513245,430.157013 680.411194,436.452026 
	C679.022217,444.385529 673.300781,450.659332 672.449341,459.089417 
	C672.061584,462.928162 668.856323,467.013062 667.342346,471.292267 
	C664.474548,479.397949 659.881958,486.826263 657.724243,495.303497 
	C656.998535,498.154572 654.657471,500.569641 653.210632,503.267548 
	C650.764038,507.829590 650.107666,513.122131 647.143555,517.535217 
	C644.307922,521.757019 642.793457,526.706421 640.357849,531.201355 
	C637.097595,537.218262 634.999756,543.854675 631.907715,549.974915 
	C624.839417,563.965454 617.089783,577.595825 610.518860,591.860229 
	C606.856445,599.810730 600.311707,606.185364 593.436890,611.029358 
	C587.165894,615.447815 580.468628,620.312866 573.013855,622.472107 
	C566.518616,624.353638 559.488953,623.737610 553.121216,619.866699 
	C545.072327,614.973999 538.529968,608.202759 530.902344,602.811523 
	C530.520386,602.541626 530.075134,602.116211 529.996399,601.699463 
	C528.905823,595.932129 524.059631,592.318665 521.587585,587.203064 
	C518.653931,581.132141 514.884888,574.891296 509.684448,570.167603 
	C507.525330,568.206421 507.438599,565.569031 505.959412,563.403748 
	C501.304718,556.589844 495.438690,550.699768 491.483643,543.293945 
	C489.757843,540.062317 485.625793,538.121094 484.540100,533.671387 
z"/>
<path fill="#0B123C" opacity="1.000000" stroke="none" 
	d="
M271.000000,98.070740 
	C290.306030,98.425385 309.181427,96.903618 327.888580,99.975838 
	C367.634949,106.503265 399.179535,125.789536 420.782715,160.228271 
	C422.756714,163.375137 424.285156,163.796677 427.791534,162.838730 
	C473.157623,150.444595 515.198669,156.267502 552.659363,186.247070 
	C559.053406,191.364212 560.512634,197.139359 556.721497,202.063354 
	C549.933411,210.879837 542.773376,212.545593 535.655579,206.466873 
	C506.950653,181.952332 474.043579,178.908508 438.809723,187.046921 
	C434.821747,187.968094 434.347870,189.380508 435.357117,193.446945 
	C447.057953,240.591995 442.330109,285.019409 412.395294,324.903534 
	C402.777161,337.718475 390.745392,347.972992 376.815216,355.843781 
	C373.237305,357.865326 373.277283,359.408203 375.224579,362.554291 
	C409.280853,417.575439 482.525238,431.272949 534.464905,392.254669 
	C535.396912,391.554535 536.299744,390.813782 537.250977,390.141235 
	C543.872498,385.459839 550.889160,385.991364 555.623413,391.518280 
	C560.337830,397.022034 559.741333,405.624390 554.023254,410.911346 
	C545.514038,418.779114 535.926941,425.144012 525.244568,429.606171 
	C466.263611,454.243469 391.689148,440.191040 350.781281,373.323059 
	C348.580383,369.725433 346.772064,368.749969 342.635681,369.963562 
	C330.424988,373.546204 317.830627,374.933075 305.117249,374.975281 
	C283.619659,375.046631 262.121643,375.021027 240.623871,374.997070 
	C230.452118,374.985748 225.227158,369.816895 225.223801,359.598694 
	C225.196960,277.606964 225.197510,195.615250 225.222214,113.623543 
	C225.225388,103.120911 230.365295,98.120125 241.004440,98.080666 
	C250.836166,98.044189 260.668121,98.071518 271.000000,98.070740 
z"/>
<path fill="#4A4A4A" opacity="1.000000" stroke="none" 
	d="
M152.978455,81.134995 
	C152.043488,82.310997 151.073456,82.296875 150.380447,81.383881 
	C149.984558,80.862328 150.235779,80.032555 150.903534,79.685135 
	C152.045380,79.091057 152.782013,79.500381 152.978455,81.134995 
z"/>
<path fill="#FEFEFE" opacity="1.000000" stroke="none" 
	d="
M330.889771,282.826843 
	C328.664825,302.909607 330.471832,322.206268 336.268494,341.049988 
	C337.442535,344.866608 336.545319,345.956451 333.034973,346.691711 
	C324.543335,348.470276 316.032104,350.023743 307.331177,350.061829 
	C290.505890,350.135406 273.679565,350.046143 256.855347,350.202362 
	C253.848495,350.230316 252.904953,349.504181 252.908875,346.351532 
	C252.999893,273.051788 252.987366,199.751892 252.942154,126.452042 
	C252.940704,124.110283 253.172272,122.824532 256.080017,122.899963 
	C276.885376,123.439636 297.768555,121.577415 318.497803,123.960533 
	C351.503815,127.755051 377.391876,143.600571 395.918945,171.339371 
	C398.066864,174.555237 398.164825,176.104141 394.489563,178.579269 
	C357.544891,203.460022 336.377411,238.140656 330.889771,282.826843 
z"/>
<path fill="#FCFCFD" opacity="1.000000" stroke="none" 
	d="
M357.419495,309.472748 
	C354.615814,265.616211 370.606232,230.693527 404.892609,204.083481 
	C409.186218,200.751144 409.426453,200.828873 410.520752,206.238708 
	C418.851135,247.422394 412.509918,285.069489 383.497009,317.153595 
	C379.466888,321.610352 374.918579,325.537903 370.034882,329.044037 
	C367.622040,330.776306 365.368011,332.798462 362.266724,333.872772 
	C359.474365,326.068085 358.261993,318.044495 357.419495,309.472748 
z"/>
</svg>