<svg version="1.1" id="Layer_1" xmlns="http://www.w3.org/2000/svg" xmlns:xlink="http://www.w3.org/1999/xlink" x="0px" y="0px"
	 width="100%" viewBox="0 0 814 106" enable-background="new 0 0 814 106" xml:space="preserve">
<path fill="#0A113A" opacity="1.000000" stroke="none" 
	d="
M54.000000,107.000000 
	C36.337658,107.000000 18.675318,107.000000 1.009733,107.000000 
	C1.006489,71.679642 1.006489,36.359287 1.006489,1.019466 
	C272.253937,1.019466 543.507874,1.019466 814.880859,1.019466 
	C814.880859,36.244911 814.880859,71.490356 814.880859,107.000000 
	C583.311401,107.000000 351.622681,107.000000 119.545639,106.665092 
	C122.665085,102.453606 127.160721,99.085060 129.471115,94.592674 
	C134.012314,85.762680 137.974258,76.512909 141.021393,67.064491 
	C145.793854,52.266235 148.446411,37.055023 146.088181,21.347483 
	C144.932693,13.651213 141.612549,8.414994 133.650864,5.724918 
	C119.282036,0.870010 105.757767,2.522234 92.621780,9.247850 
	C88.511482,11.352321 85.029228,11.444964 80.887070,9.297941 
	C66.543060,1.862945 51.807377,0.539125 36.626221,7.021911 
	C32.603649,8.739662 29.510221,11.299290 28.970617,15.462652 
	C27.911579,23.633776 26.159164,32.065376 27.148756,40.086292 
	C30.175119,64.615837 35.408997,88.578827 54.000000,107.000000 
M237.645325,69.076874 
	C238.151413,67.672569 238.732071,66.290184 239.152390,64.860657 
	C245.477982,43.346661 231.818436,24.895462 209.482178,24.768969 
	C205.656906,24.747305 201.827225,24.874950 198.007309,24.730108 
	C194.894913,24.612095 193.326721,25.801390 193.331192,29.012362 
	C193.355530,46.476105 193.351395,63.939899 193.340637,81.403671 
	C193.338898,84.243317 194.601227,85.791504 197.537445,85.724800 
	C203.350342,85.592728 209.203659,85.829529 214.966537,85.218452 
	C225.095200,84.144463 232.626556,78.907646 237.645325,69.076874 
M497.138702,26.179375 
	C472.986084,17.956837 451.126556,36.934490 456.003754,61.891228 
	C460.068115,82.688698 485.494446,93.596817 501.997559,81.472610 
	C503.445312,80.408981 503.780640,77.831131 504.632690,75.956596 
	C502.739197,76.143852 500.481873,75.728096 499.010834,76.615593 
	C488.978394,82.668335 478.656250,82.236061 470.293060,75.080101 
	C461.795593,67.809258 458.891418,55.383434 463.266693,45.017265 
	C467.643097,34.648411 477.400269,28.410809 488.262878,29.887983 
	C492.188995,30.421892 495.812927,32.942364 499.688232,34.209190 
	C501.097198,34.669777 502.836426,34.119946 504.424988,34.031113 
	C503.939423,32.550556 503.845520,30.693933 502.872925,29.680956 
	C501.540894,28.293558 499.541565,27.546846 497.138702,26.179375 
M419.137787,85.164261 
	C421.860748,86.264465 423.676941,85.033363 423.667999,82.441940 
	C423.640442,74.476685 424.054688,66.373253 422.749268,58.582897 
	C421.032471,48.337296 410.886017,42.029285 399.818512,42.948784 
	C389.914825,43.771591 381.742920,51.852684 380.854584,61.702011 
	C379.828735,73.075768 385.796143,82.441422 395.846466,85.203743 
	C403.947327,87.430260 410.859680,85.045227 417.025330,79.239830 
	C417.590149,81.363632 418.041077,83.059196 419.137787,85.164261 
M268.013245,85.795364 
	C273.247528,84.592842 278.542969,83.590271 283.665588,82.022827 
	C284.718140,81.700768 285.124634,79.267395 285.828888,77.807190 
	C284.242615,77.690292 282.615387,77.305977 281.082886,77.540497 
	C279.840179,77.730667 278.755341,78.779778 277.524902,79.250191 
	C267.217041,83.191040 256.987976,77.346855 256.111664,66.465843 
	C257.768768,66.465843 259.379974,66.466049 260.991180,66.465805 
	C269.138794,66.464569 277.286743,66.420700 285.433838,66.485001 
	C288.284302,66.507492 289.719269,65.541183 289.678284,62.431290 
	C289.502350,49.081169 277.470886,39.996922 264.601074,43.602230 
	C255.366287,46.189236 249.843521,54.215366 249.978928,64.852242 
	C250.115189,75.555183 256.118927,82.817009 268.013245,85.795364 
M679.778809,66.467659 
	C687.928406,66.467491 696.078125,66.490494 704.227600,66.459099 
	C709.750244,66.437828 710.549927,65.421364 709.588013,59.883667 
	C707.756409,49.338360 700.647766,42.964115 690.633972,42.887539 
	C680.306396,42.808559 672.825684,49.031796 670.672913,59.493263 
	C668.779297,68.695694 672.100891,77.629974 679.179321,82.373337 
	C686.375549,87.195641 696.430237,87.280670 703.620728,82.228638 
	C704.859375,81.358337 705.183655,79.186577 705.930359,77.616013 
	C704.319824,77.596680 702.676819,77.375549 701.109802,77.627327 
	C700.023376,77.801903 699.077759,78.718010 698.007202,79.148590 
	C689.106567,82.728477 679.402527,78.638397 676.675110,70.265411 
	C675.950012,68.039444 675.551941,66.261879 679.778809,66.467659 
M534.380066,85.989189 
	C551.185669,84.461655 560.347290,68.178612 552.489258,53.803581 
	C547.469971,44.621471 536.674561,40.561550 526.328369,43.964916 
	C516.644043,47.150574 510.704010,57.055878 512.175415,67.565605 
	C513.691223,78.392212 521.719727,85.329063 534.380066,85.989189 
M315.218536,43.225956 
	C312.116516,44.667164 309.014465,46.108368 306.759399,47.156082 
	C304.946228,45.707260 303.399902,44.471630 301.853546,43.236000 
	C301.008087,45.013817 299.468750,46.777023 299.430939,48.571846 
	C299.203247,59.386257 299.188507,70.211296 299.467163,81.023384 
	C299.507355,82.582855 301.512054,84.091690 302.607666,85.623970 
	C303.537354,84.121681 305.202820,82.651428 305.269836,81.111580 
	C305.566376,74.299911 305.310669,67.466560 305.433807,60.644287 
	C305.547882,54.325401 308.830505,50.380039 314.881897,48.892166 
	C324.780609,46.458351 332.190979,51.832882 332.645813,62.070736 
	C332.926239,68.383690 332.540863,74.726974 332.848541,81.037415 
	C332.924744,82.600441 334.533295,84.088737 335.437469,85.611389 
	C336.545380,84.084541 338.497711,82.616455 338.608795,81.020241 
	C339.000732,75.388214 338.818512,69.711578 338.750641,64.053108 
	C338.572479,49.196945 330.899170,42.127369 315.218536,43.225956 
M619.718750,78.128342 
	C619.718872,78.627495 619.688232,79.128891 619.724487,79.625412 
	C619.895935,81.975853 618.870667,85.384712 622.521912,85.490555 
	C626.508301,85.606117 625.747559,82.057495 625.772766,79.513489 
	C625.836853,73.024963 625.834778,66.535217 625.792297,60.046402 
	C625.761780,55.379047 627.986267,52.120438 631.992126,50.038330 
	C642.028503,44.821697 652.593384,50.910702 652.899719,62.149109 
	C653.071960,68.467278 652.759705,74.802734 653.074585,81.109993 
	C653.151184,82.645256 654.838318,84.100121 655.784973,85.591965 
	C656.848633,84.207161 658.770630,82.858353 658.830505,81.431442 
	C659.122925,74.457207 659.181152,67.448723 658.824158,60.477844 
	C658.372559,51.660995 653.300781,45.607613 645.179138,43.505421 
	C638.147339,41.685303 631.873901,43.480320 627.069031,47.425224 
	C625.269165,45.761360 623.861938,44.460426 622.454651,43.159500 
	C621.542664,45.025528 619.896545,46.870617 619.842651,48.761124 
	C619.572327,58.237534 619.718750,67.725830 619.718750,78.128342 
M566.980957,76.382797 
	C566.981567,77.881355 566.591980,79.524338 567.079773,80.842621 
	C567.717224,82.565170 569.048767,84.030838 570.081665,85.607048 
	C571.056763,83.977913 572.794128,82.384895 572.873291,80.713303 
	C573.196045,73.901718 572.457764,67.001259 573.246521,60.266624 
	C573.641541,56.893608 575.750916,52.895180 578.376892,50.795197 
	C582.775940,47.277344 588.358276,47.461460 593.508972,49.989059 
	C598.408203,52.393272 600.126587,56.748184 600.161133,61.924347 
	C600.204468,68.417839 599.996216,74.921700 600.337585,81.397842 
	C600.413818,82.844658 602.323975,84.194817 603.389771,85.589470 
	C604.323975,84.265671 606.023926,82.965080 606.064880,81.614204 
	C606.286682,74.297211 606.401001,66.950134 605.975830,59.646992 
	C605.420471,50.107235 598.244568,42.937809 588.684204,43.134983 
	C583.500427,43.241894 578.359741,45.443180 573.488159,46.629471 
	C572.593323,45.840439 571.089539,44.514530 569.585754,43.188606 
	C568.717651,45.104794 567.159363,46.999805 567.099792,48.940811 
	C566.829346,57.757378 566.981079,66.586899 566.980957,76.382797 
M728.926086,44.119431 
	C727.606384,44.823017 726.208008,45.411240 724.979431,46.248512 
	C715.453308,52.740231 713.030701,67.090958 719.749451,76.975883 
	C726.131042,86.364594 739.844604,89.064323 748.904968,82.502892 
	C750.221313,81.549561 751.813171,78.984810 751.381104,77.987083 
	C750.147583,75.138885 748.045654,76.666794 746.079163,77.855804 
	C738.927002,82.180252 729.969116,80.863503 725.291626,74.941475 
	C720.363708,68.702324 720.881165,57.867737 726.369507,52.375576 
	C731.853333,46.887959 739.657532,47.143742 747.113708,52.759163 
	C748.254272,53.618156 750.228943,53.369759 751.817810,53.633545 
	C751.497375,52.055874 751.709473,49.972183 750.769592,48.983166 
	C744.916321,42.823540 737.699158,41.582386 728.926086,44.119431 
M775.381836,50.043316 
	C776.881409,50.042366 778.499695,50.396065 779.848450,49.944553 
	C781.308777,49.455677 782.517639,48.215771 783.836182,47.303402 
	C782.505737,46.389591 781.274048,44.956333 779.822449,44.680542 
	C777.493896,44.238136 775.019775,44.561951 772.353821,44.561951 
	C772.353821,40.200066 772.619934,36.684124 772.226807,33.243511 
	C772.062683,31.807314 770.496643,30.531311 769.568054,29.182457 
	C768.493347,30.576302 766.684998,31.875605 766.490784,33.382927 
	C766.032715,36.936840 766.343872,40.589878 766.343872,42.711052 
	C763.100403,44.667694 760.959167,45.959377 758.817993,47.251068 
	C761.066345,48.584480 763.314758,49.917892 766.356384,51.721748 
	C766.356384,57.182583 766.174255,63.821239 766.400269,70.445976 
	C766.716614,79.718071 772.552185,85.900589 780.813477,85.569672 
	C782.405945,85.505882 783.921814,83.528160 785.473022,82.433334 
	C784.041748,81.413551 782.717896,79.747581 781.160217,79.488770 
	C775.238098,78.504845 772.719788,76.388107 772.460327,70.560745 
	C772.193787,64.574089 772.298401,58.565094 772.459290,52.571762 
	C772.482300,51.713814 773.733887,50.888844 775.381836,50.043316 
M354.347900,62.471802 
	C354.469116,66.129272 354.288635,69.827477 354.775696,73.435570 
	C355.729004,80.497849 360.836823,85.310852 367.850708,85.524971 
	C369.680389,85.580826 372.820679,84.169838 373.175446,82.846962 
	C374.037903,79.630951 371.141418,79.435272 368.683899,79.342545 
	C363.987091,79.165329 360.955292,76.628716 360.721710,72.035995 
	C360.354492,64.816086 360.624146,57.563774 360.624146,50.033024 
	C363.478027,50.033024 366.012695,50.335934 368.417786,49.909054 
	C369.676788,49.685593 370.708374,48.180840 371.842651,47.254745 
	C370.664795,46.359932 369.579193,44.901424 368.289429,44.690369 
	C365.783112,44.280235 363.162201,44.570312 360.374084,44.570312 
	C360.374084,40.493073 360.697571,37.289799 360.249115,34.198509 
	C359.992493,32.429398 358.480408,30.842417 357.533569,29.173441 
	C356.472443,30.918341 354.785461,32.564037 354.489685,34.430244 
	C353.984039,37.620106 354.350189,40.948154 354.350189,42.638618 
	C351.060913,44.672668 348.941986,45.982994 346.823059,47.293320 
	C349.090088,48.614388 351.357117,49.935455 354.347900,51.678284 
	C354.347900,54.214737 354.347900,57.851044 354.347900,62.471802 
M434.008636,52.499985 
	C434.010590,58.990173 433.689026,65.503365 434.148224,71.961044 
	C434.385040,75.291695 435.182709,79.254356 437.245605,81.590332 
	C439.224945,83.831673 443.110901,84.535500 446.293610,85.442978 
	C446.920380,85.621689 448.814514,83.715744 448.924286,82.647835 
	C449.023499,81.683411 447.513824,79.664803 446.657227,79.633057 
	C440.447021,79.402954 440.005280,75.221092 440.003387,70.601944 
	C439.997772,56.955910 440.095551,43.308243 439.866913,29.665998 
	C439.839722,28.043407 438.043549,26.450462 437.067352,24.843779 
	C436.048462,26.406923 434.219360,27.934866 434.149658,29.539248 
	C433.832153,36.847744 434.009308,44.177738 434.008636,52.499985 
z"/>
<path fill="#BBBBBE" opacity="1.000000" stroke="none" 
	d="
M54.399994,107.000000 
	C35.408997,88.578827 30.175119,64.615837 27.148756,40.086292 
	C26.159164,32.065376 27.911579,23.633776 28.970617,15.462652 
	C29.510221,11.299290 32.603649,8.739662 36.626221,7.021911 
	C51.807377,0.539125 66.543060,1.862945 80.887070,9.297941 
	C85.029228,11.444964 88.511482,11.352321 92.621780,9.247850 
	C105.757767,2.522234 119.282036,0.870010 133.650864,5.724918 
	C141.612549,8.414994 144.932693,13.651213 146.088181,21.347483 
	C148.446411,37.055023 145.793854,52.266235 141.021393,67.064491 
	C137.974258,76.512909 134.012314,85.762680 129.471115,94.592674 
	C127.160721,99.085060 122.665085,102.453606 119.078644,106.665092 
	C117.933327,107.000000 116.866661,107.000000 115.309738,106.670647 
	C112.545738,103.765266 110.177101,101.266022 108.017731,98.597435 
	C103.329857,92.804062 99.108093,86.586487 94.021675,81.176071 
	C89.081749,75.921486 84.452606,76.034157 79.339508,81.143806 
	C75.370712,85.109932 72.057701,89.735283 68.483978,94.092873 
	C64.969124,98.378693 61.493076,102.696327 58.000000,107.000000 
	C56.933331,107.000000 55.866661,107.000000 54.399994,107.000000 
M45.984013,7.068387 
	C37.205395,8.963640 31.548519,13.996262 31.144852,23.270672 
	C30.813295,30.888346 30.618994,38.624893 31.551138,46.161911 
	C33.700089,63.537651 40.273762,79.530869 48.324425,94.965744 
	C53.199600,104.312523 58.589729,104.443459 64.867607,95.949966 
	C69.877693,89.171692 75.634453,82.919456 81.341774,76.692169 
	C84.726349,72.999237 88.732826,72.986191 92.132339,76.856651 
	C98.022011,83.562248 104.102119,90.152000 109.400978,97.309578 
	C114.024811,103.555382 120.045334,103.874985 123.991409,97.050438 
	C126.319954,93.023338 128.427094,88.833237 130.243103,84.550758 
	C138.414307,65.281593 144.553665,45.743629 142.424149,24.192467 
	C140.991455,9.693233 131.356125,5.813231 119.554733,6.602465 
	C109.959152,7.244184 100.610741,11.205275 91.075058,13.348880 
	C88.222534,13.990122 84.881523,14.199383 82.153847,13.352266 
	C70.603867,9.765255 59.349651,4.903466 45.984013,7.068387 
z"/>
<path fill="#0B113B" opacity="1.000000" stroke="none" 
	d="
M58.468658,107.000000 
	C61.493076,102.696327 64.969124,98.378693 68.483978,94.092873 
	C72.057701,89.735283 75.370712,85.109932 79.339508,81.143806 
	C84.452606,76.034157 89.081749,75.921486 94.021675,81.176071 
	C99.108093,86.586487 103.329857,92.804062 108.017731,98.597435 
	C110.177101,101.266022 112.545738,103.765266 114.909744,106.670647 
	C96.312439,107.000000 77.624878,107.000000 58.468658,107.000000 
z"/>
<path fill="#F0F1F3" opacity="1.000000" stroke="none" 
	d="
M237.460938,69.403610 
	C232.626556,78.907646 225.095200,84.144463 214.966537,85.218452 
	C209.203659,85.829529 203.350342,85.592728 197.537445,85.724800 
	C194.601227,85.791504 193.338898,84.243317 193.340637,81.403671 
	C193.351395,63.939899 193.355530,46.476105 193.331192,29.012362 
	C193.326721,25.801390 194.894913,24.612095 198.007309,24.730108 
	C201.827225,24.874950 205.656906,24.747305 209.482178,24.768969 
	C231.818436,24.895462 245.477982,43.346661 239.152390,64.860657 
	C238.732071,66.290184 238.151413,67.672569 237.460938,69.403610 
M214.813843,79.809372 
	C229.460938,76.119965 236.844193,64.313538 233.955734,49.199947 
	C231.223114,34.901779 218.244446,27.802475 199.742035,30.650047 
	C199.742035,46.982700 199.742035,63.351025 199.742035,79.918388 
	C204.661804,79.918388 209.298676,79.918388 214.813843,79.809372 
z"/>
<path fill="#F0F1F3" opacity="1.000000" stroke="none" 
	d="
M497.483459,26.352459 
	C499.541565,27.546846 501.540894,28.293558 502.872925,29.680956 
	C503.845520,30.693933 503.939423,32.550556 504.424988,34.031113 
	C502.836426,34.119946 501.097198,34.669777 499.688232,34.209190 
	C495.812927,32.942364 492.188995,30.421892 488.262878,29.887983 
	C477.400269,28.410809 467.643097,34.648411 463.266693,45.017265 
	C458.891418,55.383434 461.795593,67.809258 470.293060,75.080101 
	C478.656250,82.236061 488.978394,82.668335 499.010834,76.615593 
	C500.481873,75.728096 502.739197,76.143852 504.632690,75.956596 
	C503.780640,77.831131 503.445312,80.408981 501.997559,81.472610 
	C485.494446,93.596817 460.068115,82.688698 456.003754,61.891228 
	C451.126556,36.934490 472.986084,17.956837 497.483459,26.352459 
z"/>
<path fill="#EFF0F2" opacity="1.000000" stroke="none" 
	d="
M418.814880,84.959503 
	C418.041077,83.059196 417.590149,81.363632 417.025330,79.239830 
	C410.859680,85.045227 403.947327,87.430260 395.846466,85.203743 
	C385.796143,82.441422 379.828735,73.075768 380.854584,61.702011 
	C381.742920,51.852684 389.914825,43.771591 399.818512,42.948784 
	C410.886017,42.029285 421.032471,48.337296 422.749268,58.582897 
	C424.054688,66.373253 423.640442,74.476685 423.667999,82.441940 
	C423.676941,85.033363 421.860748,86.264465 418.814880,84.959503 
M388.509949,56.402489 
	C387.872559,59.284592 386.675232,62.171467 386.699738,65.047920 
	C386.782990,74.818390 394.488892,81.321602 404.203156,80.234482 
	C413.206482,79.226921 419.310303,70.655205 417.479767,61.461250 
	C416.162750,54.846664 412.403442,50.309982 405.665588,48.842354 
	C398.590027,47.301174 392.957520,49.693760 388.509949,56.402489 
z"/>
<path fill="#F2F3F5" opacity="1.000000" stroke="none" 
	d="
M267.595337,85.724991 
	C256.118927,82.817009 250.115189,75.555183 249.978928,64.852242 
	C249.843521,54.215366 255.366287,46.189236 264.601074,43.602230 
	C277.470886,39.996922 289.502350,49.081169 289.678284,62.431290 
	C289.719269,65.541183 288.284302,66.507492 285.433838,66.485001 
	C277.286743,66.420700 269.138794,66.464569 260.991180,66.465805 
	C259.379974,66.466049 257.768768,66.465843 256.111664,66.465843 
	C256.987976,77.346855 267.217041,83.191040 277.524902,79.250191 
	C278.755341,78.779778 279.840179,77.730667 281.082886,77.540497 
	C282.615387,77.305977 284.242615,77.690292 285.828888,77.807190 
	C285.124634,79.267395 284.718140,81.700768 283.665588,82.022827 
	C278.542969,83.590271 273.247528,84.592842 267.595337,85.724991 
M258.165100,54.832321 
	C257.353912,56.919109 256.542694,59.005901 255.575195,61.494804 
	C265.437225,61.494804 274.504272,61.494804 283.852631,61.494804 
	C283.297363,55.373108 280.522217,51.170113 275.014038,49.115211 
	C269.102295,46.909752 263.325317,48.829666 258.165100,54.832321 
z"/>
<path fill="#F2F2F4" opacity="1.000000" stroke="none" 
	d="
M679.316650,66.468689 
	C675.551941,66.261879 675.950012,68.039444 676.675110,70.265411 
	C679.402527,78.638397 689.106567,82.728477 698.007202,79.148590 
	C699.077759,78.718010 700.023376,77.801903 701.109802,77.627327 
	C702.676819,77.375549 704.319824,77.596680 705.930359,77.616013 
	C705.183655,79.186577 704.859375,81.358337 703.620728,82.228638 
	C696.430237,87.280670 686.375549,87.195641 679.179321,82.373337 
	C672.100891,77.629974 668.779297,68.695694 670.672913,59.493263 
	C672.825684,49.031796 680.306396,42.808559 690.633972,42.887539 
	C700.647766,42.964115 707.756409,49.338360 709.588013,59.883667 
	C710.549927,65.421364 709.750244,66.437828 704.227600,66.459099 
	C696.078125,66.490494 687.928406,66.467491 679.316650,66.468689 
M699.207153,61.753292 
	C700.763855,61.652443 702.320557,61.551594 703.851685,61.452400 
	C703.486023,52.247250 696.108765,48.086281 690.066833,48.267227 
	C682.561035,48.492016 677.288025,53.521557 676.459656,61.753300 
	C683.754944,61.753300 691.010742,61.753300 699.207153,61.753292 
z"/>
<path fill="#F1F1F3" opacity="1.000000" stroke="none" 
	d="
M533.941162,85.990883 
	C521.719727,85.329063 513.691223,78.392212 512.175415,67.565605 
	C510.704010,57.055878 516.644043,47.150574 526.328369,43.964916 
	C536.674561,40.561550 547.469971,44.621471 552.489258,53.803581 
	C560.347290,68.178612 551.185669,84.461655 533.941162,85.990883 
M521.480469,74.907524 
	C522.071350,75.492401 522.620483,76.128082 523.259766,76.654144 
	C528.579346,81.031464 536.227295,81.634499 541.888977,78.147438 
	C547.465149,74.713043 550.229431,67.743813 548.803162,60.715862 
	C547.445435,54.025608 542.352661,49.235737 535.394348,48.492790 
	C529.307739,47.842911 524.108154,49.857529 520.737549,55.092278 
	C516.646545,61.445736 516.912292,67.956841 521.480469,74.907524 
z"/>
<path fill="#EEEFF1" opacity="1.000000" stroke="none" 
	d="
M315.639648,43.152035 
	C330.899170,42.127369 338.572479,49.196945 338.750641,64.053108 
	C338.818512,69.711578 339.000732,75.388214 338.608795,81.020241 
	C338.497711,82.616455 336.545380,84.084541 335.437469,85.611389 
	C334.533295,84.088737 332.924744,82.600441 332.848541,81.037415 
	C332.540863,74.726974 332.926239,68.383690 332.645813,62.070736 
	C332.190979,51.832882 324.780609,46.458351 314.881897,48.892166 
	C308.830505,50.380039 305.547882,54.325401 305.433807,60.644287 
	C305.310669,67.466560 305.566376,74.299911 305.269836,81.111580 
	C305.202820,82.651428 303.537354,84.121681 302.607666,85.623962 
	C301.512054,84.091690 299.507355,82.582855 299.467163,81.023384 
	C299.188507,70.211296 299.203247,59.386257 299.430939,48.571846 
	C299.468750,46.777023 301.008087,45.013817 301.853546,43.236000 
	C303.399902,44.471630 304.946228,45.707260 306.759399,47.156082 
	C309.014465,46.108368 312.116516,44.667164 315.639648,43.152035 
z"/>
<path fill="#F0F0F3" opacity="1.000000" stroke="none" 
	d="
M619.718750,77.669144 
	C619.718750,67.725830 619.572327,58.237534 619.842651,48.761124 
	C619.896545,46.870617 621.542664,45.025528 622.454651,43.159500 
	C623.861938,44.460426 625.269165,45.761360 627.069031,47.425224 
	C631.873901,43.480320 638.147339,41.685303 645.179138,43.505421 
	C653.300781,45.607613 658.372559,51.660995 658.824158,60.477844 
	C659.181152,67.448723 659.122925,74.457207 658.830505,81.431442 
	C658.770630,82.858353 656.848633,84.207161 655.784973,85.591957 
	C654.838318,84.100121 653.151184,82.645256 653.074585,81.109993 
	C652.759705,74.802734 653.071960,68.467278 652.899719,62.149109 
	C652.593384,50.910702 642.028503,44.821697 631.992126,50.038330 
	C627.986267,52.120438 625.761780,55.379047 625.792297,60.046402 
	C625.834778,66.535217 625.836853,73.024963 625.772766,79.513489 
	C625.747559,82.057495 626.508301,85.606117 622.521912,85.490555 
	C618.870667,85.384712 619.895935,81.975853 619.724487,79.625412 
	C619.688232,79.128891 619.718872,78.627495 619.718750,77.669144 
z"/>
<path fill="#F3F3F5" opacity="1.000000" stroke="none" 
	d="
M566.980957,75.897278 
	C566.981079,66.586899 566.829346,57.757378 567.099792,48.940811 
	C567.159363,46.999805 568.717651,45.104794 569.585815,43.188614 
	C571.089539,44.514530 572.593323,45.840439 573.488159,46.629471 
	C578.359741,45.443180 583.500427,43.241894 588.684204,43.134983 
	C598.244568,42.937809 605.420471,50.107235 605.975830,59.646992 
	C606.401001,66.950134 606.286682,74.297211 606.064880,81.614204 
	C606.023926,82.965080 604.323975,84.265671 603.389771,85.589478 
	C602.323975,84.194817 600.413818,82.844658 600.337585,81.397842 
	C599.996216,74.921700 600.204468,68.417839 600.161133,61.924347 
	C600.126587,56.748184 598.408203,52.393272 593.508972,49.989059 
	C588.358276,47.461460 582.775940,47.277344 578.376892,50.795197 
	C575.750916,52.895180 573.641541,56.893608 573.246521,60.266624 
	C572.457764,67.001259 573.196045,73.901718 572.873291,80.713303 
	C572.794128,82.384895 571.056763,83.977913 570.081665,85.607040 
	C569.048767,84.030838 567.717224,82.565170 567.079773,80.842621 
	C566.591980,79.524338 566.981567,77.881355 566.980957,75.897278 
z"/>
<path fill="#EFEFF2" opacity="1.000000" stroke="none" 
	d="
M729.316589,44.007286 
	C737.699158,41.582386 744.916321,42.823540 750.769592,48.983166 
	C751.709473,49.972183 751.497375,52.055874 751.817810,53.633545 
	C750.228943,53.369759 748.254272,53.618156 747.113708,52.759163 
	C739.657532,47.143742 731.853333,46.887959 726.369507,52.375576 
	C720.881165,57.867737 720.363708,68.702324 725.291626,74.941475 
	C729.969116,80.863503 738.927002,82.180252 746.079163,77.855804 
	C748.045654,76.666794 750.147583,75.138885 751.381104,77.987083 
	C751.813171,78.984810 750.221313,81.549561 748.904968,82.502892 
	C739.844604,89.064323 726.131042,86.364594 719.749451,76.975883 
	C713.030701,67.090958 715.453308,52.740231 724.979431,46.248512 
	C726.208008,45.411240 727.606384,44.823017 729.316589,44.007286 
z"/>
<path fill="#F0F1F3" opacity="1.000000" stroke="none" 
	d="
M774.899292,50.045967 
	C773.733887,50.888844 772.482300,51.713814 772.459290,52.571762 
	C772.298401,58.565094 772.193787,64.574089 772.460327,70.560745 
	C772.719788,76.388107 775.238098,78.504845 781.160217,79.488770 
	C782.717896,79.747581 784.041748,81.413551 785.473022,82.433350 
	C783.921814,83.528160 782.405945,85.505882 780.813477,85.569672 
	C772.552185,85.900589 766.716614,79.718071 766.400269,70.445976 
	C766.174255,63.821239 766.356384,57.182583 766.356384,51.721748 
	C763.314758,49.917892 761.066345,48.584480 758.817993,47.251068 
	C760.959167,45.959377 763.100403,44.667694 766.343872,42.711052 
	C766.343872,40.589878 766.032715,36.936840 766.490784,33.382927 
	C766.684998,31.875605 768.493347,30.576302 769.568054,29.182461 
	C770.496643,30.531311 772.062683,31.807314 772.226807,33.243511 
	C772.619934,36.684124 772.353821,40.200066 772.353821,44.561951 
	C775.019775,44.561951 777.493896,44.238136 779.822449,44.680542 
	C781.274048,44.956333 782.505737,46.389591 783.836182,47.303406 
	C782.517639,48.215771 781.308777,49.455677 779.848450,49.944553 
	C778.499695,50.396065 776.881409,50.042366 774.899292,50.045967 
z"/>
<path fill="#F0F1F3" opacity="1.000000" stroke="none" 
	d="
M354.347900,61.979576 
	C354.347900,57.851044 354.347900,54.214737 354.347900,51.678284 
	C351.357117,49.935455 349.090088,48.614388 346.823059,47.293320 
	C348.941986,45.982994 351.060913,44.672668 354.350189,42.638618 
	C354.350189,40.948154 353.984039,37.620106 354.489685,34.430244 
	C354.785461,32.564037 356.472443,30.918341 357.533569,29.173439 
	C358.480408,30.842417 359.992493,32.429398 360.249115,34.198509 
	C360.697571,37.289799 360.374084,40.493073 360.374084,44.570312 
	C363.162201,44.570312 365.783112,44.280235 368.289429,44.690369 
	C369.579193,44.901424 370.664795,46.359932 371.842651,47.254749 
	C370.708374,48.180840 369.676788,49.685593 368.417786,49.909054 
	C366.012695,50.335934 363.478027,50.033024 360.624146,50.033024 
	C360.624146,57.563774 360.354492,64.816086 360.721710,72.035995 
	C360.955292,76.628716 363.987091,79.165329 368.683899,79.342545 
	C371.141418,79.435272 374.037903,79.630951 373.175446,82.846962 
	C372.820679,84.169838 369.680389,85.580826 367.850708,85.524971 
	C360.836823,85.310852 355.729004,80.497849 354.775696,73.435570 
	C354.288635,69.827477 354.469116,66.129272 354.347900,61.979576 
z"/>
<path fill="#F1F1F3" opacity="1.000000" stroke="none" 
	d="
M434.008636,51.999992 
	C434.009308,44.177738 433.832153,36.847744 434.149658,29.539248 
	C434.219360,27.934866 436.048462,26.406923 437.067352,24.843777 
	C438.043549,26.450462 439.839722,28.043407 439.866913,29.665998 
	C440.095551,43.308243 439.997772,56.955910 440.003387,70.601944 
	C440.005280,75.221092 440.447021,79.402954 446.657227,79.633057 
	C447.513824,79.664803 449.023499,81.683411 448.924286,82.647835 
	C448.814514,83.715744 446.920380,85.621689 446.293610,85.442978 
	C443.110901,84.535500 439.224945,83.831673 437.245605,81.590332 
	C435.182709,79.254356 434.385040,75.291695 434.148224,71.961044 
	C433.689026,65.503365 434.010590,58.990173 434.008636,51.999992 
z"/>
<path fill="#FDFDFD" opacity="1.000000" stroke="none" 
	d="
M46.390213,6.993470 
	C59.349651,4.903466 70.603867,9.765255 82.153847,13.352266 
	C84.881523,14.199383 88.222534,13.990122 91.075058,13.348880 
	C100.610741,11.205275 109.959152,7.244184 119.554733,6.602465 
	C131.356125,5.813231 140.991455,9.693233 142.424149,24.192467 
	C144.553665,45.743629 138.414307,65.281593 130.243103,84.550758 
	C128.427094,88.833237 126.319954,93.023338 123.991409,97.050438 
	C120.045334,103.874985 114.024811,103.555382 109.400978,97.309578 
	C104.102119,90.152000 98.022011,83.562248 92.132339,76.856651 
	C88.732826,72.986191 84.726349,72.999237 81.341774,76.692169 
	C75.634453,82.919456 69.877693,89.171692 64.867607,95.949966 
	C58.589729,104.443459 53.199600,104.312523 48.324425,94.965744 
	C40.273762,79.530869 33.700089,63.537651 31.551138,46.161911 
	C30.618994,38.624893 30.813295,30.888346 31.144852,23.270672 
	C31.548519,13.996262 37.205395,8.963640 46.390213,6.993470 
M82.923553,17.425047 
	C76.352699,16.742212 69.790459,15.897784 63.201927,15.546654 
	C62.186123,15.492517 60.130386,17.688715 60.109833,18.871216 
	C59.884090,31.860973 59.872513,44.857887 60.120461,57.846798 
	C60.143665,59.062218 62.272083,61.177067 63.530899,61.261234 
	C68.161980,61.570881 72.843559,61.036892 77.495049,61.180206 
	C79.011398,61.226929 80.658379,62.140316 81.960396,63.060772 
	C85.578842,65.618805 88.690514,69.258995 92.653419,70.884529 
	C99.770584,73.803917 107.082573,73.071182 113.461761,68.261505 
	C114.374863,67.573059 114.476730,65.808647 114.954041,64.542198 
	C113.667671,64.496658 112.312180,64.177902 111.114021,64.481018 
	C109.870529,64.795609 108.822166,65.807480 107.614647,66.350136 
	C98.958847,70.240059 89.058372,66.813774 85.194160,58.512547 
	C95.441994,51.771732 97.275604,41.798691 95.167343,30.490591 
	C101.069817,29.156485 106.127632,29.576687 110.870476,32.895390 
	C111.749550,33.510502 113.415359,33.001251 114.718071,33.010925 
	C114.284592,31.782587 114.210526,29.955139 113.349899,29.438848 
	C110.822998,27.922966 107.908401,25.770859 105.280235,25.941460 
	C96.635918,26.502577 89.562378,23.857840 82.923553,17.425047 
z"/>
<path fill="#0E153E" opacity="1.000000" stroke="none" 
	d="
M214.374695,79.863876 
	C209.298676,79.918388 204.661804,79.918388 199.742035,79.918388 
	C199.742035,63.351025 199.742035,46.982700 199.742035,30.650047 
	C218.244446,27.802475 231.223114,34.901779 233.955734,49.199947 
	C236.844193,64.313538 229.460938,76.119965 214.374695,79.863876 
z"/>
<path fill="#0D133D" opacity="1.000000" stroke="none" 
	d="
M388.713837,56.071098 
	C392.957520,49.693760 398.590027,47.301174 405.665588,48.842354 
	C412.403442,50.309982 416.162750,54.846664 417.479767,61.461250 
	C419.310303,70.655205 413.206482,79.226921 404.203156,80.234482 
	C394.488892,81.321602 386.782990,74.818390 386.699738,65.047920 
	C386.675232,62.171467 387.872559,59.284592 388.713837,56.071098 
z"/>
<path fill="#161D44" opacity="1.000000" stroke="none" 
	d="
M258.378784,54.527390 
	C263.325317,48.829666 269.102295,46.909752 275.014038,49.115211 
	C280.522217,51.170113 283.297363,55.373108 283.852631,61.494804 
	C274.504272,61.494804 265.437225,61.494804 255.575195,61.494804 
	C256.542694,59.005901 257.353912,56.919109 258.378784,54.527390 
z"/>
<path fill="#161D44" opacity="1.000000" stroke="none" 
	d="
M698.736877,61.753296 
	C691.010742,61.753300 683.754944,61.753300 676.459656,61.753300 
	C677.288025,53.521557 682.561035,48.492016 690.066833,48.267227 
	C696.108765,48.086281 703.486023,52.247250 703.851685,61.452400 
	C702.320557,61.551594 700.763855,61.652443 698.736877,61.753296 
z"/>
<path fill="#0D143D" opacity="1.000000" stroke="none" 
	d="
M521.269287,74.598206 
	C516.912292,67.956841 516.646545,61.445736 520.737549,55.092278 
	C524.108154,49.857529 529.307739,47.842911 535.394348,48.492790 
	C542.352661,49.235737 547.445435,54.025608 548.803162,60.715862 
	C550.229431,67.743813 547.465149,74.713043 541.888977,78.147438 
	C536.227295,81.634499 528.579346,81.031464 523.259766,76.654144 
	C522.620483,76.128082 522.071350,75.492401 521.269287,74.598206 
z"/>
<path fill="#20264C" opacity="1.000000" stroke="none" 
	d="
M83.259140,17.603989 
	C89.562378,23.857840 96.635918,26.502577 105.280235,25.941460 
	C107.908401,25.770859 110.822998,27.922966 113.349899,29.438848 
	C114.210526,29.955139 114.284592,31.782587 114.718071,33.010925 
	C113.415359,33.001251 111.749550,33.510502 110.870476,32.895390 
	C106.127632,29.576687 101.069817,29.156485 95.167343,30.490591 
	C97.275604,41.798691 95.441994,51.771732 85.194160,58.512547 
	C89.058372,66.813774 98.958847,70.240059 107.614647,66.350136 
	C108.822166,65.807480 109.870529,64.795609 111.114021,64.481018 
	C112.312180,64.177902 113.667671,64.496658 114.954041,64.542198 
	C114.476730,65.808647 114.374863,67.573059 113.461761,68.261505 
	C107.082573,73.071182 99.770584,73.803917 92.653419,70.884529 
	C88.690514,69.258995 85.578842,65.618805 81.960396,63.060772 
	C80.658379,62.140316 79.011398,61.226929 77.495049,61.180206 
	C72.843559,61.036892 68.161980,61.570881 63.530899,61.261234 
	C62.272083,61.177067 60.143665,59.062218 60.120461,57.846798 
	C59.872513,44.857887 59.884090,31.860973 60.109833,18.871216 
	C60.130386,17.688715 62.186123,15.492517 63.201927,15.546654 
	C69.790459,15.897784 76.352699,16.742212 83.259140,17.603989 
M71.417328,57.181747 
	C73.633774,56.984928 75.850212,56.788109 78.390350,56.562546 
	C75.526756,44.567341 79.010994,35.343983 88.167809,28.423269 
	C85.101631,20.966545 75.521317,18.246117 65.129028,20.359312 
	C65.129028,32.564068 65.129028,44.758583 65.129028,57.183125 
	C67.160149,57.183125 68.808632,57.183125 71.417328,57.181747 
M84.585258,53.357403 
	C90.906448,47.215881 92.828644,40.131538 89.874229,33.107849 
	C83.812592,37.886662 81.234627,43.973492 82.155441,51.496582 
	C82.255516,52.314156 83.319237,53.013775 84.585258,53.357403 
z"/>
<path fill="#FAFAFB" opacity="1.000000" stroke="none" 
	d="
M70.937218,57.182434 
	C68.808632,57.183125 67.160149,57.183125 65.129028,57.183125 
	C65.129028,44.758583 65.129028,32.564068 65.129028,20.359312 
	C75.521317,18.246117 85.101631,20.966545 88.167809,28.423269 
	C79.010994,35.343983 75.526756,44.567341 78.390350,56.562546 
	C75.850212,56.788109 73.633774,56.984928 70.937218,57.182434 
z"/>
<path fill="#ECEDF0" opacity="1.000000" stroke="none" 
	d="
M84.260620,53.562752 
	C83.319237,53.013775 82.255516,52.314156 82.155441,51.496582 
	C81.234627,43.973492 83.812592,37.886662 89.874229,33.107849 
	C92.828644,40.131538 90.906448,47.215881 84.260620,53.562752 
z"/>
</svg>